<svg xmlns="http://www.w3.org/2000/svg" width="60" height="60" viewBox="0 0 60 60" fill="none"><path d="M30 59.5C13.7076 59.5 0.5 46.2924 0.5 30C0.5 13.7076 13.7076 0.5 30 0.5C46.2924 0.5 59.5 13.7076 59.5 30C59.5 46.2924 46.2924 59.5 30 59.5Z" stroke="white"></path><path d="M30.4938 15C36.5558 15 41.4873 19.9315 41.4873 25.9935C41.4873 27.9891 40.5923 30.1354 40.5548 30.226C40.2657 30.9121 39.6954 31.9778 39.2841 32.6025L31.7464 44.0234C31.438 44.4916 30.9814 44.76 30.4938 44.76C30.0062 44.76 29.5497 44.4916 29.2412 44.0241L21.7029 32.6025C21.291 31.9778 20.7213 30.9121 20.4322 30.226C20.3947 30.1361 19.5003 27.9898 19.5003 25.9935C19.5003 19.9315 24.4319 15 30.4938 15ZM21.6247 29.7241C21.8827 30.3391 22.4136 31.3305 22.7829 31.8905L30.3212 43.3121C30.4699 43.5378 30.5171 43.5378 30.6658 43.3121L38.2041 31.8905C38.5734 31.3305 39.1043 30.3385 39.3623 29.7235C39.3733 29.697 40.194 27.7214 40.194 25.9935C40.194 20.6448 35.8425 16.2934 30.4938 16.2934C25.1452 16.2934 20.7937 20.6448 20.7937 25.9935C20.7937 27.724 21.6163 29.7047 21.6247 29.7241Z" fill="white"></path><path d="M30.4936 20.1758C33.7031 20.1758 36.3137 22.7871 36.3137 25.9959C36.3137 29.2047 33.7031 31.8159 30.4936 31.8159C27.2842 31.8159 24.6736 29.2047 24.6736 25.9959C24.6736 22.7871 27.2842 20.1758 30.4936 20.1758ZM30.4936 30.5226C32.9892 30.5226 35.0204 28.492 35.0204 25.9959C35.0204 23.4997 32.9892 21.4691 30.4936 21.4691C27.9981 21.4691 25.9669 23.4997 25.9669 25.9959C25.9669 28.492 27.9981 30.5226 30.4936 30.5226Z" fill="white"></path></svg>