<svg xmlns="http://www.w3.org/2000/svg" width="60" height="60" viewBox="0 0 60 60" fill="none"><path d="M30 59.5C13.7076 59.5 0.5 46.2924 0.5 30C0.5 13.7076 13.7076 0.5 30 0.5C46.2924 0.5 59.5 13.7076 59.5 30C59.5 46.2924 46.2924 59.5 30 59.5Z" stroke="white"></path><path d="M42.7915 37.3281L37.3266 33.6836C36.6331 33.2249 35.7035 33.3758 35.1908 34.0305L33.5989 36.0773C33.3943 36.347 33.0224 36.4253 32.7265 36.2609L32.4237 36.0939C31.4199 35.5468 30.1709 34.8656 27.6544 32.3482C25.1379 29.8309 24.4554 28.5809 23.9082 27.579L23.7422 27.2761C23.5755 26.9802 23.6523 26.6068 23.9221 26.4006L25.9675 24.8092C26.622 24.2964 26.7731 23.3671 26.3149 22.6733L22.6704 17.2084C22.2008 16.502 21.2586 16.2899 20.5315 16.727L18.2463 18.0997C17.5283 18.5219 17.0015 19.2055 16.7764 20.0074C15.9535 23.0058 16.5725 28.1805 24.1953 35.8041C30.2591 41.8674 34.7733 43.498 37.876 43.498C38.5901 43.5011 39.3014 43.4082 39.9907 43.2218C40.7928 42.9969 41.4766 42.4701 41.8984 41.7519L43.2725 39.468C43.7102 38.7408 43.4982 37.798 42.7915 37.3281ZM42.4972 39.0063L41.1263 41.2916C40.8234 41.81 40.3316 42.1911 39.754 42.3552C36.986 43.1152 32.1501 42.4857 24.8319 35.1675C17.5138 27.8493 16.8844 23.0139 17.6443 20.2455C17.8086 19.6672 18.1902 19.1748 18.7093 18.8714L20.9945 17.5004C21.31 17.3106 21.7189 17.4026 21.9227 17.7092L23.9024 20.6814L25.564 23.1736C25.763 23.4745 25.6977 23.8778 25.4138 24.1005L23.3679 25.6919C22.7453 26.1679 22.5675 27.0293 22.9509 27.713L23.1133 28.0082C23.6884 29.0628 24.4033 30.3748 27.0133 32.9844C29.6234 35.594 30.935 36.309 31.9891 36.884L32.2847 37.0469C32.9683 37.4301 33.8298 37.2524 34.3058 36.6298L35.8972 34.5839C36.12 34.3002 36.5231 34.2349 36.8241 34.4337L42.2885 38.0781C42.5953 38.2818 42.6873 38.6909 42.4972 39.0063Z" fill="white"></path><path d="M31.799 21.0053C36.0214 21.01 39.4432 24.4318 39.4479 28.6542C39.4479 28.9027 39.6493 29.1041 39.8978 29.1041C40.1463 29.1041 40.3478 28.9027 40.3478 28.6542C40.3425 23.935 36.5182 20.1106 31.799 20.1055C31.5505 20.1055 31.3491 20.3069 31.3491 20.5554C31.3491 20.8039 31.5505 21.0053 31.799 21.0053Z" fill="white"></path><path d="M31.799 23.7026C34.5311 23.7058 36.7451 25.9198 36.7483 28.6518C36.7483 28.9003 36.9498 29.1018 37.1982 29.1018C37.4467 29.1018 37.6482 28.9003 37.6482 28.6518C37.6444 25.423 35.0279 22.8064 31.799 22.8027C31.5505 22.8027 31.3491 23.0042 31.3491 23.2527C31.3491 23.5012 31.5505 23.7026 31.799 23.7026Z" fill="white"></path><path d="M31.799 26.4018C33.0409 26.4033 34.0472 27.4096 34.0487 28.6515C34.0487 28.9 34.2502 29.1014 34.4986 29.1014C34.7471 29.1014 34.9486 28.9 34.9486 28.6515C34.9465 26.9129 33.5376 25.5039 31.799 25.502C31.5505 25.502 31.3491 25.7034 31.3491 25.9519C31.3491 26.2004 31.5505 26.4018 31.799 26.4018Z" fill="white"></path></svg>