<svg xmlns="http://www.w3.org/2000/svg" width="60" height="60" viewBox="0 0 60 60" fill="none"><path d="M30 59.5C13.7076 59.5 0.5 46.2924 0.5 30C0.5 13.7076 13.7076 0.5 30 0.5C46.2924 0.5 59.5 13.7076 59.5 30C59.5 46.2924 46.2924 59.5 30 59.5Z" stroke="white"></path><path d="M18.9888 22.5H41.0112C41.5573 22.5 42 22.9301 42 23.4608V36.5392C42 37.0699 41.5573 37.5 41.0112 37.5H18.9888C18.4427 37.5 18 37.0699 18 36.5392V23.4608C18 22.9301 18.4427 22.5 18.9888 22.5ZM41.0112 23.2545H18.9888C18.8959 23.255 18.8141 23.3141 18.7869 23.4004L30 30.2062L41.2131 23.4004C41.1859 23.3141 41.1041 23.255 41.0112 23.2545ZM41.2235 24.2606L33.1579 29.1549L41.2235 35.3722V24.2606ZM18.7765 36.5342C18.7765 36.6481 18.8716 36.7404 18.9888 36.7404H41.0112C41.1284 36.7404 41.2235 36.6481 41.2235 36.5342V36.333L32.459 29.6026L30.2071 30.9708C30.0806 31.0484 29.9194 31.0484 29.7929 30.9708L27.541 29.6026L18.7765 36.333V36.5342ZM18.7765 35.3722L26.8628 29.1751L18.7765 24.3058V35.3722Z" fill="white"></path></svg>