<?xml version="1.0" encoding="UTF-8"?>
<svg xmlns="http://www.w3.org/2000/svg" width="78" height="82" viewBox="0 0 78 82" fill="none">
  <path d="M16.3992 18.5052C15.5209 18.9449 15.9162 21.1653 15.5209 21.8028C15.1257 22.4404 14.8183 22.2645 14.4231 22.902C14.0278 23.5396 14.3572 26.1996 13.3252 26.1996C12.2932 26.1996 12.8202 23.7154 12.6665 22.902C12.5128 22.0886 9.39487 18.6372 8.05548 18.5052C7.13328 18.5932 6.95762 19.1428 6.73805 19.6044C6.73805 20.3079 8.27505 20.4838 8.71419 21.8028C8.49462 23.7814 8.49462 25.76 8.49462 27.5187C6.18912 25.6061 0.546118 25.3642 1.02918 28.398C1.24875 29.7171 2.85162 27.9583 3.66404 28.398C4.47646 28.8377 4.36667 31.212 5.42061 31.6956C6.2989 32.3771 8.84594 31.3219 8.93376 32.575C8.97768 33.2125 6.95762 33.4543 6.51847 33.894C5.72801 34.6415 5.20104 35.7846 4.54233 35.8726C3.88361 35.8726 2.91749 35.4549 2.78575 35.8726C2.78575 36.3123 4.87168 38.6206 6.2989 38.7305C8.27505 38.9503 8.99964 36.1364 10.2512 36.9718C11.5028 37.8072 8.31896 39.6978 8.93376 40.4892C9.54857 41.2806 10.2073 40.2254 10.9099 40.9289C11.2612 41.8302 10.6025 44.5342 11.7882 44.886C13.0398 45.4136 13.1056 42.4678 13.5448 42.6876C13.6765 43.2152 13.3032 44.6662 14.2035 44.886C14.7963 44.9739 14.8622 43.9847 15.7405 44.2265C15.7625 44.9519 15.7625 48.3375 16.8384 48.4034C17.9362 48.5353 17.7386 45.7654 18.1558 45.7654C18.6608 46.3589 18.3534 49.4587 19.2536 49.5026C20.2637 49.6565 19.8026 47.656 20.3515 47.3042C20.8565 47.9637 21.12 49.9643 22.5472 49.7225C24.3038 49.6785 22.7229 46.6227 23.8647 46.4249C25.6212 46.4249 26.0604 47.3042 25.8408 48.1836C25.2699 51.1734 21.1639 62.2533 17.7166 63.5724C16.8384 63.7922 12.4689 63.0228 11.1295 63.5724C9.7901 64.1439 9.48269 65.5949 9.37291 66.2104C10.0755 66.3643 11.6125 65.8367 11.7882 67.0898C10.9099 68.6287 8.60441 72.5418 10.0316 74.3445C11.4808 75.3997 11.4149 71.9482 12.8861 72.5858C12.908 73.8169 12.2932 78.4995 14.6426 78.7413C15.2355 78.2796 15.7185 73.2673 17.7166 73.4651C19.1658 73.5311 19.0341 77.0925 20.3515 76.9826C21.2737 77.0045 21.6689 75.4437 21.8885 74.5643C22.2179 73.4651 22.174 71.7504 21.6689 70.8271C22.657 71.1348 22.8327 71.9263 23.4255 71.4866C23.8427 70.7831 23.4694 69.7279 23.8647 69.2882C24.3916 69.1343 25.0503 69.7279 25.6212 69.0683C26.0604 68.2549 23.5792 67.6834 23.8647 66.4303C24.6551 65.9686 26.6532 67.7713 27.1582 67.0898C27.3778 66.4522 25.5114 64.1 26.2799 63.3525C27.0265 62.6051 28.0146 64.8035 28.9148 64.2319C29.332 63.3305 28.6733 60.7584 29.354 59.6152C30.2322 60.4286 30.6275 61.308 31.3301 61.1541C31.9669 60.4286 31.1544 58.4941 31.9888 58.2962C32.8012 58.1643 32.5158 60.3407 33.7454 59.3954C34.6237 58.7359 34.1626 57.8126 34.4041 56.9772C34.6456 55.834 38.8395 57.8126 41.4304 57.197C44.5044 56.9332 49.862 51.9648 50.6524 51.9209C50.85 54.1193 47.9736 55.9 47.798 56.9772C47.5784 57.4168 47.5784 57.6367 47.798 57.8565C48.2591 58.1423 49.1813 57.2849 49.5546 57.197C49.9937 57.6147 47.776 58.626 48.0176 59.6152C48.9398 60.5386 49.84 58.4061 50.2133 58.7359C50.1255 59.5713 49.357 59.5933 49.5546 60.4946C50.345 60.4946 50.367 59.6812 51.5307 60.0549C52.2333 60.8244 53.2214 62.0555 53.946 62.2533C52.1455 62.737 50.872 64.9573 49.9937 65.7707C48.6104 66.804 46.5025 66.738 45.1631 66.4303C44.0433 66.0126 42.9235 65.485 41.8695 65.5509C40.9913 65.6169 39.8934 66.1225 39.8934 66.8699C40.0032 67.5514 41.8476 67.1338 41.8695 68.189C41.9793 69.0244 38.9932 70.0136 39.6738 71.2667C40.2447 71.9702 42.1769 70.871 42.5283 71.9263C42.3965 72.8056 40.3545 74.8501 41.65 76.323C42.4404 76.9826 43.7359 74.7402 44.724 74.7842C46.4366 74.9161 46.788 76.8946 48.0176 76.5429C48.9837 76.323 47.7321 73.4212 48.4567 73.2453C49.1813 73.0694 49.0935 73.9708 49.7741 73.685C50.4768 73.4212 49.1813 72.0582 49.7741 71.4866C50.2792 71.4646 50.1035 74.2346 51.3111 73.685C52.1016 72.6297 51.3331 71.5305 51.0916 70.6072C51.8162 71.3327 52.6725 73.2673 53.7264 72.5858C54.2754 71.9043 52.914 71.0469 53.0677 70.1675C53.6166 70.4094 54.8902 71.5745 55.483 70.8271C55.7026 70.3654 55.0439 70.0136 55.2634 69.0683C55.6148 67.6834 56.7785 69.2002 57.2396 69.0683C57.7666 68.8485 57.6129 68.3649 58.3374 68.189C59.062 67.9691 60.1379 69.3102 60.9723 68.8485C61.2797 68.101 60.6869 67.9472 60.7527 65.9906C61.3675 63.7482 67.9547 60.6485 69.316 60.2748C67.1642 61.7257 64.9246 63.3525 64.2659 64.8914C63.3876 66.8699 63.8926 69.2882 62.7289 70.1675C62.0702 70.8271 61.631 71.0469 60.7527 70.6072C58.6448 70.1016 54.8682 71.7943 55.2634 73.4651C56.4272 73.4651 57.8324 73.3112 58.557 73.685C58.1618 74.2346 56.1198 77.73 57.2396 78.3016C58.3374 78.8072 58.4911 76.367 59.6549 76.5429C59.8525 77.3783 59.4573 80.2802 60.7527 80.7198C62.1141 80.8737 61.9604 77.0705 63.3876 77.2024C64.6392 77.2903 63.4535 80.1922 64.705 80.2802C66.0005 80.3901 65.8248 76.0153 66.6812 75.6635C67.4497 75.1799 67.3399 75.6635 67.779 75.4437C67.9547 74.3445 67.6692 72.3879 67.5595 71.7064C68.4377 71.1568 68.4377 72.9155 69.316 72.3659C70.3041 71.8163 69.2941 69.0024 69.5356 68.6287C70.1724 68.8045 70.853 69.9477 71.7313 69.7279C72.6096 69.7279 73.1366 69.6619 73.2683 68.8485C73.3562 68.4308 71.9729 68.145 71.7313 66.8699C71.7313 66.2104 71.5118 65.7707 71.7313 65.3311C72.3022 65.375 74.2564 66.826 75.4641 66.6501C76.6058 66.4083 77.045 65.1992 76.7815 64.012C75.4201 64.4297 73.927 62.7589 74.1466 61.1541C75.0688 60.4286 76.013 62.8689 76.5619 62.4732C77.045 61.7037 77.1548 60.6485 76.3423 59.1756C75.1786 57.5487 71.5337 55.3504 69.5356 53.4597C71.1385 50.1402 74.1247 43.5889 70.853 39.8297C72.8292 37.4554 74.8053 35.8726 75.0249 33.0147C74.7834 31.124 71.5996 28.9696 70.853 26.8592C70.2822 24.7927 72.8292 23.1219 71.5118 22.6822C68.6573 21.6929 68.5036 23.6055 67.779 24.8806C65.254 24.8806 59.5012 24.9465 56.8004 24.8806C53.2214 25.0125 49.8839 23.8693 49.335 22.4624C48.7641 21.2313 50.6524 19.0768 49.5546 18.5052C48.7641 17.9337 47.2491 19.2087 47.1393 19.8243C47.0734 19.2967 47.6004 16.9004 48.6763 16.5267C49.2252 16.5926 50.5426 18.4173 52.1894 18.5052C54.2973 18.6591 56.9761 16.4168 57.6787 14.1085C59.1499 9.44786 54.5608 7.7551 51.7503 7.95295C51.4429 9.31596 53.7703 10.7449 53.5069 11.9101C53.3092 13.0752 53.0238 13.8447 51.7503 14.1085C51.2233 13.2951 52.3651 9.25001 49.1154 8.39263C47.5565 8.45858 48.4787 9.25001 48.0176 10.8109C46.788 12.5696 42.9455 15.4495 42.9674 17.4061C42.2428 21.7809 48.2371 28.398 51.7503 29.9369C56.4491 29.0356 65.8029 26.8592 69.0965 28.8377C67.0325 30.4865 67.0325 31.3878 67.9986 33.0147C68.811 34.2018 69.1843 31.6297 70.1943 32.1353C70.6335 33.0147 71.1165 34.9492 69.9748 35.6527C67.9986 36.1584 66.9886 34.0919 61.8506 34.1139C58.2935 33.96 55.2854 34.9932 51.3111 37.1916C50.4768 36.5101 49.0056 35.4329 42.3087 34.1139C41.9135 32.575 42.3965 32.3551 41.8695 31.6956C40.596 30.4425 40.7278 32.4211 40.3325 31.4758C39.9593 31.0141 39.8495 29.2554 39.8934 28.398C40.3545 28.1122 40.5521 28.6179 41.65 28.1782C43.8237 27.6506 45.9536 21.9347 44.0653 20.0441C44.8118 21.1433 42.5283 27.123 40.113 25.3203C40.3325 25.9358 42.9894 23.9133 41.8695 21.8028C41.1889 21.2093 40.8156 22.4843 40.113 22.2425C39.4103 22.0007 39.2566 22.4184 39.4543 21.1433C40.0691 20.22 42.8357 18.6372 42.9674 17.1862C42.4844 16.0211 42.2428 16.7465 41.4304 16.3069C41.4743 15.5814 39.8056 13.6908 38.576 12.5696C39.4323 11.7782 39.9373 10.4811 40.0251 9.05215C40.1349 7.7551 39.8934 6.58995 39.4543 5.9744C38.1149 5.86448 37.6538 8.32668 36.5998 8.17279C36.2266 7.64518 37.1268 4.47949 35.9411 3.99584C34.9091 3.55616 35.0628 4.43552 34.8432 5.31488C35.1287 4.78726 34.2943 0.148651 31.1105 1.13793C30.2542 1.8634 32.6036 3.71005 31.5497 5.31488C30.5616 5.88646 30.4738 3.02855 29.1344 3.55616C27.3339 3.66608 28.2122 9.07414 26.9387 9.49183C25.4017 9.75564 25.753 6.98566 24.3038 7.0736C22.6131 8.19478 24.6332 11.9101 24.9625 12.5696C24.3477 13.339 22.6351 13.7347 22.5472 16.9664C21.8885 18.5052 20.5272 19.4945 20.5711 20.0441C20.8126 21.2093 21.5372 21.7809 22.1081 22.0227C22.7009 22.2645 22.8546 21.4511 23.2059 21.8028C23.3816 22.4843 23.4914 23.1439 22.7668 23.5616C22.3277 23.9353 21.2737 22.7262 20.7906 23.5616C20.3735 24.8586 23.8427 26.2216 23.4255 27.079C22.657 27.8045 21.6909 27.7825 21.0102 27.5187C20.2637 27.2109 19.8465 25.3862 19.0341 25.3203C17.3653 29.5632 21.142 33.0147 23.2059 32.7948C23.0303 34.1358 22.7229 33.916 23.4255 34.3337C24.0184 34.7074 25.6212 33.6742 25.6212 33.6742C26.5434 34.3117 24.8747 36.3782 21.2298 36.0924C17.2116 36.9498 15.7405 34.5535 15.9601 31.6956C15.5868 29.4752 18.2656 24.7927 18.5949 22.902C18.4851 20.7696 17.6508 18.4173 16.3992 18.5052Z" stroke="#386ACA" stroke-linejoin="round"></path>
  <path d="M14.423 23.1221C15.7624 24.1553 16.9261 24.6609 17.9361 24.2213" stroke="#386ACA"></path>
  <path d="M8.71411 23.5612C10.9757 23.891 11.5466 23.0996 12.0077 22.2422" stroke="#386ACA"></path>
  <path d="M4.54236 29.7173C5.77196 28.9259 6.38676 27.9366 6.73808 26.8594" stroke="#386ACA"></path>
  <path d="M5.85974 34.9932C6.60629 35.3889 7.22109 36.0704 7.17717 38.2908" stroke="#386ACA"></path>
  <path d="M13.7645 37.8511C11.7005 38.3567 11.1077 39.5438 11.1296 40.709" stroke="#386ACA" stroke-linecap="round"></path>
  <path d="M13.5449 42.4679C14.0719 41.1268 14.533 39.6979 15.9602 39.8298" stroke="#386ACA" stroke-linecap="round"></path>
  <path d="M19.2535 42.0281C17.6068 41.8083 16.5528 42.5557 15.96 44.0067" stroke="#386ACA" stroke-linecap="round"></path>
  <path d="M19.9123 43.7866C18.529 44.1164 18.3973 44.8419 18.1558 45.5453" stroke="#386ACA" stroke-linecap="round"></path>
  <path d="M21.8886 43.7866C20.637 44.4461 20.5931 45.8311 20.3516 47.0842" stroke="#386ACA" stroke-linecap="round"></path>
  <path d="M19.0339 74.3447C19.6048 73.6412 20.2416 73.0256 21.6688 73.2455" stroke="#386ACA" stroke-linecap="round"></path>
  <path d="M13.1057 73.6851C14.1377 73.707 15.0379 74.0148 15.7406 74.7843" stroke="#386ACA" stroke-linecap="round"></path>
  <path d="M11.3491 68.6289C13.1057 69.2884 12.6666 71.0471 12.6666 72.1463" stroke="#386ACA" stroke-linecap="round"></path>
  <path d="M12.0079 66.65C12.9521 65.8146 12.7984 64.6495 12.8862 63.5723" stroke="#386ACA" stroke-linecap="round"></path>
  <path d="M12.0079 67.09C13.4791 66.6723 15.3674 66.9361 17.0581 66.8701" stroke="#386ACA" stroke-linecap="round"></path>
  <path d="M12.8861 72.1461C14.1157 70.893 15.499 69.8598 17.058 69.0684" stroke="#386ACA" stroke-linecap="round"></path>
  <path d="M17.7166 73.0257C18.1777 71.3109 19.034 69.882 20.1318 68.6289" stroke="#386ACA" stroke-linecap="round"></path>
  <path d="M23.4256 69.2879C22.6571 68.2767 22.196 67.0676 21.8885 65.7705" stroke="#386ACA" stroke-linecap="round"></path>
  <path d="M23.645 66.43C22.9863 65.9684 22.8985 64.4735 23.2059 62.9126" stroke="#386ACA" stroke-linecap="round"></path>
  <path d="M26.0603 63.3525C25.8187 62.8029 25.9066 60.8683 25.8407 59.6152" stroke="#386ACA" stroke-linecap="round"></path>
  <path d="M29.354 59.3953C29.2223 58.9776 28.9149 57.7905 28.6953 56.9771" stroke="#386ACA" stroke-linecap="round"></path>
  <path d="M31.7693 58.0765C32.0767 56.8234 31.6815 55.5923 31.9889 54.5591" stroke="#386ACA" stroke-linecap="round"></path>
  <path d="M34.6238 56.5373C34.4701 54.163 34.492 51.7228 33.7455 49.5024" stroke="#386ACA" stroke-linecap="round"></path>
  <path d="M43.6261 65.9907C43.7579 67.1779 43.1431 67.9253 42.0891 68.409" stroke="#386ACA" stroke-linecap="round"></path>
  <path d="M41.8695 68.8486C42.7917 69.5301 42.7478 70.5194 42.7478 71.4867" stroke="#386ACA" stroke-linecap="round"></path>
  <path d="M42.7479 72.146C43.6482 72.9154 44.241 73.7288 44.7241 74.5642" stroke="#386ACA" stroke-linecap="round"></path>
  <path d="M46.2609 75.2238C46.722 74.7402 47.1172 74.2126 47.7979 73.9048" stroke="#386ACA" stroke-linecap="round"></path>
  <path d="M45.3827 74.5646C44.9655 72.3882 45.9316 72.2343 46.4805 71.4868" stroke="#386ACA" stroke-linecap="round"></path>
  <path d="M42.7479 71.9263C44.0214 71.1129 45.1413 70.1456 46.9198 69.9478" stroke="#386ACA" stroke-linecap="round"></path>
  <path d="M42.0891 68.6289H46.9197" stroke="#386ACA" stroke-linecap="round"></path>
  <path d="M58.3374 71.0469C58.4472 71.7723 58.4691 72.5198 58.3374 73.2453" stroke="#386ACA" stroke-linecap="round"></path>
  <path d="M58.557 74.1249C59.4353 74.0809 59.7866 74.8284 59.6549 76.3233" stroke="#386ACA"></path>
  <path d="M62.5093 77.4221C61.4334 76.191 60.6429 76.235 59.8744 76.3229" stroke="#386ACA" stroke-linecap="round"></path>
  <path d="M63.6071 76.9828C64.3536 76.675 65.1001 76.4332 65.8028 76.763" stroke="#386ACA" stroke-linecap="round"></path>
  <path d="M66.6812 75.4439C66.0005 74.7184 65.6053 73.839 65.8029 72.5859" stroke="#386ACA" stroke-linecap="round"></path>
  <path d="M62.7288 76.9826C62.663 76.1472 63.0362 75.4437 63.6071 74.7842" stroke="#386ACA" stroke-linecap="round"></path>
  <path d="M59.655 76.3229C60.7748 75.1797 61.9386 73.9926 62.9486 73.2451" stroke="#386ACA" stroke-linecap="round"></path>
  <path d="M58.557 73.4649C59.2377 72.7834 60.4014 72.6735 61.4114 72.3657" stroke="#386ACA" stroke-linecap="round"></path>
  <path d="M66.4615 61.1544H64.2658C62.2677 61.2423 61.2137 57.6589 60.9722 56.0981C59.9402 56.7136 60.1378 57.7029 59.6548 58.0766C59.3035 57.7689 59.4133 56.3399 58.9961 56.3179C58.3593 56.4718 58.6228 58.3185 58.3374 58.5163C57.5908 57.9667 58.1837 54.0536 58.1178 53.46C57.5688 52.8005 57.5688 53.9437 57.2395 53.6799C57.1517 53.2182 57.2395 52.3608 57.2395 51.7013C57.0638 51.0418 56.3612 50.2723 55.9221 49.5029C55.6147 48.9973 55.5927 46.9088 55.7025 45.5458C55.7903 43.6552 59.1937 41.105 59.2156 41.149" stroke="#386ACA" stroke-linecap="round" stroke-linejoin="round"></path>
  <path d="M55.4831 46.6447C55.0879 46.6227 51.3112 48.8431 51.0917 50.1621C51.0917 50.6018 51.0917 51.0415 51.3112 51.4812C51.5308 51.701 52.7165 52.2066 53.2874 52.1407C54.4511 51.9428 54.8244 49.7224 55.7027 49.5026" stroke="#386ACA" stroke-linecap="round"></path>
  <path d="M31.3302 5.53467C30.9569 6.43601 30.5836 7.33735 30.4519 8.17274C30.4739 8.5025 30.3421 8.83226 31.1106 9.27194" stroke="#386ACA" stroke-linecap="round"></path>
  <path d="M34.8434 5.53467C34.2945 6.19419 33.7236 6.85371 33.526 7.51322C33.504 7.9529 33.1746 8.65639 33.7455 8.61242" stroke="#386ACA" stroke-linecap="round"></path>
  <path d="M28.6953 13.6689L30.6715 14.988" stroke="#386ACA" stroke-linecap="round"></path>
  <path d="M32.4281 15.2078L34.4042 13.6689" stroke="#386ACA" stroke-linecap="round"></path>
  <path d="M37.6977 14.9878C38.5101 15.6253 38.9712 16.4607 39.2347 17.406C38.6858 16.9224 38.1149 16.7465 37.6977 16.7465C36.6657 17.2082 36.6438 17.8677 36.5999 18.5052C37.1707 18.4613 37.7416 18.3733 38.1369 18.7251C38.8834 19.2527 39.103 20.0001 39.4543 20.7036" stroke="#386ACA" stroke-linecap="round" stroke-linejoin="round"></path>
  <path d="M36.8194 20.7036C37.566 20.9894 37.8514 21.583 38.1369 22.0227C37.6318 22.968 36.7975 22.1326 36.5999 23.1218C37.8734 24.7926 38.6199 26.6832 39.8934 28.1782" stroke="#386ACA" stroke-linecap="round" stroke-linejoin="round"></path>
  <path d="M35.7217 27.0788C36.9293 25.6719 37.6978 26.3314 38.5761 26.4193" stroke="#386ACA" stroke-linecap="round"></path>
  <path d="M39.6739 30.5965C38.8395 30.7504 38.0491 29.871 37.2586 29.0576C37.3025 30.6624 36.9512 32.4212 38.5761 33.4544C39.9594 33.4764 40.9474 32.641 41.8696 31.9155" stroke="#386ACA" stroke-linecap="round" stroke-linejoin="round"></path>
  <path d="M36.3803 33.4541V35.2128C37.6538 35.7404 38.7078 36.312 39.4543 36.9715C40.157 38.0707 40.0911 39.1699 40.1131 40.2691C40.2668 43.4128 38.2906 42.9292 36.8195 43.3469C37.083 42.7533 37.6319 41.852 37.4782 40.9286C36.9951 38.8622 36.1168 38.5983 35.2825 38.7302" stroke="#386ACA" stroke-linecap="round" stroke-linejoin="round"></path>
  <path d="M39.2347 36.7521C40.3106 35.9167 41.3865 35.0813 41.8696 33.6743" stroke="#386ACA" stroke-linecap="round"></path>
  <path d="M35.2823 30.3765C35.3921 32.2451 34.5577 33.74 34.404 35.6526C34.9749 38.2467 35.5458 39.6097 35.5019 42.028C35.5897 44.754 34.382 44.3583 33.5257 44.2264C33.5696 43.2371 33.6574 42.2478 33.0866 41.1486C32.1424 41.3025 31.5715 39.4998 31.5496 38.9502C31.4398 37.9829 33.1305 36.8837 33.0866 34.9931" stroke="#386ACA" stroke-linecap="round" stroke-linejoin="round"></path>
  <path d="M30.4518 38.5107C29.9907 39.1043 30.1444 39.6759 30.4518 40.2695C31.4838 41.2807 30.9129 42.8855 31.1105 44.2266C31.9668 44.0947 32.3181 43.2813 32.6475 42.4679V41.1488" stroke="#386ACA" stroke-linecap="round" stroke-linejoin="round"></path>
  <path d="M29.5735 37.8511C28.2121 39.1701 26.9825 40.5771 25.8407 42.028C25.3577 46.5128 26.8947 48.0736 29.1343 48.6232C29.9248 48.3154 30.7592 48.2935 31.33 46.8645C30.4517 46.9524 29.6174 46.8425 28.9147 46.205C28.4536 45.4136 28.5634 44.3803 28.6952 43.3471C28.9147 43.8747 29.0245 44.5782 29.5735 44.6661C29.9467 44.5342 30.4078 44.5342 30.4517 44.0066C30.0785 43.391 30.1443 42.5996 30.0126 41.8082C30.0785 41.1707 30.1004 40.5111 30.4517 40.0495" stroke="#386ACA" stroke-linecap="round" stroke-linejoin="round"></path>
  <path d="M28.4757 31.6953C28.4537 33.476 28.3 35.1468 28.0365 36.7516C27.6633 38.7522 26.4995 39.4117 25.1821 39.8294C24.6771 40.0932 24.4575 40.5768 24.3038 41.1484C24.3038 42.3575 23.9744 43.7645 24.5234 44.6658C24.5234 43.8305 24.6771 43.1709 24.9625 42.6873C25.3138 42.2256 25.6651 41.8519 26.0604 41.8079" stroke="#386ACA" stroke-linecap="round" stroke-linejoin="round"></path>
  <path d="M21.0103 36.5322C21.9106 37.4336 22.723 38.4668 24.3039 38.5108C25.9507 37.8732 26.2142 37.5215 26.9388 36.9719C26.2801 38.0052 25.27 38.203 24.0843 38.7306C22.1301 38.7966 20.681 39.3022 20.7908 41.1489C20.7468 42.5119 21.2958 43.4132 22.3278 44.0068C22.3497 42.9076 22.4156 42.0942 22.5473 41.8084C22.723 40.973 23.1841 40.951 23.6452 40.929C23.9306 40.929 24.3039 40.8631 24.3039 41.1489" stroke="#386ACA" stroke-linecap="round" stroke-linejoin="round"></path>
  <path d="M25.8407 33.4546C26.3018 32.3114 25.665 30.6406 27.8168 30.5967" stroke="#386ACA" stroke-linecap="round" stroke-linejoin="round"></path>
  <path d="M26.4996 14.3281C25.4456 14.7898 24.8308 15.7131 24.3039 16.7464C24.9626 16.9442 25.6213 17.274 26.28 18.0654V20.4836C25.7969 20.9673 25.1163 21.4289 25.1821 22.0225C25.7311 22.4182 26.4557 22.726 26.4996 23.3415C25.6432 24.5726 24.8528 24.8804 24.743 25.7598C24.8089 26.1555 24.7869 26.6831 25.1821 26.6391C25.5335 26.2874 25.7091 25.7158 26.4996 25.9796C26.9607 26.3533 27.334 26.7051 27.3779 27.0788C26.4337 27.9362 25.5115 28.7936 24.743 29.7169C24.5893 30.5303 24.5454 31.3217 24.5234 32.1351C24.3697 32.8606 24.0184 33.4981 23.6451 34.1137" stroke="#386ACA" stroke-linecap="round" stroke-linejoin="round"></path>
  <path d="M26.28 19.3848C25.292 19.4727 24.3258 19.5606 23.8647 20.0443" stroke="#386ACA" stroke-linecap="round" stroke-linejoin="round"></path>
  <path d="M26.4995 15.6473L27.1582 14.9878L30.6714 17.8457" stroke="#386ACA" stroke-linecap="round" stroke-linejoin="round"></path>
  <path d="M36.8194 15.2077L36.3802 14.7681L32.8671 17.4061" stroke="#386ACA" stroke-linecap="round" stroke-linejoin="round"></path>
  <path d="M31.1105 16.7466C30.825 16.9005 30.7152 17.2302 30.6713 17.6259V20.264C30.298 20.4399 30.0346 20.6817 30.0126 21.1434C30.0346 21.627 30.2322 21.8029 30.6713 22.0227C29.8809 22.0667 29.4417 22.3745 29.3539 22.9021" stroke="#386ACA" stroke-linecap="round" stroke-linejoin="round"></path>
  <path d="M32.2085 16.7466C32.45 16.9444 32.6916 17.1423 32.6476 17.6259V20.0442C33.0429 20.352 33.3722 20.5718 33.3064 20.9235C33.1527 21.8469 32.7355 21.7589 32.4281 22.0227C32.8672 22.1107 33.6796 22.0447 33.7455 22.4624" stroke="#386ACA" stroke-linecap="round" stroke-linejoin="round"></path>
  <path d="M28.256 16.0869C28.234 16.8564 28.278 17.5379 28.4756 18.0655C29.0245 19.4285 29.7271 19.5164 30.4517 19.6043" stroke="#386ACA" stroke-linecap="round" stroke-linejoin="round"></path>
  <path d="M35.0628 15.8672C35.1945 16.7246 35.0189 17.538 34.6236 18.2854C34.2504 19.0109 33.5038 19.0988 32.8671 19.3846" stroke="#386ACA" stroke-linecap="round" stroke-linejoin="round"></path>
  <path d="M30.6715 23.1218C31.2204 24.0891 31.7474 25.0783 32.6477 25.7598C34.0529 25.7598 34.6238 24.8805 35.2825 23.7813C35.3264 23.0558 35.3703 22.3523 34.8434 21.8027" stroke="#386ACA" stroke-linecap="round" stroke-linejoin="round"></path>
  <path d="M32.8671 23.1217L30.6714 25.5399C29.2222 25.9576 28.9148 25.3201 28.4757 24.6605C28.3 24.045 28.1463 22.9678 28.4757 22.0225" stroke="#386ACA" stroke-linecap="round" stroke-linejoin="round"></path>
  <path d="M34.8432 24.4409C34.1845 32.0693 33.0427 31.7836 31.9887 32.7948C30.5176 33.3224 30.0565 32.3332 29.3539 31.6956" stroke="#386ACA" stroke-linecap="round" stroke-linejoin="round"></path>
  <path d="M30.6714 25.54V31.6955C29.9249 31.6955 29.881 30.0467 29.5736 29.0575C29.4638 27.9583 29.5077 26.8591 29.5736 25.7599" stroke="#386ACA" stroke-linecap="round" stroke-linejoin="round"></path>
  <path d="M32.6475 25.7599V31.036C33.1964 30.7722 33.416 29.9148 33.7453 29.2773C34.0527 28.266 34.0088 26.903 33.9649 25.54" stroke="#386ACA" stroke-linecap="round" stroke-linejoin="round"></path>
  <path d="M29.1344 25.3203C28.5415 31.1021 29.7931 30.3766 30.4518 31.6957" stroke="#386ACA" stroke-linecap="round" stroke-linejoin="round"></path>
</svg>
