<?xml version="1.0" encoding="UTF-8"?>
<svg xmlns="http://www.w3.org/2000/svg" width="65" height="64" viewBox="0 0 65 64" fill="none">
  <path d="M33.1025 32.0511C36.7139 35.6893 40.0722 39.4278 42.8245 43.6714C43.5993 44.8661 44.2913 46.1113 44.6654 47.4938C45.0059 48.752 44.5291 49.6194 43.3871 49.9866C33.8588 53.0509 24.3305 56.1154 14.8026 59.1809C10.7519 60.4842 6.70298 61.793 2.65058 63.0909C2.19793 63.2359 1.71123 63.4818 1.27732 63.0617C0.806039 62.6055 1.04284 62.0911 1.20727 61.5889C5.46995 48.5702 9.73168 35.5511 13.9938 22.5322C14.0442 22.3782 14.0997 22.2258 14.1487 22.0713C14.9186 19.6473 15.767 19.2533 18.1647 20.3367C22.0257 22.0812 25.1996 24.8157 28.3411 27.5747C29.9554 28.9924 31.4776 30.5151 33.1025 32.0511ZM16.0703 39.0899C17.1724 43.8222 13.4663 47.9319 8.71632 47.1785C7.77904 47.0298 7.49646 47.4281 7.25844 48.1695C5.95711 52.2228 4.63176 56.2683 3.32866 60.321C3.25142 60.5612 2.99759 60.8212 3.34513 61.1951C9.38034 59.2457 15.4562 57.2832 21.4229 55.356C21.5751 54.9163 21.4638 54.695 21.3378 54.4881C20.2662 52.7285 18.6557 51.8721 16.6422 52.0238C14.4135 52.1917 12.8767 53.4135 12.1762 55.5756C11.9798 56.1818 11.826 56.8781 11.0024 56.5843C10.2885 56.3297 10.4937 55.6782 10.6673 55.1195C11.5164 52.3863 13.4473 50.8136 16.198 50.4683C18.96 50.1216 21.236 51.2496 22.7004 53.6394C23.2464 54.5306 23.6978 54.636 24.6234 54.3298C29.5885 52.687 34.5764 51.113 39.5536 49.5069C39.7252 49.4515 39.9697 49.4323 39.9968 49.0913C35.0107 46.1747 30.7131 42.348 26.5924 38.3071C25.9948 37.7212 25.5259 37.8648 25.0537 38.3929C23.6988 39.9085 23.2493 41.6666 23.9578 43.5764C24.6478 45.4368 26.0621 46.5164 28.061 46.7423C29.1309 46.8632 30.1635 46.7095 31.1302 46.1958C31.6155 45.9379 32.0905 45.9035 32.3564 46.4946C32.5976 47.0309 32.2143 47.321 31.8296 47.5742C31.6616 47.6847 31.4715 47.7633 31.2873 47.8474C28.5201 49.1109 25.0164 48.152 23.2478 45.6486C21.4856 43.1542 21.7439 39.5273 23.823 37.3392C24.0884 37.0598 24.5409 36.9116 24.5492 36.265C21.146 32.6395 17.8082 28.813 15.1077 24.1708C12.7505 31.4118 10.4876 38.3627 8.22988 45.2982C10.3649 46.1505 12.6869 45.3164 13.9104 43.4195C15.0934 41.5854 14.954 39.4539 13.4965 37.4097C13.1491 36.9224 12.7592 36.4175 13.4124 35.9501C13.997 35.5319 14.3909 36.0468 14.7321 36.4378C15.3532 37.1494 15.8067 37.9601 16.0703 39.0899ZM25.1662 26.9553C22.3922 24.7524 19.6983 22.4169 16.2393 21.3337C15.8482 21.9497 16.1062 22.356 16.2693 22.7555C16.9191 24.3467 17.8753 25.7589 18.8892 27.1318C23.2804 33.078 28.4688 38.2649 34.1279 42.9884C36.2771 44.7822 38.4925 46.5092 41.0333 47.7433C41.6308 48.0336 42.2209 48.4314 42.9481 48.2835C43.0213 47.0934 42.8719 46.5869 41.4797 44.5131C37.0056 37.8486 31.3714 32.2529 25.1662 26.9553Z" fill="#386ACA" stroke="#386ACA" stroke-linejoin="round"></path>
  <path d="M32.4907 5.76774C31.9764 3.3093 33.1349 1.46192 35.3708 1.03721C37.272 0.676079 39.1187 2.01682 39.52 4.08218C39.7562 5.29786 39.3716 6.37943 38.4571 7.15512C37.7259 7.77535 37.6422 8.46121 37.7308 9.31199C38.4202 15.9261 36.0785 21.3005 31.0384 25.5583C30.5866 25.94 30.0692 26.3441 29.5771 25.7146C29.0909 25.0927 29.6156 24.6861 30.0637 24.3091C34.1938 20.8341 36.2816 16.3971 36.311 10.9993C36.3134 10.5566 36.2049 10.114 36.1944 9.67027C36.1724 8.74518 35.8302 8.23159 34.8195 8.02783C33.6866 7.79943 32.9494 6.94152 32.4907 5.76774ZM36.6911 2.74558C35.8336 2.32585 35.0757 2.59582 34.4736 3.20554C33.9472 3.73862 33.6854 4.41404 33.9817 5.20772C34.318 6.1088 34.9929 6.64581 35.8949 6.65672C36.8575 6.66837 37.5868 6.10444 37.8903 5.15163C38.2279 4.09176 37.7343 3.35762 36.6911 2.74558Z" fill="#386ACA" stroke="#386ACA" stroke-linejoin="round"></path>
  <path d="M54.1296 28.3327C48.4611 28.1059 43.8953 30.1519 40.2559 34.325C40.1226 34.4778 39.9873 34.6297 39.8421 34.7709C39.4926 35.1108 39.0902 35.3305 38.6745 34.9266C38.2946 34.5575 38.3485 34.1059 38.679 33.7225C39.2611 33.0473 39.817 32.3372 40.474 31.7411C44.8053 27.8107 49.8607 26.0934 55.6957 26.9213C56.4989 27.0353 56.8591 26.5897 57.3218 26.1223C58.4627 24.9698 60.0418 24.7086 61.465 25.3803C62.9098 26.0622 63.6634 27.406 63.5223 29.0488C63.4031 30.4376 62.3307 31.7066 60.9326 32.1134C59.1122 32.6431 57.1569 31.8133 56.6194 29.9421C56.2174 28.5428 55.4303 28.2848 54.1296 28.3327ZM60.1056 30.6388C61.9102 30.6016 62.4373 28.2724 61.4364 27.3011C60.7298 26.6155 59.9127 26.3887 59.0102 26.8391C58.1044 27.291 57.7578 28.0909 57.9421 29.0586C58.1423 30.1089 58.8436 30.6295 60.1056 30.6388Z" fill="#386ACA" stroke="#386ACA" stroke-linejoin="round"></path>
  <path d="M52.699 13.6768C52.3636 13.8481 52.1211 14.0097 51.8544 14.0972C50.9716 14.3871 50.5103 14.025 50.5797 13.1168C50.5888 12.9968 50.6228 12.8767 50.6592 12.7611C51.229 10.952 50.8724 9.45046 49.2642 8.30712C48.8772 8.03198 48.5411 7.61798 48.7169 7.05285C48.8858 6.50977 49.3731 6.53021 49.8112 6.46128C50.0911 6.41724 50.3694 6.28258 50.6435 6.2953C51.9995 6.35821 52.684 5.61486 53.1352 4.43279C53.3948 3.7526 53.5176 2.73786 54.4716 2.74912C55.4246 2.76036 55.5274 3.79755 55.7724 4.46728C56.2201 5.6915 56.9481 6.35639 58.2822 6.29092C58.4787 6.28127 58.6814 6.3556 58.8781 6.40395C59.3749 6.52607 59.9794 6.47211 60.1911 7.10386C60.4073 7.74941 59.9167 8.13773 59.5185 8.40923C57.8704 9.53299 57.7414 11.055 58.23 12.7825C58.3538 13.2204 58.4804 13.6806 58.0567 14.0196C57.5981 14.3865 57.1361 14.1619 56.693 13.9366C56.5121 13.8447 56.31 13.7773 56.1569 13.651C55.0321 12.7238 53.9113 12.679 52.699 13.6768ZM56.9571 7.67974C55.4163 7.8775 55.1039 6.5614 54.3827 5.31107C53.9598 7.14512 52.8396 7.82932 51.1766 7.99254C52.8365 8.96552 52.7388 10.3993 52.3062 12.2498C53.7789 10.7821 55.0509 11.0243 56.468 11.9712C56.1722 10.4175 56.1375 9.23663 57.3138 8.38494C57.7382 8.07763 57.4975 7.8535 56.9571 7.67974Z" fill="#386ACA" stroke="#386ACA" stroke-linejoin="round"></path>
  <path d="M42.3509 19.8285C44.2195 19.587 44.2613 19.541 44.3716 17.702C44.5313 15.037 46.4027 13.7578 48.9115 14.5915C49.2516 14.7045 49.4947 14.9086 49.5315 15.2598C49.5767 15.6902 49.2931 15.9635 48.9194 16.0489C48.5314 16.1376 48.1117 16.1707 47.7164 16.129C46.5186 16.0024 46.037 16.5349 45.9728 17.7111C45.8121 20.6544 45.2686 21.1823 42.3536 21.4479C40.7658 21.5926 40.6529 21.7124 40.6275 23.279C40.5901 25.5917 39.8422 26.3906 37.529 26.5892C35.5091 26.7625 35.509 26.7625 35.5113 28.8502C35.5115 29.0123 35.5164 29.1745 35.5119 29.3365C35.4963 29.8924 35.6216 30.6132 34.784 30.5952C34.0354 30.579 34.0005 29.8857 33.9553 29.3198C33.9134 28.7958 33.9042 28.2661 33.9242 27.7406C33.9902 26.0078 34.9332 25.0872 36.6825 25.0207C38.8778 24.9372 38.921 24.8958 39.0299 22.7693C39.1333 20.7512 39.9519 20.0075 42.3509 19.8285Z" fill="#386ACA" stroke="#386ACA" stroke-linejoin="round"></path>
  <path d="M47.4736 37.6376C45.6782 37.8767 43.9996 38.1301 42.4056 38.773C41.869 38.9893 41.2439 39.2011 41.0099 38.4026C40.7895 37.6509 41.4034 37.4332 41.946 37.2336C45.8737 35.7889 49.8461 35.6293 53.8596 36.8462C55.1817 37.247 56.4498 37.7803 57.6459 38.477C58.1687 38.7815 58.6584 39.1617 58.2758 39.8226C57.9009 40.4703 57.3728 40.125 56.9083 39.8627C54.013 38.2279 50.8971 37.5167 47.4736 37.6376Z" fill="#386ACA" stroke="#386ACA" stroke-linejoin="round"></path>
  <path d="M26.8103 14.2343C26.4967 11.7683 25.8142 9.53947 24.588 7.49097C24.3097 7.02588 24.0074 6.4922 24.6573 6.12996C25.2589 5.79465 25.6371 6.22991 25.9199 6.71856C28.8905 11.8513 29.2377 17.1934 27.1868 22.7233C27.0013 23.2234 26.6766 23.6154 26.0929 23.4175C25.3925 23.18 25.5322 22.6057 25.732 22.0999C26.719 19.6005 26.9832 17.0045 26.8103 14.2343Z" fill="#386ACA" stroke="#386ACA" stroke-linejoin="round"></path>
  <path d="M5.61951 22.8927C5.73413 22.0421 5.25575 20.8074 6.37373 20.7912C7.60702 20.7733 7.09858 22.052 7.22375 22.8164C7.23022 22.8559 7.22852 22.8978 7.22394 22.9378C7.14247 23.6492 7.50852 24.7544 6.38633 24.7498C5.35243 24.7455 5.69811 23.681 5.61951 22.8927Z" fill="#386ACA" stroke="#386ACA" stroke-linejoin="round"></path>
  <path d="M48.0445 58.2437C47.5037 57.7223 47.5364 57.2371 48.0979 56.9121C48.7194 56.5524 49.276 55.7918 50.13 56.2669C50.5893 56.5224 50.6571 57.0467 50.2418 57.3757C49.6328 57.8579 49.0291 58.4584 48.0445 58.2437Z" fill="#386ACA" stroke="#386ACA" stroke-linejoin="round"></path>
  <path d="M47.7738 52.6673C47.5412 51.6875 48.0579 51.4314 48.755 51.6727C49.416 51.9016 50.1682 52.1471 50.4537 52.9209C50.5633 53.218 50.3947 53.495 50.1375 53.6458C49.3565 54.1038 48.8698 53.417 48.2873 53.1265C48.1119 53.039 47.9741 52.8758 47.7738 52.6673Z" fill="#386ACA" stroke="#386ACA" stroke-linejoin="round"></path>
  <path d="M1.22948 12.5261C1.0603 11.5282 2.47475 10.2513 3.29262 10.5622C3.86984 10.7816 4.03138 11.3231 3.61603 11.7132C2.99601 12.2956 2.32655 12.9885 1.22948 12.5261Z" fill="#386ACA" stroke="#386ACA" stroke-linejoin="round"></path>
  <path d="M55.8832 53.5783C55.4333 52.9876 55.6574 52.5848 56.1248 52.3033C56.6985 51.9579 57.2465 51.402 57.9951 51.6599C58.5419 51.8483 58.6065 52.4409 58.2616 52.7411C57.6276 53.293 56.9817 54.0293 55.8832 53.5783Z" fill="#386ACA" stroke="#386ACA" stroke-linejoin="round"></path>
  <path d="M58.2899 57.1574C58.3067 58.3348 57.9774 58.6076 57.0814 58.1331C56.4361 57.7914 55.2224 57.5474 55.7718 56.5172C56.288 55.5492 57.1005 56.461 57.7559 56.7212C57.9362 56.7928 58.0803 56.9557 58.2899 57.1574Z" fill="#386ACA" stroke="#386ACA" stroke-linejoin="round"></path>
  <path d="M7.20324 14.5356C7.07455 15.1291 6.81814 15.4765 6.26433 15.3628C5.72058 15.2512 5.59846 14.798 5.63375 14.3308C5.68719 13.6233 5.31304 12.4766 6.39932 12.4914C7.54921 12.507 7.13314 13.6841 7.20324 14.5356Z" fill="#386ACA" stroke="#386ACA" stroke-linejoin="round"></path>
  <path d="M9.96111 6.41103C10.4381 6.14454 10.8419 5.90344 11.3057 6.06898C11.7618 6.23177 11.9215 6.57737 11.7122 7.03668C11.454 7.60302 9.85641 8.36919 9.42873 8.12189C8.93507 7.83644 8.9304 7.3994 9.21878 6.98557C9.37239 6.76513 9.65441 6.63417 9.96111 6.41103Z" fill="#386ACA" stroke="#386ACA" stroke-linejoin="round"></path>
  <path d="M9.04492 11.0214C9.80289 10.4294 11.6547 11.0602 11.7769 11.8883C11.8568 12.4293 11.5186 12.8246 11.0107 12.7093C10.1233 12.5076 9.18698 12.2516 9.04492 11.0214Z" fill="#386ACA" stroke="#386ACA" stroke-linejoin="round"></path>
  <path d="M2.20681 7.87925C1.88902 7.68563 1.64317 7.54818 1.41602 7.38473C1.04697 7.11918 0.893727 6.76201 1.12919 6.34375C1.34408 5.96202 1.73284 5.96732 2.08702 6.07485C2.38932 6.16662 2.67016 6.33565 2.95227 6.48595C3.46298 6.75803 4.03755 7.08243 3.72225 7.75977C3.39714 8.4582 2.80893 8.21532 2.20681 7.87925Z" fill="#386ACA" stroke="#386ACA" stroke-linejoin="round"></path>
  <path d="M53.7357 58.6128C53.7587 59.2391 53.7796 59.7617 53.7519 60.2817C53.7299 60.6947 53.4914 60.9519 53.0566 60.9557C52.5492 60.9601 52.3376 60.5972 52.2825 60.1849C52.1878 59.4767 52.0172 58.6967 52.6512 58.1545C53.0887 57.7803 53.4681 58.0541 53.7357 58.6128Z" fill="#386ACA" stroke="#386ACA" stroke-linejoin="round"></path>
  <path d="M53.4178 49.032C53.9967 49.7832 53.7999 50.5637 53.7163 51.2999C53.658 51.8135 53.223 52.0929 52.7372 51.7861C52.0392 51.3453 52.1853 50.5843 52.2426 49.9166C52.2953 49.3021 52.5536 48.8121 53.4178 49.032Z" fill="#386ACA" stroke="#386ACA" stroke-linejoin="round"></path>
  <path d="M6.16957 3.43164C7.05835 3.76825 7.49712 5.56671 6.90458 6.09524C6.41353 6.53324 5.89093 6.35703 5.75582 5.82301C5.55666 5.03586 5.32397 4.15645 6.16957 3.43164Z" fill="#386ACA" stroke="#386ACA" stroke-linejoin="round"></path>
  <path d="M6.03558 28.3346C5.69259 28.0452 5.61145 27.7389 5.62667 27.4023C5.65139 26.8555 5.47175 26.2144 6.18222 25.9455C6.52498 25.8158 6.853 25.9564 7.01012 26.2733C7.31228 26.8826 7.35795 27.5263 6.96772 28.1176C6.78149 28.3998 6.47838 28.5401 6.03558 28.3346Z" fill="#386ACA" stroke="#386ACA" stroke-linejoin="round"></path>
  <path d="M59.8128 40.7791C60.5844 40.3962 61.1615 40.5096 61.4496 41.2681C61.6737 41.8582 61.3624 42.2649 60.8326 42.5237C60.4613 42.7049 60.1064 42.624 59.8351 42.3541C59.3725 41.8939 59.3566 41.3714 59.8128 40.7791Z" fill="#386ACA" stroke="#386ACA" stroke-linejoin="round"></path>
  <path d="M22.2651 4.81333C21.8029 4.09141 21.8106 3.50464 22.579 3.16792C23.0088 2.97962 23.4542 3.07762 23.7543 3.49465C24.0108 3.85117 24.0708 4.23789 23.7918 4.60691C23.3969 5.12927 22.9118 5.27032 22.2651 4.81333Z" fill="#386ACA" stroke="#386ACA" stroke-linejoin="round"></path>
  <path d="M6.22372 19.4771C6.0092 19.3415 5.83143 19.2549 5.78712 19.1234C5.56383 18.4605 5.39153 17.7522 6.1457 17.322C6.55056 17.091 6.98954 17.3132 7.09894 17.7607C7.28053 18.5034 7.46613 19.3216 6.22372 19.4771Z" fill="#386ACA" stroke="#386ACA" stroke-linejoin="round"></path>
</svg>
