<?xml version="1.0" encoding="UTF-8"?>
<svg xmlns="http://www.w3.org/2000/svg" width="79" height="66" viewBox="0 0 79 66" fill="none">
  <path d="M37.353 51.3247C32.2003 50.8877 27.36 49.8786 23.0523 47.1094C20.2811 45.328 18.1046 43.0679 17.2644 39.749C17.099 39.0958 17.0534 38.4494 17.0531 37.7889C17.0517 34.5865 16.9979 31.3827 17.079 28.1823C17.1095 26.9767 16.7391 26.3633 15.5839 25.9361C11.4874 24.4215 7.43077 22.7993 3.35875 21.2186C3.02742 21.0899 2.69608 20.9608 2.36119 20.842C1.00541 20.3607 0.0522118 19.5094 0.00193685 17.9909C-0.0492333 16.4454 0.919114 15.6283 2.24091 15.0649C5.97951 13.4712 9.70467 11.8459 13.4327 10.2275C20.4231 7.19293 27.443 4.22352 34.3871 1.08628C37.5232 -0.33057 40.4261 -0.375633 43.5999 1.0348C53.7663 5.55262 64.0045 9.90859 74.2135 14.3305C74.9593 14.6535 75.6888 15.0144 76.4337 15.3396C77.6169 15.8563 78.3162 16.6967 78.2767 18.0394C78.2371 19.3841 77.4514 20.171 76.2798 20.6469C74.9155 21.201 73.556 21.7696 72.1735 22.2746C71.2775 22.6018 70.9464 23.1598 70.9513 24.1154C70.9827 30.3167 70.9792 36.5184 70.9549 42.7198C70.9518 43.5044 71.1463 44.0465 71.8389 44.4898C72.7287 45.0592 73.4009 45.9271 73.3628 47.0004C73.232 50.6889 74.639 54.062 75.4239 57.558C76.0953 60.5486 76.1705 60.534 73.4741 61.8874C71.0215 63.1184 68.5674 64.3465 66.1117 65.5712C65.4188 65.9168 64.6978 66.2609 63.9666 65.7128C63.2274 65.1587 63.3956 64.3416 63.5187 63.6012C64.2667 59.1042 65.0565 54.6142 65.7944 50.1157C65.9166 49.371 65.8968 48.5939 65.8647 47.8351C65.804 46.3976 66.3027 45.2394 67.4888 44.4242C68.0374 44.0472 68.3238 43.6189 68.3216 42.9236C68.3023 36.8746 68.3109 30.8256 68.3013 24.7766C68.301 24.5411 68.2005 24.3058 68.0894 23.8197C65.9383 24.689 63.8856 25.5026 61.8473 26.3507C61.1472 26.642 61.2017 27.3107 61.2018 27.9257C61.202 30.8232 61.0689 33.7281 61.2321 36.6163C61.4765 40.9422 59.4468 44.0047 56.1695 46.4401C52.4802 49.1817 48.2048 50.3926 43.7302 51.0379C41.6625 51.3361 39.5834 51.3945 37.353 51.3247ZM58.3008 18.1653C61.2396 18.7176 64.2318 19.0772 67.1027 19.8741C70.2235 20.7403 72.4799 18.93 75.3438 18.0141C74.8354 17.7178 74.6318 17.57 74.4066 17.4721C63.457 12.7129 52.5 7.97087 41.56 3.18984C39.7439 2.39617 38.0673 2.53987 36.2879 3.3192C25.7246 7.9455 15.14 12.5233 4.56687 17.127C4.08468 17.337 3.48045 17.4 3.19836 18.0565C3.48149 18.2091 3.7301 18.3792 4.00351 18.4854C14.5132 22.5697 25.0407 26.6088 35.5256 30.7556C38.0638 31.7595 40.4238 31.6813 42.8972 30.6734C46.5192 29.1975 50.1841 27.8273 53.8277 26.4044C57.1263 25.1162 60.4208 23.8179 64.0608 22.3891C63.3025 22.095 62.906 21.8747 62.4823 21.788C60.347 21.3512 58.2046 20.9495 56.0648 20.5349C50.5402 19.4645 45.0143 18.4011 39.4926 17.316C38.5518 17.1311 37.6069 16.7902 37.8857 15.5531C38.1394 14.4275 39.09 14.4493 39.9774 14.6192C46.0021 15.7728 52.0232 16.9453 58.3008 18.1653ZM32.2146 43.0347C35.973 43.8325 39.7645 44.028 43.5662 43.4807C47.5813 42.9027 51.3986 41.7415 54.706 39.2633C58.1615 36.674 59.5703 32.2329 58.2604 27.9357C57.692 27.7709 57.1949 28.0907 56.6925 28.2833C52.2332 29.9933 47.7719 31.6987 43.3273 33.4461C40.4411 34.5807 37.6086 34.5389 34.7289 33.394C30.1498 31.5735 25.5427 29.8235 20.9454 28.0488C20.5886 27.9111 20.2378 27.6075 19.7034 28.0068C19.7034 29.1392 19.768 30.3564 19.691 31.5647C19.475 34.9535 21.035 37.4212 23.6456 39.3461C26.139 41.1845 28.9491 42.3225 32.2146 43.0347ZM56.8111 41.1942C55.7193 42.026 54.6038 42.8256 53.3544 43.4063C45.1401 47.2246 36.7309 47.439 28.1602 44.7733C25.6284 43.9859 23.4099 42.588 21.0431 41.0623C21.2892 42.0688 21.8336 42.5938 22.3856 43.0903C23.8297 44.3891 25.4505 45.4163 27.2245 46.2177C32.2382 48.4826 37.5452 48.8337 42.8904 48.3323C47.3832 47.9109 51.6312 46.5469 55.2358 43.6328C56.217 42.8395 56.9412 41.873 57.3972 40.6855C57.2447 40.8137 57.0922 40.942 56.8111 41.1942ZM67.6264 55.7599C67.3142 57.7715 67.0019 59.7831 66.6329 62.1602C68.778 61.0861 70.5761 60.1932 72.3658 59.284C72.8055 59.0606 72.8035 58.688 72.6875 58.2423C72.1785 56.2864 71.6778 54.3278 71.2206 52.3593C70.9847 51.3435 70.2635 51.3691 69.4704 51.3564C68.5355 51.3414 68.2738 51.8391 68.1818 52.6683C68.0763 53.6193 67.8401 54.5559 67.6264 55.7599ZM70.7239 47.8229C70.6223 47.1689 70.3198 46.6106 69.6059 46.6425C69.0018 46.6695 68.6711 47.1805 68.5654 47.7672C68.5004 48.1277 68.5398 48.5589 68.968 48.6141C69.6131 48.6972 70.4061 49.0361 70.7239 47.8229Z" fill="#386ACA"></path>
</svg>
