<?xml version="1.0" encoding="UTF-8"?>
<svg xmlns="http://www.w3.org/2000/svg" width="55" height="55" viewBox="0 0 55 55" fill="none">
  <path d="M52.0449 6.78711C50.8361 6.8218 49.842 7.31983 48.9451 8.10006C46.6383 10.1066 44.347 12.1303 42.0714 14.1712C39.4294 16.5378 36.7999 18.9179 34.1826 21.3112C32.0397 23.2695 29.9059 25.2369 27.7812 27.2135C24.4739 30.2909 21.1798 33.3815 18.0042 36.5916C17.0847 37.4797 16.2287 38.4295 15.4423 39.434C15.0809 39.9176 15.0843 39.9208 15.6314 40.1909C16.1332 40.4384 16.638 40.6799 17.137 40.9337C17.2998 41.0163 17.4083 41.0182 17.527 40.8545C17.9739 40.2668 18.4617 39.7103 18.9867 39.1891C21.497 36.5785 24.1217 34.0814 26.7682 31.6064C28.165 30.3 29.5491 28.9805 30.9552 27.6841C33.3082 25.515 35.6683 23.3533 38.0354 21.199C39.5335 19.832 41.0368 18.4707 42.5455 17.1151C45.1204 14.8035 47.6917 12.4878 50.3235 10.2386C50.5502 10.0449 50.7726 9.8463 51.0056 9.66027C51.3208 9.41706 51.7088 9.28338 52.1091 9.28005C52.3472 9.27074 52.4663 9.38878 52.4486 9.63349C52.4032 10.0442 52.2298 10.431 51.9522 10.7406C50.9151 12.0247 49.7957 13.2389 48.6905 14.4643C46.2797 17.1363 43.8315 19.7757 41.3749 22.4069C39.7566 24.1401 38.1215 25.8577 36.4961 27.5844C34.009 30.2272 31.4984 32.8484 28.9644 35.4479C26.8821 37.59 24.789 39.7208 22.6301 41.7875C21.938 42.4813 21.2058 43.135 20.437 43.7454C20.3992 43.7656 20.3665 43.7939 20.3413 43.8282C20.3162 43.8626 20.2992 43.9021 20.2917 43.9438C20.2841 43.9854 20.2862 44.0283 20.2978 44.0691C20.3094 44.1099 20.3301 44.1476 20.3585 44.1794C20.6851 44.7312 21.0038 45.2874 21.3146 45.8481C21.4214 46.042 21.5235 46.0558 21.6977 45.9324C22.2352 45.5416 22.7466 45.1171 23.2288 44.6616C25.5266 42.5428 27.7195 40.3206 29.8985 38.0859C32.1446 35.7829 34.3772 33.4671 36.5963 31.1386C38.8486 28.7757 41.0875 26.4008 43.313 24.0139C45.9356 21.2089 48.5351 18.3834 51.1115 15.5374C52.0614 14.4818 53.0172 13.4303 53.9104 12.3264C54.5492 11.586 54.9288 10.6625 54.9929 9.69286C55.0416 9.02837 54.838 8.36976 54.4215 7.84486C54.005 7.31996 53.4054 6.96622 52.739 6.8523C52.5114 6.803 52.2783 6.7818 52.0453 6.78921" fill="#386ACA"></path>
  <path d="M23.4007 2.50179C27.5698 2.48568 31.7126 3.15252 35.6597 4.47505C38.546 5.45015 41.2435 6.78428 43.6302 8.6814C43.8103 8.8246 43.9172 8.80713 44.0557 8.63484C44.4532 8.1424 44.8529 7.65089 45.2741 7.17824C45.4539 6.9766 45.406 6.87392 45.2166 6.72631C44.0483 5.81291 42.804 4.99799 41.4969 4.29018C37.8662 2.32716 33.9671 1.15578 29.8957 0.509437C28.1662 0.239191 26.4211 0.076894 24.6708 0.0235151C21.235 -0.0901073 17.848 0.196975 14.5312 1.12668C12.5291 1.68804 10.7056 2.62775 8.95564 3.71531C7.05229 4.86347 5.3666 6.32958 3.97423 8.04787C2.71453 9.58252 1.84623 11.392 1.44193 13.325C0.852463 16.3083 1.47857 19.0639 3.12217 21.6064C4.4538 23.6665 6.28672 25.2153 8.35907 26.5171C9.6992 27.3583 11.1008 28.0936 12.4877 28.8531C14.3341 29.8149 15.8199 31.3331 16.7282 33.1859C16.8227 33.3803 16.9198 33.4336 17.1299 33.3321C17.7037 33.0555 18.2833 32.7912 18.8688 32.5391C19.1052 32.4376 19.1326 32.3295 19.0203 32.1044C17.9366 29.8991 16.1978 28.0705 14.0347 26.8612C12.5423 26.0137 11.0077 25.2381 9.56 24.3145C7.78522 23.1818 6.19406 21.8511 5.11061 20.0367C3.22167 16.8722 3.31718 13.7036 5.25245 10.5918C6.39593 8.75242 7.99109 7.34308 9.79494 6.15354C11.7293 4.87785 13.7756 3.83732 16.0583 3.29854C17.7161 2.91371 19.4041 2.66813 21.104 2.56442C21.8589 2.51552 22.6131 2.52973 23.3983 2.50132" fill="#386ACA"></path>
  <path d="M53.9245 26.0668C53.9542 23.8762 53.6978 21.691 53.1616 19.5649C53.0543 19.1305 53.0531 19.1319 52.6009 19.2504C52.0304 19.3996 51.4619 19.5565 50.8876 19.69C50.6635 19.7421 50.613 19.8297 50.6695 20.0476C51.2237 22.2131 51.4686 24.4442 51.3972 26.6763C51.3115 29.9059 50.5982 33.0894 49.2958 36.0544C47.9869 39.0716 46.0851 41.8039 43.6998 44.0941C41.9794 45.7341 40.039 47.1343 37.9328 48.2555C35.6257 49.5131 33.1431 50.4287 30.5649 50.9729C28.7665 51.3589 26.9265 51.5237 25.0869 51.4635C23.7213 51.4319 22.3658 51.2238 21.0552 50.8444C20.8077 50.7689 20.6872 50.8078 20.6106 51.0646C20.439 51.6407 20.2517 52.212 20.0486 52.7788C19.9573 53.0326 20.0013 53.1469 20.2771 53.2279C21.4664 53.5718 22.6885 53.7937 23.9241 53.8901C25.3325 54.0033 26.7485 53.9917 28.1548 53.8554C30.4982 53.6309 32.8021 53.1083 35.0091 52.3005C38.2913 51.122 41.339 49.3868 44.0142 47.1735C46.5599 45.0607 48.6946 42.5096 50.3142 39.6447C52.0387 36.619 53.1759 33.3033 53.6676 29.8673C53.8632 28.61 53.9495 27.3386 53.9257 26.0668" fill="#386ACA"></path>
  <path d="M10.7808 55.0002C12.9125 54.9832 14.9364 54.5534 16.732 53.372C18.5548 52.1729 19.6181 50.4848 19.7618 48.3179C19.9384 45.6536 18.8899 43.5571 16.5422 42.1711C15.4046 41.4996 14.1264 41.3294 12.8156 41.4283C11.9743 41.4813 11.1456 41.6561 10.3561 41.9471C9.41145 42.3239 8.54947 42.8768 7.81742 43.5753C6.99018 44.3371 6.25088 45.1849 5.45957 45.9821C4.57891 46.8696 3.62026 47.6443 2.38696 48.0194C1.97748 48.1334 1.55961 48.2159 1.13713 48.2659C0.898996 48.2884 0.672657 48.3787 0.485912 48.526C0.29917 48.6733 0.16011 48.8711 0.0857944 49.0951C-0.0044136 49.3144 -0.0240002 49.5557 0.0296497 49.7863C0.0832977 50.0169 0.2076 50.2258 0.385738 50.3845C2.23285 52.1554 4.32246 53.554 6.78788 54.3592C8.07382 54.7885 9.42306 55.0049 10.7808 54.9997M10.8014 52.51C10.4809 52.5054 10.1633 52.4898 9.84441 52.46C7.73258 52.2623 5.87224 51.4422 4.15465 50.259C3.99323 50.1477 3.98684 50.0869 4.17828 49.9987C5.32826 49.4422 6.36513 48.6831 7.23765 47.7588C7.94671 47.0424 8.63734 46.3076 9.3412 45.5853C10.6336 44.2582 12.2247 43.752 14.0591 43.9511C14.8905 44.0243 15.6603 44.4138 16.2052 45.0368C16.626 45.5047 16.9348 46.0598 17.1086 46.661C17.2825 47.2622 17.317 47.8943 17.2096 48.5104C17.1022 49.1265 16.8557 49.711 16.4882 50.2207C16.1207 50.7304 15.6417 51.1522 15.0865 51.455C13.7629 52.215 12.3119 52.4863 10.8004 52.51" fill="#386ACA"></path>
  <path d="M26.4479 9.82443C26.443 8.85612 26.1473 7.9109 25.598 7.10785C25.0488 6.3048 24.2705 5.67984 23.3614 5.31171C22.4522 4.94357 21.4528 4.84873 20.489 5.03913C19.5253 5.22952 18.6403 5.69664 17.9455 6.38164C17.2507 7.06664 16.7773 7.93886 16.5848 8.88844C16.3924 9.83802 16.4895 10.8225 16.864 11.7178C17.2385 12.6131 17.8735 13.3792 18.6892 13.9195C19.5048 14.4599 20.4646 14.7504 21.4476 14.7544C22.1045 14.7543 22.7551 14.6267 23.362 14.3789C23.9689 14.131 24.5203 13.7678 24.9846 13.31C25.449 12.8522 25.8172 12.3087 26.0683 11.7106C26.3194 11.1126 26.4483 10.4716 26.4479 9.82443ZM21.454 7.43277C21.9362 7.43291 22.4075 7.57391 22.8083 7.83795C23.2091 8.10199 23.5215 8.4772 23.7058 8.91613C23.8902 9.35505 23.9382 9.83798 23.8439 10.3038C23.7496 10.7697 23.5172 11.1975 23.1761 11.5332C22.8349 11.8689 22.4004 12.0974 21.9274 12.1898C21.4544 12.2822 20.9642 12.2343 20.5189 12.0522C20.0735 11.8702 19.693 11.5621 19.4254 11.1669C19.1578 10.7718 19.0151 10.3074 19.0155 9.83234C19.0136 9.5165 19.0755 9.20344 19.1974 8.91131C19.3193 8.61919 19.4989 8.35383 19.7257 8.13061C19.9525 7.90739 20.2221 7.73076 20.5188 7.61097C20.8155 7.49118 21.1333 7.4306 21.454 7.43277Z" fill="#386ACA"></path>
  <path d="M11.5619 20.8351C12.8763 20.8277 14.1344 20.3085 15.0616 19.3908C15.9889 18.473 16.5101 17.2313 16.5115 15.9365C16.5129 14.6417 15.9944 13.3989 15.0691 12.4792C14.1439 11.5596 12.8869 11.0377 11.5726 11.0275C10.916 11.0224 10.2649 11.1453 9.65677 11.3891C9.04862 11.633 8.49546 11.9929 8.02912 12.4482C7.56277 12.9035 7.19244 13.4452 6.9395 14.0421C6.68656 14.639 6.55598 15.2792 6.55528 15.926C6.55458 16.5728 6.68378 17.2134 6.93543 17.8108C7.18708 18.4082 7.5562 18.9507 8.02156 19.407C8.48692 19.8632 9.03931 20.2243 9.64693 20.4694C10.2545 20.7145 10.9054 20.8388 11.5619 20.8351ZM13.9964 15.93C13.9936 16.4039 13.8486 16.8663 13.5796 17.2592C13.3106 17.652 12.9297 17.9577 12.4847 18.1377C12.0397 18.3177 11.5507 18.364 11.079 18.2708C10.6074 18.1775 10.1744 17.9489 9.83435 17.6138C9.49433 17.2786 9.26257 16.8518 9.16825 16.3871C9.07393 15.9225 9.12125 15.4407 9.30428 15.0025C9.48731 14.5643 9.79785 14.1892 10.1968 13.9245C10.5958 13.6598 11.0653 13.5172 11.5463 13.5148C11.8692 13.5115 12.1894 13.5717 12.4883 13.6919C12.7872 13.8121 13.0588 13.9899 13.287 14.2148C13.5152 14.4398 13.6955 14.7074 13.8173 15.0019C13.9392 15.2965 14 15.612 13.9964 15.93Z" fill="#386ACA"></path>
  <path d="M32.6479 17.1726C33.3017 17.1689 33.9484 17.0383 34.551 16.7884C35.1536 16.5385 35.7003 16.1741 36.16 15.716C36.6196 15.2579 36.9832 14.7151 37.2299 14.1187C37.4766 13.5222 37.6016 12.8837 37.5978 12.2396C37.594 11.5955 37.4615 10.9585 37.2078 10.3648C36.9541 9.77119 36.5842 9.23261 36.1192 8.77981C35.6542 8.32701 35.1032 7.96887 34.4977 7.72584C33.8922 7.4828 33.244 7.35963 32.5902 7.36336C31.2697 7.3709 30.0064 7.89486 29.0781 8.81998C28.1498 9.7451 27.6326 10.9956 27.6402 12.2964C27.6479 13.5972 28.1798 14.8417 29.1189 15.7562C30.058 16.6706 31.3274 17.1801 32.6479 17.1726ZM32.62 14.6846C32.1359 14.6842 31.6627 14.5428 31.2601 14.2781C30.8574 14.0133 30.5433 13.6372 30.3572 13.1969C30.1712 12.7567 30.1215 12.272 30.2145 11.8041C30.3075 11.3361 30.539 10.9056 30.8798 10.567C31.2206 10.2283 31.6555 9.99661 32.1298 9.90097C32.604 9.80534 33.0964 9.85007 33.5449 10.0296C33.9934 10.209 34.378 10.5152 34.6501 10.9096C34.9223 11.3039 35.07 11.7688 35.0745 12.2456C35.0803 12.5656 35.0209 12.8836 34.8999 13.1806C34.7789 13.4777 34.5988 13.7478 34.37 13.9751C34.1413 14.2025 33.8687 14.3823 33.5682 14.5041C33.2678 14.6259 32.9456 14.6872 32.6207 14.6843" fill="#386ACA"></path>
  <path d="M33.8494 37.8995C33.8494 38.2141 33.8602 38.5282 33.8456 38.843C33.8354 39.0586 33.9165 39.1508 34.1346 39.1719C34.72 39.2169 35.2671 39.4759 35.6686 39.8979C36.0134 40.2822 36.2322 40.7602 36.2963 41.2691C36.3604 41.7781 36.2668 42.2943 36.0278 42.7499C35.7687 43.2133 35.3615 43.5794 34.8694 43.7915C34.3774 44.0036 33.8281 44.0498 33.3067 43.9229C32.8076 43.8298 32.3539 43.5763 32.0165 43.2023C31.6791 42.8282 31.477 42.3545 31.4418 41.8553C31.4182 41.612 31.3275 41.5226 31.084 41.5266C30.4459 41.5364 29.8077 41.5326 29.1679 41.5301C28.967 41.5301 28.8646 41.5932 28.8824 41.8165C29.0242 43.6218 29.8401 45.0323 31.4759 45.8892C34.5561 47.5027 38.4774 45.6915 38.8244 42.0332C38.8927 41.3866 38.829 40.7331 38.6372 40.1111C38.4453 39.4891 38.1291 38.9112 37.7071 38.4113C37.2852 37.9115 36.766 37.4998 36.1802 37.2006C35.5943 36.9013 34.9537 36.7205 34.2958 36.6688C33.8865 36.6306 33.8508 36.6578 33.8494 37.0702C33.8494 37.2131 33.8494 37.3562 33.8494 37.4993C33.8494 37.6327 33.8494 37.7661 33.8494 37.8995Z" fill="#386ACA"></path>
</svg>
