<?xml version="1.0" encoding="UTF-8"?>
<svg xmlns="http://www.w3.org/2000/svg" width="69" height="78" viewBox="0 0 69 78" fill="none">
  <path d="M30.6089 75.1561C28.418 73.3547 27.1535 70.9746 26.084 68.4896C24.8295 65.5748 23.9317 62.539 23.3437 59.4185C23.2212 58.7679 23.0158 58.5194 22.3062 58.7823C21.4214 59.1101 20.4927 59.3235 19.5764 59.5608C19.1761 59.6645 18.9472 59.8491 18.8365 60.279C18.3289 62.2489 17.0472 63.4482 15.035 63.6973C13.2098 63.9233 11.7846 63.1306 10.7961 61.5918C10.5599 61.2241 10.272 61.1301 9.86496 61.1185C8.39325 61.0769 6.92238 60.9839 5.51259 60.5102C3.20587 59.7351 1.50324 58.333 1.09085 55.8153C0.796562 54.0185 1.24736 52.3051 2.0086 50.6613C3.53172 47.3724 5.84349 44.6709 8.30181 42.0673C9.36175 40.9448 10.3566 39.7607 11.43 38.5493C10.8548 38.003 10.0459 37.2388 9.24171 36.4697C8.14082 35.4168 7.10175 34.305 6.14092 33.1234C5.54981 32.3965 5.58852 31.6597 6.1998 31.1279C6.79429 30.6106 7.53135 30.6863 8.17179 31.3934C9.74732 33.1327 11.384 34.8078 13.1136 36.3963C13.6035 36.8463 13.9224 36.9617 14.4753 36.4893C16.5446 34.721 18.7712 33.1576 21.0157 31.6214C21.2939 31.431 21.5058 31.2252 21.5388 30.8552C21.8065 27.8571 22.0865 24.8601 22.5662 21.8581C21.7154 21.4104 20.8224 21.1719 19.939 20.9408C16.4658 20.0322 12.9874 19.1257 9.35178 19.2166C8.04871 19.2492 6.76473 19.4154 5.57369 20.0003C3.99099 20.7776 3.46095 22.0773 3.89215 24.0274C4.20467 25.4407 4.89524 26.6773 5.62558 27.9009C5.85482 28.2849 6.10407 28.6685 6.25599 29.0845C6.48046 29.6991 6.24295 30.227 5.72466 30.5832C5.19151 30.9498 4.52351 30.9742 4.15501 30.4672C2.22164 27.8073 0.576075 25.0071 1.16493 21.5173C1.48767 19.6046 2.69252 18.2965 4.42954 17.5029C6.74131 16.4466 9.18928 16.2797 11.6815 16.5215C15.4168 16.8839 19.0523 17.7042 22.597 18.9336C22.7313 18.9801 22.8823 18.9785 23.1139 19.0122C23.4344 17.6808 23.7712 16.3851 24.047 15.0766C24.1363 14.6528 23.6769 14.4593 23.436 14.1947C21.5662 12.1409 22.0418 8.8789 24.4298 7.47111C25.0875 7.0834 25.8087 6.86213 26.5634 6.85856C27.0635 6.85619 27.3214 6.6551 27.5546 6.24245C28.2323 5.04289 29.0501 3.9408 30.0508 2.9874C32.8803 0.291742 36.4067 0.342716 39.163 3.11353C40.8652 4.8247 41.9664 6.90978 42.9192 9.09628C44.2209 12.0835 45.0379 15.2152 45.7552 18.3781C45.8803 18.9297 46.1349 19.0531 46.6616 18.8629C48.3994 18.2354 50.1809 17.7597 51.9937 17.4002C52.8917 17.2221 53.5381 17.5585 53.7562 18.3393C53.9647 19.0858 53.552 19.7915 52.6749 20.0171C50.8894 20.4763 49.0946 20.891 47.34 21.4719C46.6361 21.7049 46.3846 22.0496 46.5102 22.7671C46.8411 24.6566 47.1108 26.5553 47.2798 28.4675C47.3455 29.211 47.4759 29.9505 47.5066 30.6947C47.5265 31.1764 47.7228 31.4623 48.1085 31.7221C50.3444 33.2276 52.5163 34.8211 54.5952 36.5386C54.9129 36.8011 55.1911 37.0525 55.6175 36.6555C58.7107 33.7758 61.7181 30.8231 63.8472 27.1149C64.5086 25.9629 65.0366 24.7558 65.2021 23.4161C65.4152 21.6907 64.7979 20.5854 63.1962 19.9131C61.3234 19.1271 59.3601 19.1244 57.3817 19.2772C56.9097 19.3136 56.437 19.362 55.9644 19.3642C55.1986 19.3678 54.6532 18.9418 54.5504 18.3018C54.4401 17.6157 54.8931 16.9064 55.6617 16.7582C56.9103 16.5175 58.1833 16.4106 59.4546 16.4653C61.0011 16.5318 62.5245 16.7372 63.993 17.2978C67.0533 18.4661 68.4829 21.0412 67.8545 24.2607C67.3785 26.6997 66.171 28.7807 64.7499 30.7549C62.8479 33.397 60.6343 35.7629 58.2266 37.9505C57.9362 38.2143 57.6021 38.4445 57.5076 38.621C58.4664 39.6686 59.3727 40.6593 60.2798 41.6492C60.4796 41.8672 60.6944 41.7364 60.9015 41.6666C62.7156 41.0546 64.2842 41.5639 65.54 42.8855C66.8999 44.3166 67.0611 46.0726 66.1225 47.8798C65.8793 48.3481 65.916 48.6842 66.1719 49.1099C67.2681 50.9339 67.9788 52.8762 67.9391 55.0464C67.904 56.9614 67.0935 58.4474 65.5397 59.5434C63.9048 60.6967 62.0282 61.0481 60.088 61.1294C56.1502 61.2942 52.3621 60.4464 48.6123 59.3672C47.7546 59.1203 46.8982 58.8688 46.0534 58.623C45.6736 59.05 45.7196 59.5555 45.5924 60C45.2835 61.0783 45.0152 62.1683 44.7168 63.2497C44.468 64.1513 43.7641 64.6094 43.0094 64.3827C42.255 64.1562 41.8705 63.3801 42.1259 62.5043C42.5377 61.092 42.8934 59.6681 43.1946 58.2275C43.2955 57.7444 43.1533 57.5531 42.7342 57.3909C40.1283 56.3828 37.5547 55.2974 35.0458 54.065C34.6843 53.8874 34.3756 53.8501 33.9923 54.0408C31.467 55.2968 28.8736 56.3988 26.2417 57.4113C25.9604 57.5195 25.6864 57.6087 25.7857 58.0397C26.6539 61.8111 27.6102 65.5538 29.403 69.0178C30.1037 70.3717 30.8888 71.6718 32.0208 72.7313C33.6568 74.2624 35.1703 74.3204 36.8528 72.8333C38.342 71.5171 39.2893 69.817 40.1095 68.0396C40.4021 67.4055 40.6581 66.7544 40.953 66.1214C41.3111 65.353 42.0377 65.0565 42.7334 65.37C43.43 65.684 43.7203 66.4371 43.4248 67.1826C42.4465 69.6503 41.3211 72.0292 39.522 74.0357C37.0442 76.7991 33.7899 77.6364 30.6089 75.1561ZM40.689 30.2578C38.8584 29.1381 36.9698 28.1233 35.0655 27.1356C34.6338 26.9117 34.2744 26.988 33.8674 27.1936C30.7256 28.781 27.6946 30.5579 24.7338 32.4595C24.3058 32.7344 24.1058 33.0473 24.1353 33.5561C24.1714 34.1786 24.1585 34.8055 24.004 35.4163C23.8129 36.1717 23.3146 36.5899 22.6461 36.5744C21.9711 36.5587 21.4794 36.1166 21.3071 35.3837C21.2709 35.2296 21.3622 35.0199 21.0787 34.9094C19.3958 36.1241 17.6681 37.3247 16.0111 38.8005C17.6917 40.2636 19.3818 41.5258 21.2624 42.7908C21.2624 41.4733 21.2595 40.3543 21.2633 39.2354C21.2667 38.2661 21.8167 37.5848 22.5996 37.5684C23.3496 37.5527 23.8643 38.0904 23.9238 39.0642C24.0227 40.6811 24.1034 42.3006 24.1283 43.92C24.1378 44.5333 24.3107 44.9231 24.8462 45.2581C27.8507 47.1373 30.9106 48.9166 34.0559 50.5499C34.3514 50.7033 34.5953 50.7244 34.8956 50.569C38.1541 48.8823 41.3333 47.0595 44.4182 45.0719C44.7699 44.8453 44.9062 44.5734 44.9213 44.1526C45.049 40.5874 45.0702 37.0233 44.9233 33.4578C44.906 33.0358 44.7771 32.762 44.4164 32.545C43.1986 31.8122 41.9931 31.0589 40.689 30.2578ZM11.3667 56.3286C13.5595 54.3406 16.0525 54.4493 17.9948 56.6482C18.2957 56.9888 18.5629 57.0418 18.9697 56.9173C19.946 56.6186 20.9317 56.3493 21.9179 56.0847C22.3899 55.9581 22.5893 55.777 22.5014 55.2011C22.1262 52.7422 21.8344 50.2724 21.6606 47.7878C21.6134 47.114 21.6863 46.3676 20.9153 45.8708C18.5877 44.3711 16.3856 42.6927 14.2467 40.934C13.9502 40.6902 13.7392 40.6367 13.4192 40.9241C10.7404 43.3298 8.22022 45.8842 6.17198 48.8572C5.16871 50.3135 4.26778 51.8405 3.88628 53.613C3.3946 55.8973 4.25966 57.3564 6.50714 57.9637C7.47402 58.225 8.46243 58.3176 9.4605 58.3712C10.022 58.4013 10.3396 58.2145 10.5022 57.6655C10.6449 57.1834 10.9627 56.7851 11.3667 56.3286ZM37.4556 5.32869C37.2741 5.15777 37.0999 4.9781 36.9098 4.8173C35.2104 3.37986 33.8837 3.34982 32.1634 4.76244C31.1861 5.56492 30.5157 6.62219 29.8943 7.71053C29.7172 8.02068 29.8742 8.20838 30.0494 8.43737C32.2202 11.2756 30.802 15.0047 27.3116 15.5878C26.8424 15.6661 26.6799 15.8782 26.5886 16.2783C26.3612 17.2745 26.1513 18.2766 25.87 19.2579C25.711 19.8126 25.8619 20.0675 26.3872 20.2633C29.0062 21.2394 31.5466 22.4011 34.0772 23.5837C34.3131 23.694 34.5217 23.7655 34.7829 23.6409C37.4175 22.3842 40.0916 21.2178 42.8139 20.1637C43.175 20.0239 43.2797 19.8298 43.1972 19.4196C42.907 17.9764 42.5123 16.5626 42.1042 15.1509C41.0951 11.6604 39.8944 8.26013 37.4556 5.32869ZM63.9758 50.6878C63.7759 50.2127 63.4862 50.0762 62.9276 50.1613C59.3317 50.7095 56.8402 46.9107 58.2326 44.1105C58.4112 43.7513 58.3294 43.5173 58.0535 43.2647C57.2266 42.5075 56.4025 41.7463 55.6032 40.9604C55.2991 40.6613 55.0748 40.7 54.7744 40.9446C52.5898 42.7237 50.3416 44.4181 47.992 45.9749C47.7017 46.1673 47.5399 46.4012 47.5153 46.7647C47.4634 47.5337 47.3906 48.3024 47.2942 49.0672C47.039 51.0912 46.8017 53.1186 46.4811 55.1326C46.3776 55.7824 46.6361 55.9447 47.1569 56.1C50.5471 57.1107 53.947 58.0721 57.4998 58.3171C59.2728 58.4393 61.0396 58.4016 62.7606 57.8951C64.5808 57.3593 65.3847 56.1121 65.1837 54.2385C65.0508 53 64.5634 51.8858 63.9758 50.6878ZM42.3386 54.3475C42.5488 54.4253 42.7656 54.4891 42.9681 54.5835C43.586 54.8717 43.8505 54.7274 43.9166 54.0027C44.0227 52.8381 44.2841 51.6878 44.3936 50.5233C44.4606 49.8099 44.7257 49.0893 44.5238 48.2563C42.2376 49.6727 39.9942 50.9432 37.55 52.2848C39.2347 53.0125 40.7329 53.6596 42.3386 54.3475ZM43.8798 23.3561C43.8592 22.7805 43.5466 22.7829 43.1247 22.9631C41.7076 23.5684 40.2834 24.1573 38.8719 24.7753C38.5016 24.9374 38.0852 25.0409 37.6963 25.4259C40.033 26.6708 42.2452 27.971 44.6135 29.3794C44.5088 27.2724 44.1297 25.3829 43.8798 23.3561ZM50.685 40.6812C51.4723 40.0913 52.2755 39.5201 53.006 38.77C51.2926 37.3687 49.6175 36.0438 47.6419 34.7656C47.8744 37.5392 47.7714 40.1044 47.6876 42.8945C48.8021 42.0705 49.7001 41.4066 50.685 40.6812ZM28.4106 53.5931C29.3535 53.1792 30.2963 52.7653 31.3841 52.2879C29.0025 50.9113 26.7948 49.6351 24.4459 48.2774C24.583 50.448 24.8395 52.4378 25.1677 54.4186C25.2285 54.7855 25.5181 54.7794 25.8137 54.6574C26.6434 54.3148 27.4751 53.9771 28.4106 53.5931ZM28.0703 27.1976C29.1249 26.6156 30.1794 26.0336 31.3875 25.3668C29.3222 24.2885 27.3171 23.5981 25.3767 22.7618C24.9393 23.7434 24.4023 28.5535 24.6383 29.2374C25.7579 28.5712 26.8667 27.9115 28.0703 27.1976ZM60.815 46.6367C61.4496 47.4757 62.4407 47.7065 63.2099 47.1945C63.9072 46.7304 64.1563 45.7315 63.7513 45.0238C63.3228 44.2751 62.3844 43.9323 61.6492 44.256C60.7357 44.6581 60.3971 45.528 60.815 46.6367ZM14.0315 57.7442C13.8577 57.8391 13.6683 57.9136 13.5126 58.0322C12.7852 58.5863 12.6736 59.7539 13.2731 60.4264C13.9551 61.1913 15.0192 61.2332 15.7077 60.5097C16.2201 59.9713 16.3511 59.3494 16.0495 58.6564C15.7299 57.9224 15.2015 57.6629 14.0315 57.7442ZM25.2532 12.1013C25.8562 12.8629 26.7334 13.0916 27.4835 12.683C28.1686 12.3097 28.4964 11.517 28.2748 10.7691C28.0506 10.0124 27.2873 9.52505 26.4782 9.62195C25.361 9.75576 24.8593 10.6914 25.2532 12.1013Z" fill="#386ACA" stroke="white" stroke-width="1.4"></path>
  <path d="M34.4855 44.4864C31.1044 44.3552 28.7859 41.8166 28.8917 38.4124C28.982 35.5044 31.6539 33.0542 34.6887 33.1705C37.661 33.2843 40.1714 35.7203 40.1889 38.6867C40.2075 41.8305 37.6983 44.4129 34.4855 44.4864ZM35.9835 35.8263C35.7744 35.7458 35.5703 35.6478 35.3556 35.5877C34.0829 35.2312 32.6064 35.747 31.8264 36.8116C31.006 37.9314 30.9717 39.5608 31.745 40.6784C32.5565 41.8513 33.9342 42.3911 35.264 42.057C36.6095 41.719 37.6737 40.5914 37.8336 39.1681C37.9975 37.7089 37.3323 36.6216 35.9835 35.8263Z" fill="#386ACA" stroke="white" stroke-width="1.4"></path>
</svg>
