<?xml version="1.0" encoding="UTF-8"?>
<svg xmlns="http://www.w3.org/2000/svg" width="50" height="108" viewBox="0 0 50 108" fill="none">
  <path d="M11.21 19.0394L11.21 19.0389C11.2076 18.897 11.2332 18.7561 11.2852 18.6242C11.3372 18.4922 11.4146 18.372 11.513 18.2702C11.6113 18.1684 11.7286 18.0872 11.8582 18.031C11.9873 17.9751 12.126 17.9451 12.2665 17.9429H12.2789C12.5614 17.9434 12.8325 18.0551 13.0339 18.2542C13.2352 18.4532 13.3508 18.7237 13.3556 19.0076C13.3969 22.6465 13.6275 27.9439 14.3699 32.4768C14.3938 32.6314 14.3843 32.7894 14.3421 32.94C14.2997 33.0909 14.2254 33.2308 14.1243 33.3503C14.0233 33.4697 13.8978 33.5658 13.7565 33.6321C13.6157 33.6981 13.4624 33.7331 13.3071 33.7346C13.0538 33.7325 12.8091 33.6409 12.6162 33.4758C12.4228 33.3104 12.2937 33.0816 12.2518 32.8298C11.4886 28.1702 11.2633 22.7625 11.21 19.0394Z" fill="#386ACA" stroke="white" stroke-width="0.5"></path>
  <path d="M11.4645 12.7037C11.666 12.9062 11.7793 13.1809 11.7793 13.4674C11.7793 13.7539 11.666 14.0286 11.4645 14.2311L11.6417 14.4075L11.4645 14.2311C11.263 14.4336 10.9899 14.5475 10.7051 14.5481H4.60426C4.31903 14.5481 4.04532 14.4344 3.84339 14.2318C3.64143 14.0292 3.52783 13.7543 3.52783 13.4674C3.52783 13.1805 3.64143 12.9056 3.84339 12.703C4.04532 12.5004 4.31903 12.3867 4.60426 12.3867H10.7051C10.9899 12.3873 11.263 12.5012 11.4645 12.7037L11.6407 12.5283L11.4645 12.7037Z" fill="#386ACA" stroke="white" stroke-width="0.5"></path>
  <path d="M10.0984 0.547925L10.0987 0.548161C10.2325 0.675946 10.3315 0.836137 10.386 1.01343C10.4406 1.19073 10.4488 1.37913 10.41 1.56056L10.4096 1.56223C10.352 1.84078 10.3162 2.23104 10.3257 2.60718C10.3349 2.97128 10.3873 3.37292 10.5415 3.6414L10.5724 3.69634L10.5724 3.69636L10.5751 3.70104C10.9044 4.25689 11.437 5.15637 11.7238 6.19796C12.0094 7.23528 12.0446 8.3884 11.4102 9.47282C11.2619 9.71145 11.0269 9.88252 10.7552 9.94993C10.4825 10.0176 10.1943 9.97554 9.95202 9.83275C9.70972 9.68995 9.53249 9.45759 9.45847 9.18515C9.3847 8.91359 9.41939 8.62393 9.55502 8.37776C9.89704 7.79213 9.77832 7.07441 9.55644 6.45397C9.33469 5.83386 8.98273 5.23728 8.7424 4.82991C8.73775 4.82203 8.73314 4.81422 8.72858 4.80648L8.7286 4.80647L8.72698 4.80381L8.69488 4.7509C8.46391 4.34417 8.31021 3.89792 8.24162 3.43482L8.18248 3.03553L7.85135 3.26636C6.96618 3.88341 6.25531 4.71968 5.78778 5.69379L5.78775 5.69377L5.78605 5.69747L5.75695 5.76072L5.75666 5.76135C5.57136 6.16707 5.50563 6.61745 5.56718 7.05936C5.62817 7.49718 5.81159 7.9087 6.09616 8.24625C6.24807 8.46626 6.31334 8.73525 6.27894 9.0011C6.24409 9.27044 6.10953 9.51659 5.90224 9.69072C5.69497 9.86483 5.43013 9.95423 5.16037 9.94135C4.89346 9.92861 4.6408 9.81666 4.45155 9.62726C3.90232 8.97956 3.54845 8.18803 3.43166 7.34546C3.3145 6.50029 3.44079 5.63917 3.79556 4.86373L3.8383 4.77322C3.83835 4.77312 3.8384 4.77302 3.83845 4.77292C5.51051 1.25541 8.95252 0.320073 9.08367 0.285564L9.08391 0.285501C9.26123 0.238653 9.44754 0.238164 9.62511 0.284077C9.80267 0.329992 9.96563 0.420801 10.0984 0.547925Z" fill="#386ACA" stroke="white" stroke-width="0.5"></path>
  <path d="M19.9423 53.6997L19.9422 53.6996L19.9362 53.7059C19.8359 53.8102 19.7156 53.8932 19.5827 53.9499C19.4497 54.0066 19.3068 54.0358 19.1624 54.0359C19.0181 54.036 18.8751 54.0069 18.7421 53.9503C18.6091 53.8938 18.4888 53.811 18.3883 53.7067C18.2878 53.6024 18.2092 53.4789 18.1573 53.3434C18.1054 53.208 18.0811 53.0634 18.0861 52.9183C18.091 52.7732 18.125 52.6306 18.1861 52.499C18.2471 52.3674 18.3339 52.2496 18.4412 52.1525L18.4413 52.1526L18.4475 52.1466L18.7385 51.8644L18.7386 51.8645L18.745 51.8579C18.8452 51.7533 18.9653 51.67 19.0982 51.6131C19.2311 51.5562 19.374 51.5267 19.5185 51.5264C19.6629 51.5261 19.806 51.5549 19.9391 51.6113C20.0722 51.6677 20.1927 51.7504 20.2933 51.8546C20.394 51.9587 20.4728 52.0822 20.5249 52.2177C20.577 52.3531 20.6014 52.4978 20.5966 52.6429C20.5918 52.7881 20.5579 52.9308 20.4969 53.0624C20.436 53.1941 20.3493 53.3121 20.242 53.4093L20.2419 53.4092L20.2358 53.4151L19.9423 53.6997Z" fill="#386ACA" stroke="white" stroke-width="0.5"></path>
  <mask id="path-5-inside-1_1759_2847" fill="white">
    <path fill-rule="evenodd" clip-rule="evenodd" d="M6.71901 16.5447C6.96675 16.3007 7.30025 16.1643 7.64743 16.165L7.6741 16.1602C8.02549 16.1672 8.35973 16.3138 8.60342 16.5679C8.84712 16.8219 8.98035 17.1626 8.97385 17.5152L8.92535 20.0135C8.92422 20.0754 8.9278 20.3065 8.93305 20.6463C8.94738 21.573 8.9742 23.3075 8.95214 24.6168V30.71C8.92344 33.7608 9.36849 36.7975 10.2713 39.711C11.5468 38.896 13.1957 37.5678 14.0541 35.7603C14.1514 35.5547 14.2995 35.3776 14.4844 35.2459C14.6693 35.1141 14.8848 35.0321 15.1102 35.0077C15.3357 34.9833 15.5637 35.0173 15.7723 35.1065C15.981 35.1956 16.1633 35.337 16.302 35.517C16.7319 36.0307 17.1996 36.5113 17.7012 36.9547V32.0893H17.2526H17.2211C16.8789 32.0793 16.5538 31.9369 16.3138 31.692C16.0738 31.447 15.9375 31.1185 15.9334 30.7751C15.9294 30.4316 16.0578 30.0999 16.2919 29.8493C16.526 29.5987 16.8477 29.4486 17.1895 29.4304L17.854 29.4158C17.9663 28.94 18.1425 28.4817 18.3778 28.0535L16.9713 26.3166C16.7646 26.0416 16.6722 25.6969 16.7136 25.355C16.755 25.0131 16.9269 24.7006 17.1932 24.4833C17.4595 24.2659 17.7994 24.1606 18.1415 24.1894C18.4836 24.2183 18.8013 24.3791 19.0276 24.638L20.2207 26.0976C20.6889 25.8024 21.2003 25.5824 21.7362 25.4457V23.6698C21.7286 23.4904 21.7572 23.3114 21.8204 23.1434C21.8835 22.9754 21.9799 22.822 22.1037 22.6923C22.2275 22.5627 22.3762 22.4595 22.5408 22.3891C22.7054 22.3186 22.8825 22.2823 23.0615 22.2823C23.2404 22.2823 23.4175 22.3186 23.5821 22.3891C23.7467 22.4595 23.8954 22.5627 24.0192 22.6923C24.143 22.822 24.2394 22.9754 24.3026 23.1434C24.3657 23.3114 24.3943 23.4904 24.3867 23.6698V25.4335C24.9227 25.5702 25.434 25.7902 25.9022 26.0855L27.0953 24.6259C27.205 24.4904 27.3402 24.378 27.4932 24.2949C27.6463 24.2119 27.8141 24.1599 27.9871 24.142C28.1602 24.124 28.3351 24.1404 28.5018 24.1903C28.6685 24.2401 28.8238 24.3224 28.9588 24.4325C29.0939 24.5425 29.2059 24.6782 29.2887 24.8317C29.3715 24.9852 29.4233 25.1536 29.4412 25.3272C29.4591 25.5008 29.4427 25.6762 29.393 25.8435C29.3434 26.0107 29.2613 26.1665 29.1516 26.302L27.7452 28.0414C27.9796 28.4654 28.155 28.9197 28.2665 29.3915L30.2428 29.4183C30.5845 29.435 30.9065 29.5834 31.1417 29.8327C31.3768 30.082 31.5069 30.4127 31.5047 30.7559C31.5025 31.0991 31.3682 31.4281 31.1299 31.6743C30.8916 31.9205 30.5677 32.0649 30.2258 32.0772H30.2089L28.4193 32.0553V37.5288C28.4193 39.7183 27.59 41.4065 26.1641 42.3942C26.4891 42.5645 26.8213 42.7226 27.1656 42.8807C28.8147 43.6462 30.2106 44.8696 31.1883 46.4061C32.166 47.9426 32.6844 49.728 32.6823 51.5508V54.2268C32.7616 54.3105 32.8293 54.4046 32.8835 54.5065C33.4175 55.5467 34.0683 56.5221 34.8235 57.4136C34.9379 57.5451 35.0255 57.6979 35.0811 57.8633C35.1367 58.0287 35.1593 58.2034 35.1476 58.3776C35.1359 58.5518 35.0901 58.7219 35.0129 58.8783C34.9356 59.0348 34.8284 59.1744 34.6974 59.2892C34.5663 59.4041 34.414 59.4919 34.2492 59.5477C34.0843 59.6035 33.9101 59.6262 33.7365 59.6144C33.5629 59.6027 33.3932 59.5567 33.2373 59.4792C33.0814 59.4017 32.9422 59.2942 32.8278 59.1627C32.7985 59.1293 32.7706 59.0937 32.7426 59.0578C32.7197 59.0285 32.6966 58.999 32.6726 58.9705V63.3104L40.3135 55.0393C40.5442 54.7885 40.8624 54.6365 41.2019 54.6148C41.5415 54.593 41.8763 54.7032 42.137 54.9225L47.9834 59.8439C48.4274 60.2169 48.7908 60.6769 49.0516 61.1956C49.3124 61.7143 49.465 62.2809 49.5002 62.8608C49.5354 63.4407 49.4524 64.0216 49.2562 64.5682C49.06 65.1149 48.7549 65.6156 48.3593 66.0399L40.8663 74.0678C40.1086 74.8882 39.0591 75.3761 37.9452 75.4257C36.8314 75.4754 35.7429 75.0828 34.9156 74.3329C34.6532 74.0978 34.4947 73.7677 34.4749 73.4152C34.4551 73.0628 34.5757 72.7169 34.8101 72.4537C35.0446 72.1905 35.3736 72.0314 35.7249 72.0116C36.0762 71.9917 36.421 72.1127 36.6834 72.3479C36.9959 72.6321 37.4076 72.7811 37.829 72.7624C38.2504 72.7437 38.6474 72.5589 38.9337 72.2481L46.4267 64.2203C46.5768 64.0597 46.6928 63.8701 46.7674 63.6631C46.842 63.456 46.8737 63.2359 46.8605 63.0161C46.8473 62.7963 46.7896 62.5816 46.6908 62.385C46.592 62.1884 46.4543 62.0141 46.286 61.8727L41.4022 57.7688L32.6726 67.2271V70.9539C32.6724 72.4976 32.0943 73.9849 31.0527 75.1211L32.5877 98.2584H32.6168C33.8152 98.2597 34.9641 98.7379 35.8115 99.588C36.6589 100.438 37.1355 101.591 37.1368 102.793V105.026H41.635C41.8138 105.018 41.9923 105.047 42.1598 105.111C42.3272 105.174 42.4802 105.271 42.6094 105.395C42.7386 105.519 42.8414 105.668 42.9117 105.833C42.9819 105.998 43.0182 106.176 43.0182 106.356C43.0182 106.535 42.9819 106.713 42.9117 106.878C42.8414 107.043 42.7386 107.192 42.6094 107.316C42.4802 107.441 42.3272 107.537 42.1598 107.601C41.9923 107.664 41.8138 107.693 41.635 107.685H2.02418C1.84999 107.685 1.67751 107.651 1.51658 107.584C1.35565 107.517 1.20942 107.419 1.08625 107.295C0.963085 107.172 0.865381 107.025 0.798722 106.864C0.732063 106.702 0.697754 106.529 0.697754 106.354C0.697754 106.18 0.73208 106.007 0.798769 105.846C0.865458 105.684 0.9632 105.538 1.0864 105.414C1.2096 105.291 1.35585 105.193 1.51676 105.127C1.67768 105.06 1.8501 105.026 2.02418 105.026H5.35358V102.793C5.35486 101.591 5.83149 100.438 6.67888 99.588C7.52627 98.7379 8.67521 98.2597 9.8736 98.2584H9.9124L10.0652 95.9814L10.0361 95.9668C9.52574 95.6729 9.10887 95.24 8.83377 94.7182C8.55867 94.1963 8.4366 93.607 8.4817 93.0184C8.5981 91.3909 8.75814 89.1383 8.93274 86.5718C8.73446 86.5625 8.54069 86.5094 8.36531 86.4161C8.21186 86.3336 8.07613 86.2216 7.96589 86.0865C7.85564 85.9513 7.77304 85.7957 7.72281 85.6285C7.67258 85.4613 7.65572 85.2858 7.67318 85.112C7.69063 84.9383 7.74208 84.7697 7.82456 84.6159L17.6357 66.2978C17.8102 66.0027 18.0915 65.7866 18.421 65.6947C18.7505 65.6027 19.1027 65.642 19.404 65.8042C19.7053 65.9665 19.9325 66.2393 20.0381 66.5656C20.1438 66.8919 20.1197 67.2466 19.9709 67.5555L11.7893 82.8328C11.8143 82.9452 11.8233 83.0607 11.816 83.1758C11.5516 87.2043 11.2946 90.8558 11.1249 93.2106C11.1146 93.3042 11.1316 93.3988 11.1738 93.4829C11.2161 93.567 11.2817 93.637 11.3629 93.6844C11.444 93.7318 11.5371 93.7546 11.6309 93.7499C11.7246 93.7453 11.8151 93.7134 11.8911 93.6582L21.7508 87.034C21.7904 87.0077 21.8223 86.9713 21.8432 86.9286C21.864 86.8858 21.8732 86.8382 21.8696 86.7907C21.8692 86.7452 21.8569 86.7006 21.8339 86.6613C21.811 86.622 21.7781 86.5895 21.7387 86.5669L20.582 85.8736C19.9498 85.4971 19.4831 84.8945 19.2757 84.1868C19.0683 83.4792 19.1356 82.719 19.4641 82.0592L24.52 63.1937C24.6194 62.8622 24.8437 62.5827 25.1451 62.4144C25.4466 62.246 25.8015 62.2022 26.1347 62.2921C26.4679 62.3819 26.753 62.5985 26.9296 62.8958C27.1063 63.1932 27.1605 63.5478 27.0807 63.8846L23.1524 78.5415L28.8121 73.5983C29.191 73.2701 29.4953 72.8643 29.7044 72.4081C29.9136 71.9519 30.0228 71.4561 30.0246 70.9539V51.5581C30.0269 50.2446 29.6543 48.9578 28.9509 47.8499C28.2475 46.742 27.2426 45.8593 26.055 45.3061C20.4219 42.7202 17.1168 40.0661 15.4848 38.5141C13.4043 41.3506 10.1913 42.8491 9.62626 43.0924C9.44682 43.2019 8.81877 43.6543 8.98851 44.3841C9.1243 44.9729 10.5211 45.3986 11.2485 45.4594C11.5794 45.488 11.8875 45.6401 12.112 45.8856C12.3364 46.1311 12.461 46.4521 12.461 46.7852V52.2636L18.0819 46.649C18.2033 46.5177 18.3499 46.4124 18.5129 46.3394C18.6758 46.2663 18.8518 46.227 19.0303 46.2238C19.2087 46.2205 19.386 46.2535 19.5515 46.3206C19.7169 46.3878 19.8672 46.4877 19.9932 46.6145C20.1193 46.7413 20.2185 46.8923 20.285 47.0585C20.3515 47.2246 20.3839 47.4026 20.3802 47.5816C20.3766 47.7606 20.3369 47.937 20.2637 48.1003C20.1904 48.2636 20.0851 48.4104 19.9539 48.5319L12.09 56.3967L12.0609 56.4259C11.8817 56.616 11.7456 56.8426 11.6619 57.0904C11.5782 57.3381 11.5488 57.6011 11.5759 57.8612C11.5958 58.0284 11.6382 58.1921 11.702 58.3478L14.881 55.2583C15.1361 55.0271 15.4706 54.9044 15.8141 54.9158C16.1576 54.9272 16.4833 55.072 16.7225 55.3195C16.9617 55.5671 17.0958 55.8981 17.0965 56.2429C17.0973 56.5877 16.9646 56.9193 16.7264 57.1679L12.9751 60.834C12.9557 63.3396 12.7835 67.3901 12.4707 72.8952C12.4507 73.2472 12.2923 73.5768 12.0301 73.8115C11.7679 74.0462 11.4235 74.1669 11.0727 74.1469C10.7219 74.1269 10.3934 73.9678 10.1594 73.7048C9.92541 73.4418 9.80517 73.0964 9.8251 72.7444C10.1185 67.3487 10.2858 63.3713 10.3101 60.9069C9.51351 60.154 9.02201 59.1326 8.92983 58.0386C8.83765 56.9445 9.15127 55.8549 9.81055 54.9785V47.8921C8.58355 47.5758 6.81579 46.8022 6.40113 44.9729C5.97193 43.0851 7.02919 41.7204 7.9264 41.0416C6.8179 37.7119 6.26886 34.2204 6.30171 30.71V24.5553C6.29737 24.4535 6.30471 24.3518 6.32341 24.2522L6.32343 17.4689C6.32916 17.1207 6.47126 16.7887 6.71901 16.5447ZM24.9416 28.7068C24.4361 28.211 23.7575 27.9329 23.0505 27.9319C22.344 27.9336 21.666 28.2119 21.161 28.7077C20.656 29.2034 20.3638 29.8773 20.3468 30.5859C21.1654 30.0986 22.0998 29.8415 23.0518 29.8415C24.0037 29.8415 24.9381 30.0986 25.7567 30.5859C25.7397 29.8769 25.4472 29.2026 24.9416 28.7068ZM20.3395 35.2178V38.8814C20.3373 38.9303 20.3325 38.979 20.325 39.0274C21.0791 39.5577 21.9521 40.1269 22.9487 40.7132C24.8086 40.6646 25.7543 39.6063 25.7543 37.5507V35.2178C25.7652 34.8543 25.7032 34.4923 25.572 34.1532C25.4408 33.8142 25.2431 33.505 24.9906 33.244C24.7382 32.983 24.436 32.7756 24.1021 32.6339C23.7683 32.4922 23.4094 32.4192 23.0469 32.4192C22.6844 32.4192 22.3256 32.4922 21.9917 32.6339C21.6578 32.7756 21.3557 32.983 21.1032 33.244C20.8507 33.505 20.653 33.8142 20.5218 34.1532C20.3907 34.4923 20.3287 34.8543 20.3395 35.2178ZM8.54589 101.468C8.19579 101.819 7.99915 102.296 7.99915 102.793V105.024H34.484V102.791C34.484 102.294 34.2873 101.817 33.9372 101.465C33.5872 101.113 33.1122 100.916 32.6168 100.915H28.3635C28.0219 100.9 27.699 100.754 27.4625 100.506C27.2259 100.258 27.0938 99.9285 27.0938 99.5854C27.0938 99.2424 27.2259 98.9126 27.4625 98.6648C27.699 98.4171 28.0219 98.2707 28.3635 98.256H29.93L28.5454 77.3592L21.8963 83.1612C21.8636 83.1884 21.8382 83.2233 21.8221 83.2628C21.806 83.3022 21.7999 83.345 21.8041 83.3874C21.808 83.4298 21.8219 83.4707 21.8446 83.5067C21.8674 83.5427 21.8984 83.5727 21.9351 83.5942L23.0918 84.2851C23.5167 84.5365 23.8709 84.8922 24.1211 85.3188C24.3714 85.7453 24.5094 86.2286 24.5222 86.7234C24.5351 87.2182 24.4223 87.7081 24.1946 88.1471C23.9668 88.5861 23.6316 88.9598 23.2203 89.2331L13.3679 95.8598C13.1639 95.9942 12.945 96.1044 12.7156 96.1882L12.5628 98.2584H21.1931C21.3719 98.2507 21.5504 98.2795 21.7178 98.3428C21.8853 98.4062 22.0382 98.5028 22.1674 98.6271C22.2966 98.7513 22.3995 98.9004 22.4697 99.0655C22.54 99.2307 22.5762 99.4083 22.5762 99.5879C22.5762 99.7674 22.54 99.9451 22.4697 100.11C22.3995 100.275 22.2966 100.425 22.1674 100.549C22.0382 100.673 21.8853 100.77 21.7178 100.833C21.5504 100.896 21.3719 100.925 21.1931 100.917H9.86633C9.3709 100.918 8.89598 101.116 8.54589 101.468Z"></path>
  </mask>
  <path fill-rule="evenodd" clip-rule="evenodd" d="M6.71901 16.5447C6.96675 16.3007 7.30025 16.1643 7.64743 16.165L7.6741 16.1602C8.02549 16.1672 8.35973 16.3138 8.60342 16.5679C8.84712 16.8219 8.98035 17.1626 8.97385 17.5152L8.92535 20.0135C8.92422 20.0754 8.9278 20.3065 8.93305 20.6463C8.94738 21.573 8.9742 23.3075 8.95214 24.6168V30.71C8.92344 33.7608 9.36849 36.7975 10.2713 39.711C11.5468 38.896 13.1957 37.5678 14.0541 35.7603C14.1514 35.5547 14.2995 35.3776 14.4844 35.2459C14.6693 35.1141 14.8848 35.0321 15.1102 35.0077C15.3357 34.9833 15.5637 35.0173 15.7723 35.1065C15.981 35.1956 16.1633 35.337 16.302 35.517C16.7319 36.0307 17.1996 36.5113 17.7012 36.9547V32.0893H17.2526H17.2211C16.8789 32.0793 16.5538 31.9369 16.3138 31.692C16.0738 31.447 15.9375 31.1185 15.9334 30.7751C15.9294 30.4316 16.0578 30.0999 16.2919 29.8493C16.526 29.5987 16.8477 29.4486 17.1895 29.4304L17.854 29.4158C17.9663 28.94 18.1425 28.4817 18.3778 28.0535L16.9713 26.3166C16.7646 26.0416 16.6722 25.6969 16.7136 25.355C16.755 25.0131 16.9269 24.7006 17.1932 24.4833C17.4595 24.2659 17.7994 24.1606 18.1415 24.1894C18.4836 24.2183 18.8013 24.3791 19.0276 24.638L20.2207 26.0976C20.6889 25.8024 21.2003 25.5824 21.7362 25.4457V23.6698C21.7286 23.4904 21.7572 23.3114 21.8204 23.1434C21.8835 22.9754 21.9799 22.822 22.1037 22.6923C22.2275 22.5627 22.3762 22.4595 22.5408 22.3891C22.7054 22.3186 22.8825 22.2823 23.0615 22.2823C23.2404 22.2823 23.4175 22.3186 23.5821 22.3891C23.7467 22.4595 23.8954 22.5627 24.0192 22.6923C24.143 22.822 24.2394 22.9754 24.3026 23.1434C24.3657 23.3114 24.3943 23.4904 24.3867 23.6698V25.4335C24.9227 25.5702 25.434 25.7902 25.9022 26.0855L27.0953 24.6259C27.205 24.4904 27.3402 24.378 27.4932 24.2949C27.6463 24.2119 27.8141 24.1599 27.9871 24.142C28.1602 24.124 28.3351 24.1404 28.5018 24.1903C28.6685 24.2401 28.8238 24.3224 28.9588 24.4325C29.0939 24.5425 29.2059 24.6782 29.2887 24.8317C29.3715 24.9852 29.4233 25.1536 29.4412 25.3272C29.4591 25.5008 29.4427 25.6762 29.393 25.8435C29.3434 26.0107 29.2613 26.1665 29.1516 26.302L27.7452 28.0414C27.9796 28.4654 28.155 28.9197 28.2665 29.3915L30.2428 29.4183C30.5845 29.435 30.9065 29.5834 31.1417 29.8327C31.3768 30.082 31.5069 30.4127 31.5047 30.7559C31.5025 31.0991 31.3682 31.4281 31.1299 31.6743C30.8916 31.9205 30.5677 32.0649 30.2258 32.0772H30.2089L28.4193 32.0553V37.5288C28.4193 39.7183 27.59 41.4065 26.1641 42.3942C26.4891 42.5645 26.8213 42.7226 27.1656 42.8807C28.8147 43.6462 30.2106 44.8696 31.1883 46.4061C32.166 47.9426 32.6844 49.728 32.6823 51.5508V54.2268C32.7616 54.3105 32.8293 54.4046 32.8835 54.5065C33.4175 55.5467 34.0683 56.5221 34.8235 57.4136C34.9379 57.5451 35.0255 57.6979 35.0811 57.8633C35.1367 58.0287 35.1593 58.2034 35.1476 58.3776C35.1359 58.5518 35.0901 58.7219 35.0129 58.8783C34.9356 59.0348 34.8284 59.1744 34.6974 59.2892C34.5663 59.4041 34.414 59.4919 34.2492 59.5477C34.0843 59.6035 33.9101 59.6262 33.7365 59.6144C33.5629 59.6027 33.3932 59.5567 33.2373 59.4792C33.0814 59.4017 32.9422 59.2942 32.8278 59.1627C32.7985 59.1293 32.7706 59.0937 32.7426 59.0578C32.7197 59.0285 32.6966 58.999 32.6726 58.9705V63.3104L40.3135 55.0393C40.5442 54.7885 40.8624 54.6365 41.2019 54.6148C41.5415 54.593 41.8763 54.7032 42.137 54.9225L47.9834 59.8439C48.4274 60.2169 48.7908 60.6769 49.0516 61.1956C49.3124 61.7143 49.465 62.2809 49.5002 62.8608C49.5354 63.4407 49.4524 64.0216 49.2562 64.5682C49.06 65.1149 48.7549 65.6156 48.3593 66.0399L40.8663 74.0678C40.1086 74.8882 39.0591 75.3761 37.9452 75.4257C36.8314 75.4754 35.7429 75.0828 34.9156 74.3329C34.6532 74.0978 34.4947 73.7677 34.4749 73.4152C34.4551 73.0628 34.5757 72.7169 34.8101 72.4537C35.0446 72.1905 35.3736 72.0314 35.7249 72.0116C36.0762 71.9917 36.421 72.1127 36.6834 72.3479C36.9959 72.6321 37.4076 72.7811 37.829 72.7624C38.2504 72.7437 38.6474 72.5589 38.9337 72.2481L46.4267 64.2203C46.5768 64.0597 46.6928 63.8701 46.7674 63.6631C46.842 63.456 46.8737 63.2359 46.8605 63.0161C46.8473 62.7963 46.7896 62.5816 46.6908 62.385C46.592 62.1884 46.4543 62.0141 46.286 61.8727L41.4022 57.7688L32.6726 67.2271V70.9539C32.6724 72.4976 32.0943 73.9849 31.0527 75.1211L32.5877 98.2584H32.6168C33.8152 98.2597 34.9641 98.7379 35.8115 99.588C36.6589 100.438 37.1355 101.591 37.1368 102.793V105.026H41.635C41.8138 105.018 41.9923 105.047 42.1598 105.111C42.3272 105.174 42.4802 105.271 42.6094 105.395C42.7386 105.519 42.8414 105.668 42.9117 105.833C42.9819 105.998 43.0182 106.176 43.0182 106.356C43.0182 106.535 42.9819 106.713 42.9117 106.878C42.8414 107.043 42.7386 107.192 42.6094 107.316C42.4802 107.441 42.3272 107.537 42.1598 107.601C41.9923 107.664 41.8138 107.693 41.635 107.685H2.02418C1.84999 107.685 1.67751 107.651 1.51658 107.584C1.35565 107.517 1.20942 107.419 1.08625 107.295C0.963085 107.172 0.865381 107.025 0.798722 106.864C0.732063 106.702 0.697754 106.529 0.697754 106.354C0.697754 106.18 0.73208 106.007 0.798769 105.846C0.865458 105.684 0.9632 105.538 1.0864 105.414C1.2096 105.291 1.35585 105.193 1.51676 105.127C1.67768 105.06 1.8501 105.026 2.02418 105.026H5.35358V102.793C5.35486 101.591 5.83149 100.438 6.67888 99.588C7.52627 98.7379 8.67521 98.2597 9.8736 98.2584H9.9124L10.0652 95.9814L10.0361 95.9668C9.52574 95.6729 9.10887 95.24 8.83377 94.7182C8.55867 94.1963 8.4366 93.607 8.4817 93.0184C8.5981 91.3909 8.75814 89.1383 8.93274 86.5718C8.73446 86.5625 8.54069 86.5094 8.36531 86.4161C8.21186 86.3336 8.07613 86.2216 7.96589 86.0865C7.85564 85.9513 7.77304 85.7957 7.72281 85.6285C7.67258 85.4613 7.65572 85.2858 7.67318 85.112C7.69063 84.9383 7.74208 84.7697 7.82456 84.6159L17.6357 66.2978C17.8102 66.0027 18.0915 65.7866 18.421 65.6947C18.7505 65.6027 19.1027 65.642 19.404 65.8042C19.7053 65.9665 19.9325 66.2393 20.0381 66.5656C20.1438 66.8919 20.1197 67.2466 19.9709 67.5555L11.7893 82.8328C11.8143 82.9452 11.8233 83.0607 11.816 83.1758C11.5516 87.2043 11.2946 90.8558 11.1249 93.2106C11.1146 93.3042 11.1316 93.3988 11.1738 93.4829C11.2161 93.567 11.2817 93.637 11.3629 93.6844C11.444 93.7318 11.5371 93.7546 11.6309 93.7499C11.7246 93.7453 11.8151 93.7134 11.8911 93.6582L21.7508 87.034C21.7904 87.0077 21.8223 86.9713 21.8432 86.9286C21.864 86.8858 21.8732 86.8382 21.8696 86.7907C21.8692 86.7452 21.8569 86.7006 21.8339 86.6613C21.811 86.622 21.7781 86.5895 21.7387 86.5669L20.582 85.8736C19.9498 85.4971 19.4831 84.8945 19.2757 84.1868C19.0683 83.4792 19.1356 82.719 19.4641 82.0592L24.52 63.1937C24.6194 62.8622 24.8437 62.5827 25.1451 62.4144C25.4466 62.246 25.8015 62.2022 26.1347 62.2921C26.4679 62.3819 26.753 62.5985 26.9296 62.8958C27.1063 63.1932 27.1605 63.5478 27.0807 63.8846L23.1524 78.5415L28.8121 73.5983C29.191 73.2701 29.4953 72.8643 29.7044 72.4081C29.9136 71.9519 30.0228 71.4561 30.0246 70.9539V51.5581C30.0269 50.2446 29.6543 48.9578 28.9509 47.8499C28.2475 46.742 27.2426 45.8593 26.055 45.3061C20.4219 42.7202 17.1168 40.0661 15.4848 38.5141C13.4043 41.3506 10.1913 42.8491 9.62626 43.0924C9.44682 43.2019 8.81877 43.6543 8.98851 44.3841C9.1243 44.9729 10.5211 45.3986 11.2485 45.4594C11.5794 45.488 11.8875 45.6401 12.112 45.8856C12.3364 46.1311 12.461 46.4521 12.461 46.7852V52.2636L18.0819 46.649C18.2033 46.5177 18.3499 46.4124 18.5129 46.3394C18.6758 46.2663 18.8518 46.227 19.0303 46.2238C19.2087 46.2205 19.386 46.2535 19.5515 46.3206C19.7169 46.3878 19.8672 46.4877 19.9932 46.6145C20.1193 46.7413 20.2185 46.8923 20.285 47.0585C20.3515 47.2246 20.3839 47.4026 20.3802 47.5816C20.3766 47.7606 20.3369 47.937 20.2637 48.1003C20.1904 48.2636 20.0851 48.4104 19.9539 48.5319L12.09 56.3967L12.0609 56.4259C11.8817 56.616 11.7456 56.8426 11.6619 57.0904C11.5782 57.3381 11.5488 57.6011 11.5759 57.8612C11.5958 58.0284 11.6382 58.1921 11.702 58.3478L14.881 55.2583C15.1361 55.0271 15.4706 54.9044 15.8141 54.9158C16.1576 54.9272 16.4833 55.072 16.7225 55.3195C16.9617 55.5671 17.0958 55.8981 17.0965 56.2429C17.0973 56.5877 16.9646 56.9193 16.7264 57.1679L12.9751 60.834C12.9557 63.3396 12.7835 67.3901 12.4707 72.8952C12.4507 73.2472 12.2923 73.5768 12.0301 73.8115C11.7679 74.0462 11.4235 74.1669 11.0727 74.1469C10.7219 74.1269 10.3934 73.9678 10.1594 73.7048C9.92541 73.4418 9.80517 73.0964 9.8251 72.7444C10.1185 67.3487 10.2858 63.3713 10.3101 60.9069C9.51351 60.154 9.02201 59.1326 8.92983 58.0386C8.83765 56.9445 9.15127 55.8549 9.81055 54.9785V47.8921C8.58355 47.5758 6.81579 46.8022 6.40113 44.9729C5.97193 43.0851 7.02919 41.7204 7.9264 41.0416C6.8179 37.7119 6.26886 34.2204 6.30171 30.71V24.5553C6.29737 24.4535 6.30471 24.3518 6.32341 24.2522L6.32343 17.4689C6.32916 17.1207 6.47126 16.7887 6.71901 16.5447ZM24.9416 28.7068C24.4361 28.211 23.7575 27.9329 23.0505 27.9319C22.344 27.9336 21.666 28.2119 21.161 28.7077C20.656 29.2034 20.3638 29.8773 20.3468 30.5859C21.1654 30.0986 22.0998 29.8415 23.0518 29.8415C24.0037 29.8415 24.9381 30.0986 25.7567 30.5859C25.7397 29.8769 25.4472 29.2026 24.9416 28.7068ZM20.3395 35.2178V38.8814C20.3373 38.9303 20.3325 38.979 20.325 39.0274C21.0791 39.5577 21.9521 40.1269 22.9487 40.7132C24.8086 40.6646 25.7543 39.6063 25.7543 37.5507V35.2178C25.7652 34.8543 25.7032 34.4923 25.572 34.1532C25.4408 33.8142 25.2431 33.505 24.9906 33.244C24.7382 32.983 24.436 32.7756 24.1021 32.6339C23.7683 32.4922 23.4094 32.4192 23.0469 32.4192C22.6844 32.4192 22.3256 32.4922 21.9917 32.6339C21.6578 32.7756 21.3557 32.983 21.1032 33.244C20.8507 33.505 20.653 33.8142 20.5218 34.1532C20.3907 34.4923 20.3287 34.8543 20.3395 35.2178ZM8.54589 101.468C8.19579 101.819 7.99915 102.296 7.99915 102.793V105.024H34.484V102.791C34.484 102.294 34.2873 101.817 33.9372 101.465C33.5872 101.113 33.1122 100.916 32.6168 100.915H28.3635C28.0219 100.9 27.699 100.754 27.4625 100.506C27.2259 100.258 27.0938 99.9285 27.0938 99.5854C27.0938 99.2424 27.2259 98.9126 27.4625 98.6648C27.699 98.4171 28.0219 98.2707 28.3635 98.256H29.93L28.5454 77.3592L21.8963 83.1612C21.8636 83.1884 21.8382 83.2233 21.8221 83.2628C21.806 83.3022 21.7999 83.345 21.8041 83.3874C21.808 83.4298 21.8219 83.4707 21.8446 83.5067C21.8674 83.5427 21.8984 83.5727 21.9351 83.5942L23.0918 84.2851C23.5167 84.5365 23.8709 84.8922 24.1211 85.3188C24.3714 85.7453 24.5094 86.2286 24.5222 86.7234C24.5351 87.2182 24.4223 87.7081 24.1946 88.1471C23.9668 88.5861 23.6316 88.9598 23.2203 89.2331L13.3679 95.8598C13.1639 95.9942 12.945 96.1044 12.7156 96.1882L12.5628 98.2584H21.1931C21.3719 98.2507 21.5504 98.2795 21.7178 98.3428C21.8853 98.4062 22.0382 98.5028 22.1674 98.6271C22.2966 98.7513 22.3995 98.9004 22.4697 99.0655C22.54 99.2307 22.5762 99.4083 22.5762 99.5879C22.5762 99.7674 22.54 99.9451 22.4697 100.11C22.3995 100.275 22.2966 100.425 22.1674 100.549C22.0382 100.673 21.8853 100.77 21.7178 100.833C21.5504 100.896 21.3719 100.925 21.1931 100.917H9.86633C9.3709 100.918 8.89598 101.116 8.54589 101.468Z" fill="#386ACA"></path>
  <path d="M7.64743 16.165L7.64644 16.665L7.69216 16.6651L7.73713 16.6569L7.64743 16.165ZM6.71901 16.5447L7.06985 16.901L7.06985 16.901L6.71901 16.5447ZM7.6741 16.1602L7.6841 15.6603L7.63385 15.6593L7.5844 15.6683L7.6741 16.1602ZM8.60342 16.5679L8.24259 16.914V16.914L8.60342 16.5679ZM8.97385 17.5152L9.47376 17.5249L9.47377 17.5244L8.97385 17.5152ZM8.92535 20.0135L8.42545 20.0038L8.42544 20.0044L8.92535 20.0135ZM8.93305 20.6463L8.43311 20.654L8.93305 20.6463ZM8.95214 24.6168L8.45214 24.6084V24.6168H8.95214ZM8.95214 30.71L9.45214 30.7147V30.71H8.95214ZM10.2713 39.711L9.79369 39.8589L9.98782 40.4854L10.5405 40.1323L10.2713 39.711ZM14.0541 35.7603L14.5058 35.9748L14.5061 35.9741L14.0541 35.7603ZM14.4844 35.2459L14.7745 35.6531L14.7746 35.653L14.4844 35.2459ZM15.1102 35.0077L15.164 35.5048H15.164L15.1102 35.0077ZM16.302 35.517L15.9059 35.8221L15.9121 35.8301L15.9186 35.8379L16.302 35.517ZM17.7012 36.9547L17.37 37.3293L18.2012 38.0641V36.9547H17.7012ZM17.7012 32.0893H18.2012V31.5893H17.7012V32.0893ZM17.2211 32.0893L17.2064 32.5891L17.2138 32.5893H17.2211V32.0893ZM16.3138 31.692L16.6709 31.3421V31.3421L16.3138 31.692ZM15.9334 30.7751L16.4334 30.7691L15.9334 30.7751ZM17.1895 29.4304L17.1786 28.9305L17.1708 28.9307L17.163 28.9311L17.1895 29.4304ZM17.854 29.4158L17.865 29.9157L18.2517 29.9072L18.3406 29.5307L17.854 29.4158ZM18.3778 28.0535L18.816 28.2943L18.9777 27.9999L18.7663 27.7389L18.3778 28.0535ZM16.9713 26.3166L16.5716 26.617L16.577 26.6242L16.5827 26.6312L16.9713 26.3166ZM16.7136 25.355L17.21 25.4151L17.21 25.4151L16.7136 25.355ZM18.1415 24.1894L18.0995 24.6877L18.1415 24.1894ZM19.0276 24.638L19.4148 24.3216L19.4095 24.3152L19.4041 24.3089L19.0276 24.638ZM20.2207 26.0976L19.8335 26.4141L20.1134 26.7564L20.4874 26.5206L20.2207 26.0976ZM21.7362 25.4457L21.8598 25.9302L22.2362 25.8342V25.4457H21.7362ZM21.7362 23.6698H22.2362V23.6592L22.2358 23.6485L21.7362 23.6698ZM21.8204 23.1434L21.3523 22.9675L21.8204 23.1434ZM22.1037 22.6923L22.4653 23.0377V23.0377L22.1037 22.6923ZM24.0192 22.6923L23.6576 23.0377V23.0377L24.0192 22.6923ZM24.3026 23.1434L24.7706 22.9675L24.3026 23.1434ZM24.3867 23.6698L23.8871 23.6485L23.8867 23.6592V23.6698H24.3867ZM24.3867 25.4335H23.8867V25.822L24.2631 25.918L24.3867 25.4335ZM25.9022 26.0855L25.6355 26.5084L26.0095 26.7443L26.2894 26.4019L25.9022 26.0855ZM27.0953 24.6259L27.4824 24.9423L27.4838 24.9406L27.0953 24.6259ZM28.9588 24.4325L28.6429 24.82L28.6429 24.82L28.9588 24.4325ZM29.4412 25.3272L29.9385 25.2759L29.4412 25.3272ZM29.1516 26.302L28.7631 25.9873L28.7628 25.9876L29.1516 26.302ZM27.7452 28.0414L27.3564 27.727L27.1447 27.9887L27.3076 28.2833L27.7452 28.0414ZM28.2665 29.3915L27.7799 29.5065L27.8696 29.8862L28.2598 29.8915L28.2665 29.3915ZM30.2428 29.4183L30.2672 28.9189L30.2584 28.9184L30.2496 28.9183L30.2428 29.4183ZM31.1417 29.8327L30.778 30.1758L30.778 30.1758L31.1417 29.8327ZM31.5047 30.7559L31.0047 30.7527L31.5047 30.7559ZM31.1299 31.6743L30.7706 31.3266L31.1299 31.6743ZM30.2258 32.0772V32.5772H30.2348L30.2438 32.5769L30.2258 32.0772ZM30.2089 32.0772L30.2028 32.5772H30.2089V32.0772ZM28.4193 32.0553L28.4254 31.5553L27.9193 31.5491V32.0553H28.4193ZM26.1641 42.3942L25.8794 41.9832L25.2003 42.4536L25.932 42.8371L26.1641 42.3942ZM27.1656 42.8807L27.3761 42.4272L27.3743 42.4264L27.1656 42.8807ZM31.1883 46.4061L31.6101 46.1377H31.6101L31.1883 46.4061ZM32.6823 51.5508L32.1823 51.5503V51.5508H32.6823ZM32.6823 54.2268H32.1823V54.4261L32.3194 54.5707L32.6823 54.2268ZM32.8835 54.5065L33.3284 54.2782L33.325 54.2717L32.8835 54.5065ZM34.8235 57.4136L34.4419 57.7368L34.4464 57.742L34.8235 57.4136ZM35.0811 57.8633L35.555 57.7039L35.555 57.7039L35.0811 57.8633ZM35.1476 58.3776L34.6488 58.3441L35.1476 58.3776ZM35.0129 58.8783L34.5646 58.6569L34.5646 58.6569L35.0129 58.8783ZM34.6974 59.2892L34.3678 58.9132L34.3678 58.9132L34.6974 59.2892ZM34.2492 59.5477L34.0889 59.0741L34.0889 59.0741L34.2492 59.5477ZM33.7365 59.6144L33.7702 59.1156H33.7702L33.7365 59.6144ZM33.2373 59.4792L33.4599 59.0315L33.4599 59.0315L33.2373 59.4792ZM32.8278 59.1627L33.2048 58.8344L33.2036 58.833L32.8278 59.1627ZM32.7426 59.0578L33.1365 58.7499L33.1365 58.7499L32.7426 59.0578ZM32.6726 58.9705L33.0548 58.6482L32.1726 57.6022V58.9705H32.6726ZM32.6726 63.3104H32.1726V64.5885L33.0398 63.6497L32.6726 63.3104ZM40.3135 55.0393L40.6807 55.3786L40.6814 55.3779L40.3135 55.0393ZM41.2019 54.6148L41.17 54.1158H41.17L41.2019 54.6148ZM42.137 54.9225L42.459 54.54L42.4589 54.5399L42.137 54.9225ZM47.9834 59.8439L47.6614 60.2264L47.6618 60.2266L47.9834 59.8439ZM49.0516 61.1956L49.4983 60.971V60.971L49.0516 61.1956ZM49.5002 62.8608L49.9993 62.8305L49.5002 62.8608ZM49.2562 64.5682L48.7856 64.3994V64.3994L49.2562 64.5682ZM48.3593 66.0399L48.7248 66.3811L48.725 66.3809L48.3593 66.0399ZM40.8663 74.0678L40.5008 73.7266L40.499 73.7285L40.8663 74.0678ZM34.9156 74.3329L35.2514 73.9625L35.2493 73.9606L34.9156 74.3329ZM35.7249 72.0116L35.6967 71.5124H35.6967L35.7249 72.0116ZM36.6834 72.3479L37.0198 71.978L37.0171 71.9755L36.6834 72.3479ZM38.9337 72.2481L38.5682 71.907L38.5659 71.9094L38.9337 72.2481ZM46.4267 64.2203L46.0615 63.8787L46.0611 63.8791L46.4267 64.2203ZM46.7674 63.6631L46.297 63.4936V63.4936L46.7674 63.6631ZM46.8605 63.0161L47.3596 62.9862L46.8605 63.0161ZM46.286 61.8727L45.9643 62.2555L45.9644 62.2556L46.286 61.8727ZM41.4022 57.7688L41.7239 57.386L41.3585 57.0789L41.0348 57.4297L41.4022 57.7688ZM32.6726 67.2271L32.3052 66.888L32.1726 67.0316V67.2271H32.6726ZM32.6726 70.9539L33.1726 70.954V70.9539H32.6726ZM31.0527 75.1211L30.6842 74.7833L30.5397 74.9409L30.5538 75.1542L31.0527 75.1211ZM32.5877 98.2584L32.0888 98.2915L32.1198 98.7584H32.5877V98.2584ZM32.6168 98.2584L32.6173 97.7584H32.6168V98.2584ZM35.8115 99.588L36.1656 99.235L35.8115 99.588ZM37.1368 102.793H37.6368V102.792L37.1368 102.793ZM37.1368 105.026H36.6368V105.526H37.1368V105.026ZM41.635 105.026V105.526H41.6458L41.6565 105.526L41.635 105.026ZM42.1598 105.111L42.3367 104.643H42.3367L42.1598 105.111ZM42.6094 105.395L42.9559 105.034L42.9559 105.034L42.6094 105.395ZM42.9117 105.833L43.3718 105.638L43.3718 105.638L42.9117 105.833ZM42.9117 106.878L42.4516 106.682L42.4516 106.682L42.9117 106.878ZM42.6094 107.316L42.2629 106.956L42.2629 106.956L42.6094 107.316ZM42.1598 107.601L41.9829 107.133H41.9828L42.1598 107.601ZM41.635 107.685L41.6565 107.186L41.6458 107.185H41.635V107.685ZM1.08625 107.295L1.44037 106.942H1.44037L1.08625 107.295ZM0.798769 105.846L1.26084 106.037L0.798769 105.846ZM1.0864 105.414L0.73261 105.061L0.732599 105.061L1.0864 105.414ZM1.51676 105.127L1.32554 104.665L1.32552 104.665L1.51676 105.127ZM2.02418 105.026L2.02326 105.526H2.02418V105.026ZM5.35358 105.026V105.526H5.85358V105.026H5.35358ZM5.35358 102.793L4.85358 102.792V102.793H5.35358ZM6.67888 99.588L6.32476 99.235H6.32476L6.67888 99.588ZM9.8736 98.2584V97.7584H9.87306L9.8736 98.2584ZM9.9124 98.2584V98.7584H10.38L10.4113 98.2919L9.9124 98.2584ZM10.0652 95.9814L10.564 96.0149L10.5863 95.6834L10.2893 95.5345L10.0652 95.9814ZM10.0361 95.9668L9.78655 96.4001L9.79903 96.4073L9.81191 96.4138L10.0361 95.9668ZM8.83377 94.7182L9.27607 94.485L9.27607 94.485L8.83377 94.7182ZM8.4817 93.0184L8.98025 93.0566L8.98043 93.0541L8.4817 93.0184ZM8.93274 86.5718L9.43158 86.6057L9.46625 86.0962L8.95611 86.0723L8.93274 86.5718ZM8.36531 86.4161L8.12863 86.8565L8.13059 86.8576L8.36531 86.4161ZM7.96589 86.0865L7.57845 86.4025L7.57846 86.4026L7.96589 86.0865ZM7.72281 85.6285L7.24395 85.7724L7.24395 85.7724L7.72281 85.6285ZM7.82456 84.6159L8.26518 84.8522L8.26532 84.852L7.82456 84.6159ZM17.6357 66.2978L17.2053 66.0433L17.2 66.0524L17.195 66.0617L17.6357 66.2978ZM18.421 65.6947L18.2866 65.2131L18.2866 65.2131L18.421 65.6947ZM20.0381 66.5656L20.5138 66.4116V66.4116L20.0381 66.5656ZM19.9709 67.5555L20.4117 67.7915L20.4167 67.7821L20.4214 67.7724L19.9709 67.5555ZM11.7893 82.8328L11.3485 82.5967L11.2609 82.7603L11.3012 82.9414L11.7893 82.8328ZM11.816 83.1758L12.3149 83.2085L12.3149 83.2077L11.816 83.1758ZM11.1249 93.2106L11.6219 93.2653L11.6229 93.2559L11.6236 93.2465L11.1249 93.2106ZM11.1738 93.4829L11.6206 93.2585L11.6206 93.2585L11.1738 93.4829ZM11.8911 93.6582L11.6123 93.2432L11.6048 93.2482L11.5975 93.2535L11.8911 93.6582ZM21.7508 87.034L21.4744 86.6174L21.472 86.619L21.7508 87.034ZM21.8432 86.9286L21.3939 86.7091L21.3939 86.7092L21.8432 86.9286ZM21.8696 86.7907L21.3696 86.7952L21.3698 86.8117L21.371 86.8281L21.8696 86.7907ZM21.8339 86.6613L22.2655 86.4088L22.2655 86.4088L21.8339 86.6613ZM21.7387 86.5669L21.4816 86.9959L21.4904 87.0009L21.7387 86.5669ZM20.582 85.8736L20.8391 85.4447L20.8378 85.444L20.582 85.8736ZM19.4641 82.0592L19.9117 82.282L19.9341 82.2371L19.9471 82.1886L19.4641 82.0592ZM24.52 63.1937L24.0411 63.05L24.039 63.0571L24.0371 63.0642L24.52 63.1937ZM27.0807 63.8846L27.5637 64.014L27.5656 64.0069L27.5673 63.9997L27.0807 63.8846ZM23.1524 78.5415L22.6694 78.4121L22.2442 79.9985L23.4813 78.9181L23.1524 78.5415ZM28.8121 73.5983L28.4848 73.2203L28.4832 73.2217L28.8121 73.5983ZM29.7044 72.4081L29.2499 72.1997V72.1997L29.7044 72.4081ZM30.0246 70.9539L30.5246 70.9558V70.9539H30.0246ZM30.0246 51.5581L29.5246 51.5573V51.5581H30.0246ZM26.055 45.3061L26.2661 44.8529L26.2636 44.8517L26.055 45.3061ZM15.4848 38.5141L15.8294 38.1518L15.4177 37.7602L15.0817 38.2183L15.4848 38.5141ZM9.62626 43.0924L9.42853 42.6331L9.39605 42.6471L9.36586 42.6655L9.62626 43.0924ZM8.98851 44.3841L9.47572 44.2718L9.47551 44.2709L8.98851 44.3841ZM11.2485 45.4594L11.2916 44.9613L11.2902 44.9611L11.2485 45.4594ZM12.112 45.8856L12.4809 45.5481L12.4809 45.5481L12.112 45.8856ZM12.461 46.7852L11.961 46.7852V46.7852H12.461ZM12.461 52.2636H11.961V53.4698L12.8143 52.6174L12.461 52.2636ZM18.0819 46.649L18.4353 47.0027L18.4422 46.9958L18.4489 46.9885L18.0819 46.649ZM18.5129 46.3394L18.3083 45.8831L18.3083 45.8831L18.5129 46.3394ZM20.285 47.0585L20.7492 46.8727V46.8727L20.285 47.0585ZM20.3802 47.5816L19.8804 47.5713L20.3802 47.5816ZM19.9539 48.5319L19.6142 48.1651L19.6071 48.1716L19.6004 48.1783L19.9539 48.5319ZM12.09 56.3967L11.7364 56.0432L11.7358 56.0438L12.09 56.3967ZM12.0609 56.4259L11.7066 56.0728L11.6971 56.0829L12.0609 56.4259ZM11.6619 57.0904L11.1882 56.9303L11.1882 56.9303L11.6619 57.0904ZM11.5759 57.8612L11.0785 57.9129L11.0794 57.9203L11.5759 57.8612ZM11.702 58.3478L11.2393 58.5374L11.5199 59.222L12.0504 58.7063L11.702 58.3478ZM14.881 55.2583L14.5453 54.8877L14.5388 54.8936L14.5326 54.8997L14.881 55.2583ZM15.8141 54.9158L15.8307 54.4161H15.8307L15.8141 54.9158ZM16.7225 55.3195L17.082 54.9721L17.082 54.9721L16.7225 55.3195ZM17.0965 56.2429L17.5965 56.2419L17.0965 56.2429ZM16.7264 57.1679L17.0759 57.5255L17.0817 57.5198L17.0874 57.5138L16.7264 57.1679ZM12.9751 60.834L12.6256 60.4764L12.4767 60.6219L12.4751 60.8301L12.9751 60.834ZM12.4707 72.8952L11.9715 72.8669L11.9715 72.867L12.4707 72.8952ZM12.0301 73.8115L11.6966 73.439H11.6966L12.0301 73.8115ZM9.8251 72.7444L10.3243 72.7727L10.3244 72.7716L9.8251 72.7444ZM10.3101 60.9069L10.8101 60.9119L10.8122 60.6936L10.6535 60.5436L10.3101 60.9069ZM9.81055 54.9785L10.2101 55.2791L10.3106 55.1456V54.9785H9.81055ZM9.81055 47.8921H10.3106V47.5046L9.93535 47.4079L9.81055 47.8921ZM6.40113 44.9729L6.88877 44.8623L6.88869 44.862L6.40113 44.9729ZM7.9264 41.0416L8.22805 41.4404L8.51409 41.224L8.4008 40.8837L7.9264 41.0416ZM6.30171 30.71L6.80171 30.7147V30.71H6.30171ZM6.30171 24.5553H6.80171V24.5447L6.80126 24.534L6.30171 24.5553ZM6.32341 24.2522L6.81483 24.3444L6.82341 24.2987V24.2522L6.32341 24.2522ZM6.32343 17.4689L5.82343 17.4607V17.4689L6.32343 17.4689ZM23.0505 27.9319L23.0513 27.4319L23.0493 27.4319L23.0505 27.9319ZM21.161 28.7077L21.5113 29.0645L21.161 28.7077ZM20.3468 30.5859L19.8469 30.5739L19.8251 31.4783L20.6025 31.0156L20.3468 30.5859ZM25.7567 30.5859L25.501 31.0156L26.2784 31.4783L26.2566 30.5739L25.7567 30.5859ZM20.3395 38.8814L20.839 38.9038L20.8395 38.8926V38.8814H20.3395ZM20.3395 35.2178H20.8395V35.2103L20.8393 35.2029L20.3395 35.2178ZM20.325 39.0274L19.8309 38.9507L19.7832 39.2577L20.0373 39.4364L20.325 39.0274ZM22.9487 40.7132L22.6952 41.1442L22.8186 41.2168L22.9618 41.213L22.9487 40.7132ZM25.7543 35.2178L25.2545 35.2029L25.2543 35.2103V35.2178H25.7543ZM25.572 34.1532L25.1057 34.3336L25.572 34.1532ZM20.5218 34.1532L20.9882 34.3336L20.5218 34.1532ZM7.99915 102.793H8.49915H7.99915ZM8.54589 101.468L8.19154 101.115L8.19154 101.115L8.54589 101.468ZM7.99915 105.024H7.49915V105.524H7.99915V105.024ZM34.484 105.024V105.524H34.984V105.024H34.484ZM33.9372 101.465L34.2916 101.112L34.2916 101.112L33.9372 101.465ZM32.6168 100.915L32.6175 100.415H32.6168V100.915ZM28.3635 100.915L28.3421 101.414L28.3528 101.415H28.3635V100.915ZM27.4625 100.506L27.824 100.161H27.824L27.4625 100.506ZM27.4625 98.6648L27.1009 98.3195H27.1009L27.4625 98.6648ZM28.3635 98.256V97.756H28.3528L28.3421 97.7564L28.3635 98.256ZM29.93 98.256V98.756H30.4642L30.4289 98.2229L29.93 98.256ZM28.5454 77.3592L29.0443 77.3262L28.9775 76.3185L28.2166 76.9825L28.5454 77.3592ZM21.8963 83.1612L22.2168 83.5451L22.225 83.5379L21.8963 83.1612ZM21.8221 83.2628L22.2852 83.4514L22.2852 83.4513L21.8221 83.2628ZM21.8041 83.3874L22.3021 83.3424L22.3016 83.3373L21.8041 83.3874ZM21.8446 83.5067L21.4222 83.7742L21.4222 83.7742L21.8446 83.5067ZM21.9351 83.5942L22.1915 83.1649L22.1882 83.163L21.9351 83.5942ZM23.0918 84.2851L22.8354 84.7143L22.8371 84.7154L23.0918 84.2851ZM24.5222 86.7234L25.0221 86.7104L24.5222 86.7234ZM24.1946 88.1471L23.7508 87.9168H23.7508L24.1946 88.1471ZM23.2203 89.2331L22.9436 88.8167L22.9412 88.8183L23.2203 89.2331ZM13.3679 95.8598L13.643 96.2773L13.6469 96.2747L13.3679 95.8598ZM12.7156 96.1882L12.5441 95.7185L12.2407 95.8293L12.2169 96.1514L12.7156 96.1882ZM12.5628 98.2584L12.0642 98.2216L12.0246 98.7584H12.5628V98.2584ZM21.1931 98.2584V98.7584H21.2038L21.2145 98.758L21.1931 98.2584ZM21.7178 98.3428L21.8947 97.8752H21.8947L21.7178 98.3428ZM22.1674 98.6271L22.5139 98.2666L22.5139 98.2666L22.1674 98.6271ZM22.4697 99.0655L22.9298 98.8698L22.9298 98.8698L22.4697 99.0655ZM22.4697 100.11L22.0096 99.9145L22.0096 99.9145L22.4697 100.11ZM22.1674 100.549L21.8209 100.188L21.8209 100.188L22.1674 100.549ZM21.7178 100.833L21.5409 100.365H21.5409L21.7178 100.833ZM21.1931 100.917L21.2145 100.418L21.2038 100.417H21.1931V100.917ZM9.86633 100.917V100.417H9.86567L9.86633 100.917ZM7.64842 15.665C7.16938 15.6641 6.70953 15.8523 6.36816 16.1885L7.06985 16.901C7.22398 16.7492 7.43113 16.6646 7.64644 16.665L7.64842 15.665ZM7.5844 15.6683L7.55772 15.6731L7.73713 16.6569L7.76381 16.652L7.5844 15.6683ZM8.96426 16.2218C8.62884 15.8721 8.16846 15.6699 7.6841 15.6603L7.6641 16.6601C7.88251 16.6644 8.09061 16.7556 8.24259 16.914L8.96426 16.2218ZM9.47377 17.5244C9.48269 17.0399 9.29962 16.5714 8.96426 16.2218L8.24259 16.914C8.39462 17.0725 8.478 17.2854 8.47394 17.506L9.47377 17.5244ZM9.42526 20.0232L9.47376 17.5249L8.47395 17.5055L8.42545 20.0038L9.42526 20.0232ZM9.43299 20.6386C9.42761 20.2907 9.42435 20.0734 9.42527 20.0227L8.42544 20.0044C8.42411 20.0774 8.42798 20.3224 8.43311 20.654L9.43299 20.6386ZM9.45207 24.6252C9.47429 23.3062 9.44729 21.5633 9.43299 20.6386L8.43311 20.654C8.44747 21.5827 8.47411 23.3087 8.45221 24.6084L9.45207 24.6252ZM9.45214 30.71V24.6168H8.45214V30.71H9.45214ZM10.7489 39.563C9.86141 36.699 9.42391 33.7138 9.45212 30.7147L8.45216 30.7053C8.42298 33.8079 8.87557 36.8961 9.79369 39.8589L10.7489 39.563ZM13.6025 35.5458C12.8041 37.2269 11.2495 38.4926 10.0021 39.2896L10.5405 40.1323C11.8441 39.2994 13.5874 37.9086 14.5058 35.9748L13.6025 35.5458ZM14.1942 34.8387C13.9396 35.0201 13.7358 35.2638 13.6021 35.5465L14.5061 35.9741C14.5669 35.8456 14.6594 35.7351 14.7745 35.6531L14.1942 34.8387ZM15.0564 34.5106C14.7457 34.5442 14.4488 34.6572 14.1942 34.8387L14.7746 35.653C14.8897 35.571 15.0238 35.52 15.164 35.5048L15.0564 34.5106ZM15.9688 34.6467C15.6813 34.5239 15.3672 34.477 15.0564 34.5106L15.164 35.5048C15.3042 35.4896 15.446 35.5108 15.5758 35.5663L15.9688 34.6467ZM16.6981 35.2119C16.5073 34.9642 16.2563 34.7695 15.9688 34.6467L15.5758 35.5663C15.7057 35.6217 15.8194 35.7098 15.9059 35.8221L16.6981 35.2119ZM18.0324 36.5801C17.5495 36.1533 17.0993 35.6906 16.6855 35.1961L15.9186 35.8379C16.3645 36.3708 16.8497 36.8693 17.37 37.3293L18.0324 36.5801ZM17.2012 32.0893V36.9547H18.2012V32.0893H17.2012ZM17.2526 32.5893H17.7012V31.5893H17.2526V32.5893ZM17.2211 32.5893H17.2526V31.5893H17.2211V32.5893ZM15.9566 32.0419C16.2869 32.3791 16.7347 32.5753 17.2064 32.5891L17.2357 31.5896C17.023 31.5833 16.8206 31.4948 16.6709 31.3421L15.9566 32.0419ZM15.4335 30.781C15.4391 31.253 15.6263 31.7048 15.9566 32.0419L16.6709 31.3421C16.5212 31.1893 16.436 30.984 16.4334 30.7691L15.4335 30.781ZM15.9266 29.508C15.6044 29.8529 15.4279 30.309 15.4335 30.781L16.4334 30.7691C16.4309 30.5542 16.5112 30.347 16.6573 30.1906L15.9266 29.508ZM17.163 28.9311C16.6917 28.9562 16.2488 29.1631 15.9266 29.508L16.6573 30.1906C16.8033 30.0343 17.0036 29.941 17.2161 29.9297L17.163 28.9311ZM17.843 28.9159L17.1786 28.9305L17.2005 29.9303L17.865 29.9157L17.843 28.9159ZM17.9395 27.8127C17.6825 28.2806 17.49 28.7812 17.3673 29.301L18.3406 29.5307C18.4425 29.0988 18.6024 28.6829 18.816 28.2943L17.9395 27.8127ZM16.5827 26.6312L17.9892 28.3682L18.7663 27.7389L17.3599 26.0019L16.5827 26.6312ZM16.2172 25.2949C16.1604 25.7648 16.2873 26.2387 16.5716 26.617L17.371 26.0162C17.2419 25.8445 17.1841 25.629 17.21 25.4151L16.2172 25.2949ZM16.877 24.0959C16.5104 24.3952 16.2741 24.825 16.2172 25.2949L17.21 25.4151C17.2359 25.2012 17.3434 25.0061 17.5094 24.8706L16.877 24.0959ZM18.1836 23.6912C17.712 23.6514 17.2437 23.7966 16.877 24.0959L17.5094 24.8706C17.6753 24.7351 17.8869 24.6697 18.0995 24.6877L18.1836 23.6912ZM19.4041 24.3089C19.0925 23.9526 18.6551 23.731 18.1836 23.6912L18.0995 24.6877C18.3122 24.7056 18.51 24.8056 18.6512 24.9671L19.4041 24.3089ZM20.6078 25.7812L19.4148 24.3216L18.6405 24.9545L19.8335 26.4141L20.6078 25.7812ZM21.6127 24.9612C21.026 25.1108 20.4664 25.3516 19.954 25.6747L20.4874 26.5206C20.9114 26.2532 21.3745 26.054 21.8598 25.9302L21.6127 24.9612ZM21.2362 23.6698V25.4457H22.2362V23.6698H21.2362ZM21.3523 22.9675C21.2655 23.1984 21.2262 23.4446 21.2367 23.6911L22.2358 23.6485C22.231 23.5363 22.2489 23.4243 22.2884 23.3193L21.3523 22.9675ZM21.7421 22.347C21.5717 22.5254 21.4392 22.7365 21.3523 22.9675L22.2884 23.3193C22.3279 23.2143 22.3881 23.1185 22.4653 23.0377L21.7421 22.347ZM22.344 21.9294C22.1172 22.0265 21.9125 22.1686 21.7421 22.347L22.4653 23.0377C22.5425 22.9568 22.6352 22.8926 22.7376 22.8487L22.344 21.9294ZM23.0615 21.7823C22.8148 21.7823 22.5707 21.8323 22.344 21.9294L22.7376 22.8487C22.84 22.8048 22.9502 22.7823 23.0615 22.7823V21.7823ZM23.7789 21.9294C23.5522 21.8323 23.3081 21.7823 23.0615 21.7823V22.7823C23.1727 22.7823 23.2829 22.8048 23.3853 22.8487L23.7789 21.9294ZM24.3808 22.347C24.2104 22.1686 24.0057 22.0265 23.7789 21.9294L23.3853 22.8487C23.4878 22.8926 23.5804 22.9568 23.6576 23.0377L24.3808 22.347ZM24.7706 22.9675C24.6838 22.7365 24.5512 22.5254 24.3808 22.347L23.6576 23.0377C23.7349 23.1185 23.7951 23.2143 23.8345 23.3193L24.7706 22.9675ZM24.8862 23.6911C24.8967 23.4446 24.8574 23.1984 24.7706 22.9675L23.8345 23.3193C23.874 23.4243 23.8919 23.5363 23.8871 23.6485L24.8862 23.6911ZM24.8867 25.4335V23.6698H23.8867V25.4335H24.8867ZM26.1689 25.6625C25.6566 25.3394 25.0969 25.0987 24.5102 24.949L24.2631 25.918C24.7484 26.0418 25.2115 26.241 25.6355 26.5084L26.1689 25.6625ZM26.7082 24.3094L25.5151 25.769L26.2894 26.4019L27.4824 24.9423L26.7082 24.3094ZM27.2548 23.8555C27.044 23.9699 26.8577 24.1247 26.7067 24.3112L27.4838 24.9406C27.5522 24.8561 27.6365 24.7861 27.7317 24.7344L27.2548 23.8555ZM27.9355 23.6446C27.6969 23.6694 27.4656 23.7411 27.2548 23.8555L27.7317 24.7344C27.8269 24.6828 27.9312 24.6505 28.0387 24.6393L27.9355 23.6446ZM28.645 23.7112C28.4152 23.6425 28.1741 23.6199 27.9355 23.6446L28.0387 24.6393C28.1463 24.6281 28.2549 24.6383 28.3586 24.6693L28.645 23.7112ZM29.2747 24.0449C29.0888 23.8933 28.8748 23.7799 28.645 23.7112L28.3586 24.6693C28.4622 24.7003 28.5588 24.7515 28.6429 24.82L29.2747 24.0449ZM29.7288 24.5944C29.615 24.3832 29.4607 24.1965 29.2747 24.0449L28.6429 24.82C28.727 24.8886 28.7969 24.9731 28.8486 25.069L29.7288 24.5944ZM29.9385 25.2759C29.9139 25.0372 29.8427 24.8056 29.7288 24.5944L28.8486 25.069C28.9002 25.1648 28.9326 25.27 28.9438 25.3785L29.9385 25.2759ZM29.8723 25.9858C29.9407 25.7558 29.9632 25.5146 29.9385 25.2759L28.9438 25.3785C28.955 25.487 28.9448 25.5966 28.9137 25.7011L29.8723 25.9858ZM29.5402 26.6167C29.6912 26.4302 29.804 26.2159 29.8723 25.9858L28.9137 25.7011C28.8827 25.8056 28.8315 25.9028 28.7631 25.9873L29.5402 26.6167ZM28.134 28.3557L29.5404 26.6164L28.7628 25.9876L27.3564 27.727L28.134 28.3557ZM28.7531 29.2765C28.6311 28.7604 28.4392 28.2634 28.1827 27.7994L27.3076 28.2833C27.52 28.6674 27.6789 29.079 27.7799 29.5065L28.7531 29.2765ZM30.2496 28.9183L28.2733 28.8915L28.2598 29.8915L30.236 29.9182L30.2496 28.9183ZM31.5054 29.4896C31.1817 29.1465 30.7382 28.9419 30.2672 28.9189L30.2184 29.9177C30.4308 29.928 30.6313 30.0203 30.778 30.1758L31.5054 29.4896ZM32.0047 30.7591C32.0077 30.2874 31.829 29.8326 31.5054 29.4896L30.778 30.1758C30.9247 30.3313 31.0061 30.538 31.0047 30.7527L32.0047 30.7591ZM31.4892 32.0221C31.8171 31.6832 32.0016 31.2307 32.0047 30.7591L31.0047 30.7527C31.0033 30.9674 30.9193 31.173 30.7706 31.3266L31.4892 32.0221ZM30.2438 32.5769C30.7151 32.5599 31.1612 32.3609 31.4892 32.0221L30.7706 31.3266C30.622 31.4801 30.4204 31.5699 30.2079 31.5775L30.2438 32.5769ZM30.2089 32.5772H30.2258V31.5772H30.2089V32.5772ZM28.4132 32.5553L30.2028 32.5771L30.215 31.5772L28.4254 31.5553L28.4132 32.5553ZM28.9193 37.5288V32.0553H27.9193V37.5288H28.9193ZM26.4488 42.8052C28.0348 41.7066 28.9193 39.8489 28.9193 37.5288H27.9193C27.9193 39.5876 27.1451 41.1064 25.8794 41.9832L26.4488 42.8052ZM27.3743 42.4264C27.0335 42.2699 26.7102 42.1159 26.3962 41.9513L25.932 42.8371C26.268 43.0131 26.609 43.1754 26.957 43.3351L27.3743 42.4264ZM31.6101 46.1377C30.5813 44.5207 29.112 43.233 27.3761 42.4272L26.9551 43.3343C28.5173 44.0594 29.84 45.2185 30.7664 46.6746L31.6101 46.1377ZM33.1823 51.5514C33.1845 49.6334 32.639 47.7547 31.6101 46.1377L30.7664 46.6746C31.6929 48.1306 32.1843 49.8226 32.1823 51.5503L33.1823 51.5514ZM33.1823 54.2268V51.5508H32.1823V54.2268H33.1823ZM33.325 54.2717C33.2496 54.1301 33.1555 53.9993 33.0452 53.8829L32.3194 54.5707C32.3677 54.6217 32.409 54.6791 32.4421 54.7414L33.325 54.2717ZM35.205 57.0905C34.4745 56.228 33.8449 55.2845 33.3284 54.2782L32.4387 54.7349C32.99 55.8089 33.6621 56.8161 34.4419 57.7368L35.205 57.0905ZM35.555 57.7039C35.4785 57.4764 35.3581 57.2662 35.2005 57.0853L34.4464 57.742C34.5178 57.824 34.5725 57.9193 34.6072 58.0226L35.555 57.7039ZM35.6465 58.4111C35.6626 58.1717 35.6315 57.9314 35.555 57.7039L34.6072 58.0226C34.6419 58.126 34.6561 58.2352 34.6488 58.3441L35.6465 58.4111ZM35.4612 59.0998C35.5675 58.8846 35.6304 58.6506 35.6465 58.4111L34.6488 58.3441C34.6414 58.453 34.6128 58.5593 34.5646 58.6569L35.4612 59.0998ZM35.0269 59.6652C35.2074 59.5071 35.3549 59.3149 35.4612 59.0998L34.5646 58.6569C34.5163 58.7546 34.4495 58.8416 34.3678 58.9132L35.0269 59.6652ZM34.4094 60.0213C34.6367 59.9444 34.8465 59.8234 35.0269 59.6652L34.3678 58.9132C34.2862 58.9847 34.1914 59.0394 34.0889 59.0741L34.4094 60.0213ZM33.7027 60.1133C33.942 60.1295 34.1822 60.0982 34.4094 60.0213L34.0889 59.0741C33.9864 59.1088 33.8781 59.1229 33.7702 59.1156L33.7027 60.1133ZM33.0148 59.927C33.2296 60.0337 33.4634 60.0971 33.7027 60.1133L33.7702 59.1156C33.6623 59.1083 33.5569 59.0797 33.4599 59.0315L33.0148 59.927ZM32.4507 59.4911C32.6083 59.672 32.7999 59.8202 33.0148 59.927L33.4599 59.0315C33.3629 58.9833 33.2762 58.9163 33.2048 58.8344L32.4507 59.4911ZM32.3487 59.3658C32.3751 59.3996 32.4117 59.4466 32.4519 59.4924L33.2036 58.833C33.1852 58.812 33.1661 58.7877 33.1365 58.7499L32.3487 59.3658ZM32.2904 59.2929C32.3074 59.3131 32.3248 59.3352 32.3487 59.3658L33.1365 58.7499C33.1145 58.7218 33.0858 58.6849 33.0548 58.6482L32.2904 59.2929ZM33.1726 63.3104V58.9705H32.1726V63.3104H33.1726ZM39.9462 54.7L32.3053 62.9712L33.0398 63.6497L40.6807 55.3786L39.9462 54.7ZM41.17 54.1158C40.7017 54.1458 40.2633 54.3554 39.9455 54.7007L40.6814 55.3779C40.8252 55.2217 41.0231 55.1272 41.2339 55.1137L41.17 54.1158ZM42.4589 54.5399C42.0998 54.2378 41.6382 54.0858 41.17 54.1158L41.2339 55.1137C41.4447 55.1002 41.6528 55.1686 41.8151 55.3052L42.4589 54.5399ZM48.3054 59.4613L42.459 54.54L41.815 55.3051L47.6614 60.2264L48.3054 59.4613ZM49.4983 60.971C49.2071 60.3917 48.8011 59.8779 48.3051 59.4611L47.6618 60.2266C48.0536 60.556 48.3746 60.962 48.6049 61.4202L49.4983 60.971ZM49.9993 62.8305C49.96 62.183 49.7896 61.5503 49.4983 60.971L48.6049 61.4202C48.8352 61.8783 48.9701 62.3788 49.0011 62.891L49.9993 62.8305ZM49.7268 64.7371C49.9459 64.1267 50.0386 63.478 49.9993 62.8305L49.0011 62.891C49.0322 63.4033 48.9589 63.9165 48.7856 64.3994L49.7268 64.7371ZM48.725 66.3809C49.1669 65.9069 49.5077 65.3475 49.7268 64.7371L48.7856 64.3994C48.6123 64.8822 48.3428 65.3244 47.9936 65.699L48.725 66.3809ZM41.2319 74.409L48.7248 66.3811L47.9938 65.6988L40.5008 73.7266L41.2319 74.409ZM37.9675 75.9253C39.2132 75.8697 40.3866 75.3241 41.2336 74.407L40.499 73.7285C39.8305 74.4524 38.9049 74.8825 37.923 74.9262L37.9675 75.9253ZM34.5798 74.7034C35.5047 75.5416 36.7218 75.9808 37.9675 75.9253L37.923 74.9262C36.941 74.97 35.9812 74.6239 35.2514 73.9625L34.5798 74.7034ZM33.9757 73.4433C34.0029 73.9276 34.2207 74.3816 34.5819 74.7053L35.2493 73.9606C35.0857 73.814 34.9865 73.6078 34.9741 73.3872L33.9757 73.4433ZM34.4367 72.1212C34.1142 72.4834 33.9485 72.959 33.9757 73.4433L34.9741 73.3872C34.9618 73.1667 35.0372 72.9505 35.1835 72.7862L34.4367 72.1212ZM35.6967 71.5124C35.2125 71.5397 34.7593 71.7589 34.4367 72.1212L35.1835 72.7862C35.3298 72.622 35.5347 72.5231 35.7531 72.5108L35.6967 71.5124ZM37.0171 71.9755C36.6559 71.6518 36.1809 71.485 35.6967 71.5124L35.7531 72.5108C35.9715 72.4984 36.1861 72.5736 36.3497 72.7202L37.0171 71.9755ZM37.8068 72.2629C37.5176 72.2757 37.2347 72.1735 37.0198 71.978L36.3469 72.7178C36.757 73.0907 37.2976 73.2864 37.8511 73.2619L37.8068 72.2629ZM38.5659 71.9094C38.3689 72.1232 38.0961 72.2501 37.8068 72.2629L37.8511 73.2619C38.4047 73.2374 38.9258 72.9946 39.3014 72.5869L38.5659 71.9094ZM46.0611 63.8791L38.5682 71.907L39.2992 72.5893L46.7922 64.5614L46.0611 63.8791ZM46.297 63.4936C46.2454 63.6368 46.1652 63.7678 46.0615 63.8787L46.7918 64.5619C46.9884 64.3517 47.1402 64.1035 47.2378 63.8326L46.297 63.4936ZM46.3614 63.046C46.3705 63.1981 46.3486 63.3504 46.297 63.4936L47.2378 63.8326C47.3354 63.5617 47.3768 63.2737 47.3596 62.9862L46.3614 63.046ZM46.244 62.6095C46.3123 62.7454 46.3523 62.8939 46.3614 63.046L47.3596 62.9862C47.3424 62.6987 47.2669 62.4178 47.1376 62.1605L46.244 62.6095ZM45.9644 62.2556C46.0806 62.3532 46.1758 62.4735 46.244 62.6095L47.1376 62.1605C47.0083 61.9032 46.828 61.675 46.6076 61.4899L45.9644 62.2556ZM41.0806 58.1516L45.9643 62.2555L46.6077 61.4899L41.7239 57.386L41.0806 58.1516ZM33.04 67.5662L41.7697 58.1079L41.0348 57.4297L32.3052 66.888L33.04 67.5662ZM33.1726 70.9539V67.2271H32.1726V70.9539H33.1726ZM31.4213 75.459C32.5475 74.2304 33.1724 72.6225 33.1726 70.954L32.1726 70.9539C32.1724 72.3727 31.6411 73.7394 30.6842 74.7833L31.4213 75.459ZM33.0866 98.2253L31.5516 75.088L30.5538 75.1542L32.0888 98.2915L33.0866 98.2253ZM32.6168 97.7584H32.5877V98.7584H32.6168V97.7584ZM36.1656 99.235C35.2247 98.2911 33.9487 97.7599 32.6173 97.7584L32.6163 98.7584C33.6817 98.7596 34.7035 99.1847 35.4574 99.941L36.1656 99.235ZM37.6368 102.792C37.6354 101.458 37.1065 100.179 36.1656 99.235L35.4574 99.941C36.2113 100.697 36.6357 101.723 36.6368 102.793L37.6368 102.792ZM37.6368 105.026V102.793H36.6368V105.026H37.6368ZM41.635 104.526H37.1368V105.526H41.635V104.526ZM42.3367 104.643C42.106 104.556 41.86 104.516 41.6136 104.527L41.6565 105.526C41.7677 105.521 41.8787 105.539 41.9829 105.578L42.3367 104.643ZM42.9559 105.034C42.778 104.863 42.5674 104.73 42.3367 104.643L41.9828 105.578C42.087 105.618 42.1823 105.678 42.2629 105.755L42.9559 105.034ZM43.3718 105.638C43.2752 105.41 43.1337 105.205 42.9559 105.034L42.2629 105.755C42.3435 105.833 42.4077 105.926 42.4516 106.029L43.3718 105.638ZM43.5182 106.356C43.5182 106.109 43.4684 105.865 43.3718 105.638L42.4516 106.029C42.4955 106.132 42.5182 106.243 42.5182 106.356H43.5182ZM43.3718 107.074C43.4684 106.847 43.5182 106.602 43.5182 106.356H42.5182C42.5182 106.468 42.4955 106.579 42.4516 106.682L43.3718 107.074ZM42.9559 107.677C43.1338 107.506 43.2752 107.301 43.3718 107.074L42.4516 106.682C42.4077 106.785 42.3435 106.879 42.2629 106.956L42.9559 107.677ZM42.3367 108.068C42.5674 107.981 42.778 107.848 42.9559 107.677L42.2629 106.956C42.1823 107.033 42.0871 107.094 41.9829 107.133L42.3367 108.068ZM41.6136 108.185C41.86 108.195 42.106 108.156 42.3367 108.068L41.9828 107.133C41.8787 107.172 41.7677 107.19 41.6565 107.186L41.6136 108.185ZM2.02418 108.185H41.635V107.185H2.02418V108.185ZM1.32472 108.046C1.54643 108.138 1.78411 108.185 2.02418 108.185V107.185C1.91587 107.185 1.80858 107.164 1.70844 107.122L1.32472 108.046ZM0.732134 107.648C0.901646 107.818 1.10299 107.953 1.32472 108.046L1.70844 107.122C1.60831 107.08 1.5172 107.019 1.44037 106.942L0.732134 107.648ZM0.336566 107.054C0.428222 107.276 0.562609 107.478 0.732134 107.648L1.44037 106.942C1.36356 106.865 1.30254 106.774 1.26088 106.673L0.336566 107.054ZM0.197754 106.354C0.197754 106.595 0.24491 106.832 0.336566 107.054L1.26088 106.673C1.21922 106.572 1.19775 106.464 1.19775 106.354H0.197754ZM0.3367 105.655C0.244957 105.876 0.197754 106.114 0.197754 106.354H1.19775C1.19775 106.245 1.2192 106.137 1.26084 106.037L0.3367 105.655ZM0.732599 105.061C0.562955 105.231 0.428447 105.433 0.3367 105.655L1.26084 106.037C1.30247 105.936 1.36344 105.844 1.4402 105.768L0.732599 105.061ZM1.32552 104.665C1.10372 104.756 0.902256 104.891 0.73261 105.061L1.44019 105.768C1.51695 105.691 1.60797 105.63 1.708 105.589L1.32552 104.665ZM2.0251 104.526C1.78508 104.526 1.54735 104.573 1.32554 104.665L1.70798 105.589C1.808 105.547 1.91513 105.526 2.02326 105.526L2.0251 104.526ZM5.35358 104.526H2.02418V105.526H5.35358V104.526ZM4.85358 102.793V105.026H5.85358V102.793H4.85358ZM6.32476 99.235C5.38391 100.179 4.855 101.458 4.85358 102.792L5.85357 102.793C5.85472 101.723 6.27907 100.697 7.033 99.941L6.32476 99.235ZM9.87306 97.7584C8.54174 97.7599 7.26567 98.2911 6.32476 99.235L7.033 99.941C7.78687 99.1847 8.80869 98.7596 9.87414 98.7584L9.87306 97.7584ZM9.9124 97.7584H9.8736V98.7584H9.9124V97.7584ZM9.56629 95.9479L9.41352 98.225L10.4113 98.2919L10.564 96.0149L9.56629 95.9479ZM9.81191 96.4138L9.84101 96.4284L10.2893 95.5345L10.2602 95.5199L9.81191 96.4138ZM8.39147 94.9513C8.71056 95.5566 9.1942 96.059 9.78655 96.4001L10.2856 95.5335C9.85729 95.2869 9.50719 94.9234 9.27607 94.485L8.39147 94.9513ZM7.98317 92.9802C7.93087 93.6627 8.0724 94.3461 8.39147 94.9513L9.27607 94.485C9.04495 94.0466 8.94233 93.5513 8.98024 93.0566L7.98317 92.9802ZM8.43389 86.5378C8.25936 89.1035 8.09936 91.3555 7.98298 92.9827L8.98043 93.0541C9.09684 91.4264 9.25693 89.1731 9.43158 86.6057L8.43389 86.5378ZM8.13059 86.8576C8.37124 86.9855 8.63719 87.0585 8.90937 87.0712L8.95611 86.0723C8.83174 86.0665 8.71015 86.0332 8.60003 85.9746L8.13059 86.8576ZM7.57846 86.4026C7.73022 86.5886 7.91715 86.7429 8.12863 86.8565L8.60199 85.9757C8.50658 85.9244 8.42205 85.8547 8.35331 85.7704L7.57846 86.4026ZM7.24395 85.7724C7.31304 86.0024 7.42668 86.2165 7.57845 86.4025L8.35332 85.7704C8.28459 85.6862 8.23304 85.5891 8.20167 85.4847L7.24395 85.7724ZM7.17568 85.0621C7.15167 85.301 7.17486 85.5424 7.24395 85.7724L8.20167 85.4847C8.1703 85.3802 8.15976 85.2706 8.17067 85.162L7.17568 85.0621ZM7.38393 84.3796C7.27044 84.5912 7.19969 84.8231 7.17568 85.0621L8.17067 85.162C8.18158 85.0535 8.21371 84.9482 8.26518 84.8522L7.38393 84.3796ZM17.195 66.0617L7.38379 84.3798L8.26532 84.852L18.0765 66.5339L17.195 66.0617ZM18.2866 65.2131C17.8326 65.3398 17.4453 65.6374 17.2053 66.0433L18.0661 66.5523C18.1751 66.368 18.3505 66.2334 18.5554 66.1763L18.2866 65.2131ZM19.6411 65.364C19.226 65.1405 18.7407 65.0863 18.2866 65.2131L18.5554 66.1763C18.7603 66.1191 18.9793 66.1434 19.1669 66.2444L19.6411 65.364ZM20.5138 66.4116C20.3686 65.963 20.0561 65.5876 19.6411 65.364L19.1669 66.2444C19.3545 66.3455 19.4964 66.5156 19.5624 66.7196L20.5138 66.4116ZM20.4214 67.7724C20.626 67.3476 20.659 66.8602 20.5138 66.4116L19.5624 66.7196C19.6285 66.9237 19.6134 67.1455 19.5204 67.3386L20.4214 67.7724ZM12.2301 83.0688L20.4117 67.7915L19.5301 67.3194L11.3485 82.5967L12.2301 83.0688ZM12.3149 83.2077C12.3253 83.0455 12.3126 82.8827 12.2773 82.7241L11.3012 82.9414C11.316 83.0078 11.3213 83.076 11.317 83.1439L12.3149 83.2077ZM11.6236 93.2465C11.7934 90.8909 12.0505 87.2384 12.3149 83.2085L11.317 83.143C11.0528 87.1702 10.7958 90.8206 10.6261 93.1746L11.6236 93.2465ZM11.6206 93.2585C11.6217 93.2607 11.6221 93.263 11.6219 93.2653L10.6279 93.1559C10.607 93.3454 10.6414 93.537 10.727 93.7074L11.6206 93.2585ZM11.6151 93.2527C11.6176 93.2542 11.6195 93.2563 11.6206 93.2585L10.727 93.7074C10.8126 93.8778 10.9458 94.0199 11.1107 94.1162L11.6151 93.2527ZM11.6061 93.2505C11.6093 93.2504 11.6125 93.2512 11.6151 93.2527L11.1107 94.1162C11.2755 94.2125 11.4649 94.2588 11.6557 94.2493L11.6061 93.2505ZM11.5975 93.2535C11.5998 93.2518 11.6028 93.2507 11.6061 93.2505L11.6557 94.2493C11.8465 94.2398 12.0303 94.175 12.1848 94.0629L11.5975 93.2535ZM21.472 86.619L11.6123 93.2432L12.17 94.0732L22.0296 87.449L21.472 86.619ZM21.3939 86.7092C21.412 86.6721 21.4397 86.6404 21.4744 86.6174L22.0272 87.4506C22.1411 87.3751 22.2326 87.2705 22.2924 87.148L21.3939 86.7092ZM21.371 86.8281C21.3679 86.7872 21.3758 86.7461 21.3939 86.7091L22.2924 87.148C22.3523 87.0255 22.3784 86.8892 22.3682 86.7533L21.371 86.8281ZM21.4024 86.9138C21.3813 86.8777 21.37 86.8368 21.3696 86.7952L22.3696 86.7863C22.3684 86.6536 22.3326 86.5234 22.2655 86.4088L21.4024 86.9138ZM21.4904 87.0009C21.4538 86.98 21.4235 86.9499 21.4024 86.9138L22.2655 86.4088C22.1984 86.2941 22.1024 86.199 21.987 86.1329L21.4904 87.0009ZM20.3249 86.3025L21.4816 86.9958L21.9957 86.1381L20.8391 85.4448L20.3249 86.3025ZM18.7959 84.3274C19.0387 85.1559 19.5852 85.8619 20.3261 86.3032L20.8378 85.444C20.3143 85.1323 19.9275 84.633 19.7555 84.0462L18.7959 84.3274ZM19.0165 81.8363C18.6319 82.609 18.5531 83.499 18.7959 84.3274L19.7555 84.0462C19.5835 83.4594 19.6394 82.829 19.9117 82.282L19.0165 81.8363ZM24.0371 63.0642L18.9812 81.9297L19.9471 82.1886L25.003 63.3231L24.0371 63.0642ZM24.9013 61.9778C24.4861 62.2097 24.1778 62.5944 24.0411 63.05L24.999 63.3373C25.0611 63.1301 25.2012 62.9557 25.3889 62.8509L24.9013 61.9778ZM26.2649 61.8093C25.8058 61.6854 25.3166 61.7459 24.9013 61.9778L25.3889 62.8509C25.5765 62.7461 25.7973 62.7189 26.0045 62.7748L26.2649 61.8093ZM27.3595 62.6405C27.1166 62.2315 26.7241 61.9332 26.2649 61.8093L26.0045 62.7748C26.2117 62.8307 26.3895 62.9655 26.4998 63.1512L27.3595 62.6405ZM27.5673 63.9997C27.6769 63.5369 27.6024 63.0494 27.3595 62.6405L26.4998 63.1512C26.6101 63.3369 26.6441 63.5587 26.5942 63.7694L27.5673 63.9997ZM23.6353 78.6709L27.5637 64.014L26.5978 63.7551L22.6694 78.4121L23.6353 78.6709ZM28.4832 73.2217L22.8235 78.1649L23.4813 78.9181L29.141 73.9749L28.4832 73.2217ZM29.2499 72.1997C29.0705 72.591 28.8095 72.939 28.4848 73.2203L29.1395 73.9762C29.5724 73.6012 29.92 73.1376 30.1589 72.6165L29.2499 72.1997ZM29.5246 70.9521C29.523 71.383 29.4293 71.8084 29.2499 72.1997L30.1589 72.6165C30.3978 72.0955 30.5225 71.5292 30.5246 70.9558L29.5246 70.9521ZM29.5246 51.5581V70.9539H30.5246V51.5581H29.5246ZM28.5288 48.1179C29.1811 49.1454 29.5267 50.3388 29.5246 51.5573L30.5246 51.559C30.5271 50.1503 30.1275 48.7703 29.373 47.5819L28.5288 48.1179ZM25.8439 45.7594C26.9447 46.2722 27.8765 47.0905 28.5288 48.1179L29.373 47.5819C28.6185 46.3935 27.5404 45.4465 26.2661 44.8529L25.8439 45.7594ZM15.1403 38.8764C16.811 40.4653 20.1618 43.1509 25.8464 45.7605L26.2636 44.8517C20.6821 42.2894 17.4226 39.6669 15.8294 38.1518L15.1403 38.8764ZM9.82399 43.5516C10.411 43.2989 13.7263 41.7569 15.888 38.8098L15.0817 38.2183C13.0822 40.9443 9.97155 42.3993 9.42853 42.6331L9.82399 43.5516ZM9.47551 44.2709C9.43169 44.0825 9.4841 43.933 9.58111 43.7993C9.6858 43.6551 9.82707 43.5556 9.88666 43.5192L9.36586 42.6655C9.24601 42.7387 8.98353 42.9202 8.77177 43.212C8.55233 43.5144 8.37559 43.956 8.50151 44.4974L9.47551 44.2709ZM11.2902 44.9611C10.9799 44.9352 10.4987 44.8264 10.0865 44.6572C9.88109 44.5729 9.71463 44.4823 9.60069 44.395C9.47755 44.3007 9.47152 44.2536 9.47572 44.2718L8.5013 44.4965C8.5734 44.8091 8.79288 45.0359 8.99256 45.1889C9.20144 45.3489 9.45509 45.479 9.70678 45.5823C10.2088 45.7883 10.7897 45.9228 11.2069 45.9577L11.2902 44.9611ZM12.4809 45.5481C12.172 45.2103 11.7476 45.0007 11.2916 44.9613L11.2054 45.9575C11.4111 45.9753 11.603 46.0699 11.743 46.223L12.4809 45.5481ZM12.961 46.7852C12.961 46.3274 12.7899 45.8859 12.4809 45.5481L11.743 46.223C11.883 46.3762 11.961 46.5767 11.961 46.7852L12.961 46.7852ZM12.961 52.2636V46.7852H11.961V52.2636H12.961ZM17.7286 46.2952L12.1076 51.9099L12.8143 52.6174L18.4353 47.0027L17.7286 46.2952ZM18.3083 45.8831C18.0838 45.9838 17.882 46.1288 17.7149 46.3094L18.4489 46.9885C18.5247 46.9067 18.616 46.8411 18.7174 46.7956L18.3083 45.8831ZM19.0213 45.7238C18.7753 45.7283 18.5328 45.7825 18.3083 45.8831L18.7174 46.7956C18.8189 46.7501 18.9283 46.7257 19.0393 46.7237L19.0213 45.7238ZM19.7395 45.8573C19.5115 45.7648 19.2672 45.7194 19.0213 45.7238L19.0393 46.7237C19.1502 46.7217 19.2605 46.7422 19.3635 46.7839L19.7395 45.8573ZM20.3478 46.262C20.1743 46.0875 19.9674 45.9498 19.7395 45.8573L19.3635 46.7839C19.4664 46.8257 19.5601 46.888 19.6387 46.967L20.3478 46.262ZM20.7492 46.8727C20.6578 46.6442 20.5213 46.4365 20.3478 46.262L19.6387 46.967C19.7173 47.0461 19.7793 47.1404 19.8208 47.2442L20.7492 46.8727ZM20.8801 47.5918C20.8852 47.3458 20.8407 47.1012 20.7492 46.8727L19.8208 47.2442C19.8624 47.3481 19.8826 47.4593 19.8804 47.5713L20.8801 47.5918ZM20.7199 48.305C20.8206 48.0804 20.8751 47.8379 20.8801 47.5918L19.8804 47.5713C19.8781 47.6833 19.8533 47.7936 19.8075 47.8957L20.7199 48.305ZM20.2937 48.8987C20.4742 48.7315 20.6191 48.5295 20.7199 48.305L19.8075 47.8957C19.7617 47.9977 19.6959 48.0893 19.6142 48.1651L20.2937 48.8987ZM12.4435 56.7503L20.3075 48.8854L19.6004 48.1783L11.7364 56.0432L12.4435 56.7503ZM12.415 56.7789L12.4441 56.7497L11.7358 56.0438L11.7067 56.073L12.415 56.7789ZM12.1356 57.2504C12.1963 57.0708 12.2949 56.9066 12.4247 56.7689L11.6971 56.0829C11.4685 56.3254 11.2949 56.6145 11.1882 56.9303L12.1356 57.2504ZM12.0732 57.8095C12.0536 57.6208 12.0749 57.4301 12.1356 57.2504L11.1882 56.9303C11.0815 57.2461 11.0441 57.5813 11.0786 57.9129L12.0732 57.8095ZM12.1646 58.1582C12.118 58.0443 12.0869 57.9245 12.0724 57.8022L11.0794 57.9203C11.1046 58.1322 11.1584 58.3398 11.2393 58.5374L12.1646 58.1582ZM14.5326 54.8997L11.3535 57.9892L12.0504 58.7063L15.2295 55.6168L14.5326 54.8997ZM15.8307 54.4161C15.3572 54.4003 14.8964 54.5696 14.5453 54.8877L15.2168 55.6288C15.3758 55.4847 15.584 55.4084 15.7975 55.4155L15.8307 54.4161ZM17.082 54.9721C16.7528 54.6314 16.3042 54.4319 15.8307 54.4161L15.7975 55.4155C16.011 55.4226 16.2137 55.5126 16.3629 55.667L17.082 54.9721ZM17.5965 56.2419C17.5955 55.768 17.4112 55.3128 17.082 54.9721L16.3629 55.667C16.5122 55.8214 16.5961 56.0283 16.5965 56.244L17.5965 56.2419ZM17.0874 57.5138C17.4152 57.1718 17.5975 56.7157 17.5965 56.2419L16.5965 56.244C16.597 56.4597 16.5139 56.6669 16.3654 56.822L17.0874 57.5138ZM13.3245 61.1916L17.0759 57.5255L16.3769 56.8103L12.6256 60.4764L13.3245 61.1916ZM12.9699 72.9236C13.2827 67.418 13.4555 63.3569 13.475 60.8378L12.4751 60.8301C12.4558 63.3224 12.2843 67.3621 11.9715 72.8669L12.9699 72.9236ZM12.3636 74.184C12.7246 73.8608 12.9425 73.4073 12.9699 72.9235L11.9715 72.867C11.959 73.087 11.8599 73.2927 11.6966 73.439L12.3636 74.184ZM11.0443 74.646C11.528 74.6736 12.0026 74.5073 12.3636 74.184L11.6966 73.439C11.5333 73.5852 11.3191 73.6601 11.1012 73.6477L11.0443 74.646ZM9.78581 74.0372C10.1079 74.3992 10.5605 74.6185 11.0443 74.646L11.1012 73.6477C10.8833 73.6352 10.6788 73.5365 10.533 73.3725L9.78581 74.0372ZM9.3259 72.7161C9.2985 73.2 9.46376 73.6752 9.78581 74.0372L10.533 73.3725C10.3871 73.2085 10.3118 72.9928 10.3243 72.7727L9.3259 72.7161ZM9.81011 60.902C9.78598 63.3541 9.61925 67.3216 9.32584 72.7173L10.3244 72.7716C10.6178 67.3758 10.7857 63.3884 10.8101 60.9119L9.81011 60.902ZM8.4316 58.0806C8.53408 59.2969 9.08054 60.4328 9.96663 61.2703L10.6535 60.5436C9.94649 59.8753 9.50994 58.9684 9.42806 57.9966L8.4316 58.0806ZM9.41099 54.6779C8.67775 55.6526 8.32911 56.8642 8.4316 58.0806L9.42806 57.9966C9.34618 57.0248 9.62478 56.0571 10.2101 55.2791L9.41099 54.6779ZM9.31055 47.8921V54.9785H10.3106V47.8921H9.31055ZM5.9135 45.0834C6.39596 47.2119 8.43325 48.0534 9.68576 48.3763L9.93535 47.4079C8.73385 47.0982 7.23562 46.3926 6.88877 44.8623L5.9135 45.0834ZM7.62475 40.6429C6.64173 41.3865 5.42402 42.9305 5.91358 45.0837L6.88869 44.862C6.51984 43.2397 7.41664 42.0542 8.22805 41.4404L7.62475 40.6429ZM5.80174 30.7053C5.76836 34.271 6.32604 37.8174 7.452 41.1996L8.4008 40.8837C7.30976 37.6064 6.76935 34.1699 6.80169 30.7147L5.80174 30.7053ZM5.80171 24.5553V30.71H6.80171V24.5553H5.80171ZM5.83199 24.16C5.80628 24.2969 5.7962 24.4367 5.80217 24.5766L6.80126 24.534C6.79854 24.4703 6.80313 24.4067 6.81483 24.3444L5.83199 24.16ZM5.82343 17.4689L5.82341 24.2522L6.82341 24.2522L6.82343 17.4689L5.82343 17.4689ZM6.36816 16.1885C6.02685 16.5246 5.83138 16.9816 5.8235 17.4607L6.82336 17.4772C6.82694 17.2598 6.91566 17.0528 7.06985 16.901L6.36816 16.1885ZM23.0498 28.4319C23.6259 28.4327 24.1791 28.6593 24.5916 29.0638L25.2917 28.3498C24.6931 27.7627 23.8892 27.4331 23.0513 27.4319L23.0498 28.4319ZM21.5113 29.0645C21.9232 28.6601 22.476 28.4333 23.0517 28.4319L23.0493 27.4319C22.212 27.4339 21.4088 27.7638 20.8107 28.3508L21.5113 29.0645ZM20.8466 30.598C20.8606 30.0191 21.0992 29.4689 21.5113 29.0645L20.8107 28.3508C20.2127 28.9378 19.8671 29.7355 19.8469 30.5739L20.8466 30.598ZM23.0518 29.3415C22.0097 29.3415 20.987 29.623 20.091 30.1563L20.6025 31.0156C21.3439 30.5743 22.1899 30.3415 23.0518 30.3415V29.3415ZM26.0125 30.1563C25.1165 29.623 24.0938 29.3415 23.0518 29.3415V30.3415C23.9136 30.3415 24.7596 30.5743 25.501 31.0156L26.0125 30.1563ZM24.5916 29.0638C25.004 29.4683 25.2429 30.0188 25.2569 30.598L26.2566 30.5739C26.2364 29.735 25.8904 28.9369 25.2917 28.3498L24.5916 29.0638ZM20.8395 38.8814V35.2178H19.8395V38.8814H20.8395ZM20.819 39.104C20.8293 39.0377 20.836 38.9709 20.839 38.9038L19.84 38.859C19.8386 38.8897 19.8356 38.9203 19.8309 38.9507L20.819 39.104ZM23.2022 40.2823C22.2175 39.703 21.3559 39.1411 20.6126 38.6184L20.0373 39.4364C20.8023 39.9743 21.6866 40.5509 22.6952 41.1442L23.2022 40.2823ZM25.2543 37.5507C25.2543 38.5101 25.0329 39.15 24.6753 39.5524C24.3249 39.9466 23.7734 40.1915 22.9356 40.2134L22.9618 41.213C23.9839 41.1863 24.8352 40.8777 25.4227 40.2167C26.0028 39.564 26.2543 38.647 26.2543 37.5507H25.2543ZM25.2543 35.2178V37.5507H26.2543V35.2178H25.2543ZM25.1057 34.3336C25.2128 34.6104 25.2634 34.906 25.2545 35.2029L26.2541 35.2327C26.2669 34.8025 26.1936 34.3741 26.0383 33.9728L25.1057 34.3336ZM24.6313 33.5917C24.8372 33.8046 24.9986 34.0569 25.1057 34.3336L26.0383 33.9728C25.883 33.5715 25.649 33.2054 25.35 32.8964L24.6313 33.5917ZM23.9068 33.0941C24.179 33.2096 24.4253 33.3788 24.6313 33.5917L25.35 32.8964C25.051 32.5873 24.6931 32.3415 24.2975 32.1736L23.9068 33.0941ZM23.0469 32.9192C23.3423 32.9192 23.6347 32.9787 23.9068 33.0941L24.2975 32.1736C23.9018 32.0057 23.4766 31.9192 23.0469 31.9192V32.9192ZM22.187 33.0941C22.4591 32.9787 22.7515 32.9192 23.0469 32.9192V31.9192C22.6172 31.9192 22.192 32.0057 21.7964 32.1736L22.187 33.0941ZM21.4625 33.5917C21.6685 33.3788 21.9149 33.2096 22.187 33.0941L21.7964 32.1736C21.4007 32.3415 21.0428 32.5873 20.7438 32.8964L21.4625 33.5917ZM20.9882 34.3336C21.0952 34.0569 21.2566 33.8046 21.4625 33.5917L20.7438 32.8964C20.4448 33.2054 20.2108 33.5715 20.0555 33.9728L20.9882 34.3336ZM20.8393 35.2029C20.8304 34.906 20.8811 34.6104 20.9882 34.3336L20.0555 33.9728C19.9003 34.3741 19.8269 34.8025 19.8397 35.2327L20.8393 35.2029ZM8.49915 102.793C8.49915 102.428 8.64359 102.078 8.90024 101.82L8.19154 101.115C7.74799 101.56 7.49915 102.164 7.49915 102.793H8.49915ZM8.49915 105.024V102.793H7.49915V105.024H8.49915ZM34.484 104.524H7.99915V105.524H34.484V104.524ZM33.984 102.791V105.024H34.984V102.791H33.984ZM33.5829 101.818C33.8395 102.076 33.984 102.425 33.984 102.791H34.984C34.984 102.162 34.7351 101.558 34.2916 101.112L33.5829 101.818ZM32.6162 101.415C32.9786 101.415 33.3263 101.56 33.5829 101.818L34.2916 101.112C33.848 100.667 33.2459 100.416 32.6175 100.415L32.6162 101.415ZM28.3635 101.415H32.6168V100.415H28.3635V101.415ZM27.1009 100.851C27.4265 101.192 27.8711 101.394 28.3421 101.414L28.385 100.415C28.1726 100.406 27.9716 100.315 27.824 100.161L27.1009 100.851ZM26.5938 99.5854C26.5938 100.057 26.7753 100.51 27.1009 100.851L27.824 100.161C27.6765 100.006 27.5938 99.8001 27.5938 99.5854H26.5938ZM27.1009 98.3195C26.7753 98.6604 26.5938 99.114 26.5938 99.5854H27.5938C27.5938 99.3708 27.6765 99.1647 27.824 99.0102L27.1009 98.3195ZM28.3421 97.7564C27.8711 97.7767 27.4265 97.9786 27.1009 98.3195L27.824 99.0102C27.9716 98.8557 28.1726 98.7646 28.385 98.7555L28.3421 97.7564ZM29.93 97.756H28.3635V98.756H29.93V97.756ZM28.0465 77.3923L29.4311 98.289L30.4289 98.2229L29.0443 77.3262L28.0465 77.3923ZM22.225 83.5379L28.8741 77.7359L28.2166 76.9825L21.5676 82.7844L22.225 83.5379ZM22.2852 83.4513C22.2705 83.4875 22.247 83.5197 22.2168 83.545L21.5758 82.7774C21.4803 82.8572 21.4059 82.9591 21.359 83.0742L22.2852 83.4513ZM22.3016 83.3373C22.3055 83.376 22.2999 83.4152 22.2852 83.4514L21.359 83.0742C21.3122 83.1892 21.2942 83.314 21.3067 83.4375L22.3016 83.3373ZM22.2671 83.2393C22.2868 83.2704 22.2988 83.3057 22.3021 83.3424L21.3062 83.4325C21.3172 83.554 21.3569 83.6711 21.4222 83.7742L22.2671 83.2393ZM22.1882 83.163C22.2203 83.1818 22.2473 83.208 22.2671 83.2392L21.4222 83.7742C21.4875 83.8773 21.5765 83.9635 21.682 84.0254L22.1882 83.163ZM23.3482 83.8558L22.1915 83.1649L21.6787 84.0235L22.8354 84.7143L23.3482 83.8558ZM24.5524 85.0658C24.2593 84.5662 23.8444 84.1495 23.3464 83.8548L22.8371 84.7154C23.189 84.9236 23.4825 85.2182 23.6899 85.5718L24.5524 85.0658ZM25.0221 86.7104C25.007 86.1312 24.8454 85.5653 24.5524 85.0658L23.6899 85.5718C23.8973 85.9253 24.0117 86.3261 24.0224 86.7364L25.0221 86.7104ZM24.6384 88.3773C24.9051 87.8632 25.0371 87.2896 25.0221 86.7104L24.0224 86.7364C24.0331 87.1467 23.9396 87.5529 23.7508 87.9168L24.6384 88.3773ZM23.497 89.6496C23.979 89.3293 24.3717 88.8915 24.6384 88.3773L23.7508 87.9168C23.562 88.2808 23.2842 88.5904 22.9436 88.8167L23.497 89.6496ZM13.6469 96.2747L23.4993 89.648L22.9412 88.8183L13.0888 95.4449L13.6469 96.2747ZM12.8871 96.6579C13.153 96.5608 13.4066 96.4331 13.643 96.2773L13.0928 95.4423C12.9211 95.5554 12.737 95.6481 12.5441 95.7185L12.8871 96.6579ZM13.0615 98.2952L13.2142 96.225L12.2169 96.1514L12.0642 98.2216L13.0615 98.2952ZM21.1931 97.7584H12.5628V98.7584H21.1931V97.7584ZM21.8947 97.8752C21.664 97.7879 21.4181 97.7483 21.1716 97.7589L21.2145 98.758C21.3257 98.7532 21.4367 98.771 21.5409 98.8105L21.8947 97.8752ZM22.5139 98.2666C22.336 98.0956 22.1254 97.9624 21.8947 97.8752L21.5409 98.8105C21.6451 98.8499 21.7404 98.9101 21.8209 98.9875L22.5139 98.2666ZM22.9298 98.8698C22.8332 98.6427 22.6918 98.4375 22.5139 98.2666L21.8209 98.9875C21.9015 99.065 21.9657 99.1581 22.0096 99.2613L22.9298 98.8698ZM23.0762 99.5879C23.0762 99.3411 23.0264 99.0969 22.9298 98.8698L22.0096 99.2613C22.0535 99.3645 22.0762 99.4756 22.0762 99.5879H23.0762ZM22.9298 100.306C23.0264 100.079 23.0762 99.8346 23.0762 99.5879H22.0762C22.0762 99.7002 22.0535 99.8113 22.0096 99.9145L22.9298 100.306ZM22.5139 100.909C22.6918 100.738 22.8332 100.533 22.9298 100.306L22.0096 99.9145C21.9657 100.018 21.9015 100.111 21.8209 100.188L22.5139 100.909ZM21.8947 101.301C22.1254 101.213 22.3361 101.08 22.5139 100.909L21.8209 100.188C21.7403 100.266 21.6451 100.326 21.5409 100.365L21.8947 101.301ZM21.1716 101.417C21.418 101.427 21.664 101.388 21.8947 101.301L21.5409 100.365C21.4367 100.405 21.3257 100.423 21.2145 100.418L21.1716 101.417ZM9.86633 101.417H21.1931V100.417H9.86633V101.417ZM8.90023 101.82C9.15682 101.563 9.50456 101.418 9.86698 101.417L9.86567 100.417C9.23724 100.418 8.63514 100.669 8.19154 101.115L8.90023 101.82Z" fill="white" mask="url(#path-5-inside-1_1759_2847)"></path>
</svg>
